%TF.GenerationSoftware,KiCad,Pcbnew,10.0.3*%
%TF.CreationDate,2026-08-12T17:55:38+05:30*%
%TF.ProjectId,IoT-Based-Smart-Aquarium-Monitor-&-Control-System,496f542d-4261-4736-9564-2d536d617274,1.0*%
%TF.SameCoordinates,Original*%
%TF.FileFunction,Legend,Top*%
%TF.FilePolarity,Positive*%
%FSLAX46Y46*%
G04 Gerber Fmt 4.6, Leading zero omitted, Abs format (unit mm)*
G04 Created by KiCad (PCBNEW 10.0.3) date 2026-08-12 17:55:38*
%MOMM*%
%LPD*%
G01*
G04 APERTURE LIST*
%ADD10C,0.150000*%
%ADD11C,0.120000*%
G04 APERTURE END LIST*
D10*
X100581619Y-141155657D02*
X100105428Y-141488990D01*
X100581619Y-141727085D02*
X99581619Y-141727085D01*
X99581619Y-141727085D02*
X99581619Y-141346133D01*
X99581619Y-141346133D02*
X99629238Y-141250895D01*
X99629238Y-141250895D02*
X99676857Y-141203276D01*
X99676857Y-141203276D02*
X99772095Y-141155657D01*
X99772095Y-141155657D02*
X99914952Y-141155657D01*
X99914952Y-141155657D02*
X100010190Y-141203276D01*
X100010190Y-141203276D02*
X100057809Y-141250895D01*
X100057809Y-141250895D02*
X100105428Y-141346133D01*
X100105428Y-141346133D02*
X100105428Y-141727085D01*
X100581619Y-140203276D02*
X100581619Y-140774704D01*
X100581619Y-140488990D02*
X99581619Y-140488990D01*
X99581619Y-140488990D02*
X99724476Y-140584228D01*
X99724476Y-140584228D02*
X99819714Y-140679466D01*
X99819714Y-140679466D02*
X99867333Y-140774704D01*
X99914952Y-139346133D02*
X100581619Y-139346133D01*
X99534000Y-139584228D02*
X100248285Y-139822323D01*
X100248285Y-139822323D02*
X100248285Y-139203276D01*
X145633410Y-95115884D02*
X145157219Y-95449217D01*
X145633410Y-95687312D02*
X144633410Y-95687312D01*
X144633410Y-95687312D02*
X144633410Y-95306360D01*
X144633410Y-95306360D02*
X144681029Y-95211122D01*
X144681029Y-95211122D02*
X144728648Y-95163503D01*
X144728648Y-95163503D02*
X144823886Y-95115884D01*
X144823886Y-95115884D02*
X144966743Y-95115884D01*
X144966743Y-95115884D02*
X145061981Y-95163503D01*
X145061981Y-95163503D02*
X145109600Y-95211122D01*
X145109600Y-95211122D02*
X145157219Y-95306360D01*
X145157219Y-95306360D02*
X145157219Y-95687312D01*
X144728648Y-94734931D02*
X144681029Y-94687312D01*
X144681029Y-94687312D02*
X144633410Y-94592074D01*
X144633410Y-94592074D02*
X144633410Y-94353979D01*
X144633410Y-94353979D02*
X144681029Y-94258741D01*
X144681029Y-94258741D02*
X144728648Y-94211122D01*
X144728648Y-94211122D02*
X144823886Y-94163503D01*
X144823886Y-94163503D02*
X144919124Y-94163503D01*
X144919124Y-94163503D02*
X145061981Y-94211122D01*
X145061981Y-94211122D02*
X145633410Y-94782550D01*
X145633410Y-94782550D02*
X145633410Y-94163503D01*
X139338830Y-95104041D02*
X138862639Y-95437374D01*
X139338830Y-95675469D02*
X138338830Y-95675469D01*
X138338830Y-95675469D02*
X138338830Y-95294517D01*
X138338830Y-95294517D02*
X138386449Y-95199279D01*
X138386449Y-95199279D02*
X138434068Y-95151660D01*
X138434068Y-95151660D02*
X138529306Y-95104041D01*
X138529306Y-95104041D02*
X138672163Y-95104041D01*
X138672163Y-95104041D02*
X138767401Y-95151660D01*
X138767401Y-95151660D02*
X138815020Y-95199279D01*
X138815020Y-95199279D02*
X138862639Y-95294517D01*
X138862639Y-95294517D02*
X138862639Y-95675469D01*
X138338830Y-94770707D02*
X138338830Y-94151660D01*
X138338830Y-94151660D02*
X138719782Y-94484993D01*
X138719782Y-94484993D02*
X138719782Y-94342136D01*
X138719782Y-94342136D02*
X138767401Y-94246898D01*
X138767401Y-94246898D02*
X138815020Y-94199279D01*
X138815020Y-94199279D02*
X138910258Y-94151660D01*
X138910258Y-94151660D02*
X139148353Y-94151660D01*
X139148353Y-94151660D02*
X139243591Y-94199279D01*
X139243591Y-94199279D02*
X139291211Y-94246898D01*
X139291211Y-94246898D02*
X139338830Y-94342136D01*
X139338830Y-94342136D02*
X139338830Y-94627850D01*
X139338830Y-94627850D02*
X139291211Y-94723088D01*
X139291211Y-94723088D02*
X139243591Y-94770707D01*
X98143219Y-90285866D02*
X97667028Y-90619199D01*
X98143219Y-90857294D02*
X97143219Y-90857294D01*
X97143219Y-90857294D02*
X97143219Y-90476342D01*
X97143219Y-90476342D02*
X97190838Y-90381104D01*
X97190838Y-90381104D02*
X97238457Y-90333485D01*
X97238457Y-90333485D02*
X97333695Y-90285866D01*
X97333695Y-90285866D02*
X97476552Y-90285866D01*
X97476552Y-90285866D02*
X97571790Y-90333485D01*
X97571790Y-90333485D02*
X97619409Y-90381104D01*
X97619409Y-90381104D02*
X97667028Y-90476342D01*
X97667028Y-90476342D02*
X97667028Y-90857294D01*
X98143219Y-89333485D02*
X98143219Y-89904913D01*
X98143219Y-89619199D02*
X97143219Y-89619199D01*
X97143219Y-89619199D02*
X97286076Y-89714437D01*
X97286076Y-89714437D02*
X97381314Y-89809675D01*
X97381314Y-89809675D02*
X97428933Y-89904913D01*
X86830819Y-87633333D02*
X87545104Y-87633333D01*
X87545104Y-87633333D02*
X87687961Y-87680952D01*
X87687961Y-87680952D02*
X87783200Y-87776190D01*
X87783200Y-87776190D02*
X87830819Y-87919047D01*
X87830819Y-87919047D02*
X87830819Y-88014285D01*
X86830819Y-86728571D02*
X86830819Y-86919047D01*
X86830819Y-86919047D02*
X86878438Y-87014285D01*
X86878438Y-87014285D02*
X86926057Y-87061904D01*
X86926057Y-87061904D02*
X87068914Y-87157142D01*
X87068914Y-87157142D02*
X87259390Y-87204761D01*
X87259390Y-87204761D02*
X87640342Y-87204761D01*
X87640342Y-87204761D02*
X87735580Y-87157142D01*
X87735580Y-87157142D02*
X87783200Y-87109523D01*
X87783200Y-87109523D02*
X87830819Y-87014285D01*
X87830819Y-87014285D02*
X87830819Y-86823809D01*
X87830819Y-86823809D02*
X87783200Y-86728571D01*
X87783200Y-86728571D02*
X87735580Y-86680952D01*
X87735580Y-86680952D02*
X87640342Y-86633333D01*
X87640342Y-86633333D02*
X87402247Y-86633333D01*
X87402247Y-86633333D02*
X87307009Y-86680952D01*
X87307009Y-86680952D02*
X87259390Y-86728571D01*
X87259390Y-86728571D02*
X87211771Y-86823809D01*
X87211771Y-86823809D02*
X87211771Y-87014285D01*
X87211771Y-87014285D02*
X87259390Y-87109523D01*
X87259390Y-87109523D02*
X87307009Y-87157142D01*
X87307009Y-87157142D02*
X87402247Y-87204761D01*
X194951093Y-64508620D02*
X194474902Y-64841953D01*
X194951093Y-65080048D02*
X193951093Y-65080048D01*
X193951093Y-65080048D02*
X193951093Y-64699096D01*
X193951093Y-64699096D02*
X193998712Y-64603858D01*
X193998712Y-64603858D02*
X194046331Y-64556239D01*
X194046331Y-64556239D02*
X194141569Y-64508620D01*
X194141569Y-64508620D02*
X194284426Y-64508620D01*
X194284426Y-64508620D02*
X194379664Y-64556239D01*
X194379664Y-64556239D02*
X194427283Y-64603858D01*
X194427283Y-64603858D02*
X194474902Y-64699096D01*
X194474902Y-64699096D02*
X194474902Y-65080048D01*
X194951093Y-63556239D02*
X194951093Y-64127667D01*
X194951093Y-63841953D02*
X193951093Y-63841953D01*
X193951093Y-63841953D02*
X194093950Y-63937191D01*
X194093950Y-63937191D02*
X194189188Y-64032429D01*
X194189188Y-64032429D02*
X194236807Y-64127667D01*
X194379664Y-62984810D02*
X194332045Y-63080048D01*
X194332045Y-63080048D02*
X194284426Y-63127667D01*
X194284426Y-63127667D02*
X194189188Y-63175286D01*
X194189188Y-63175286D02*
X194141569Y-63175286D01*
X194141569Y-63175286D02*
X194046331Y-63127667D01*
X194046331Y-63127667D02*
X193998712Y-63080048D01*
X193998712Y-63080048D02*
X193951093Y-62984810D01*
X193951093Y-62984810D02*
X193951093Y-62794334D01*
X193951093Y-62794334D02*
X193998712Y-62699096D01*
X193998712Y-62699096D02*
X194046331Y-62651477D01*
X194046331Y-62651477D02*
X194141569Y-62603858D01*
X194141569Y-62603858D02*
X194189188Y-62603858D01*
X194189188Y-62603858D02*
X194284426Y-62651477D01*
X194284426Y-62651477D02*
X194332045Y-62699096D01*
X194332045Y-62699096D02*
X194379664Y-62794334D01*
X194379664Y-62794334D02*
X194379664Y-62984810D01*
X194379664Y-62984810D02*
X194427283Y-63080048D01*
X194427283Y-63080048D02*
X194474902Y-63127667D01*
X194474902Y-63127667D02*
X194570140Y-63175286D01*
X194570140Y-63175286D02*
X194760616Y-63175286D01*
X194760616Y-63175286D02*
X194855854Y-63127667D01*
X194855854Y-63127667D02*
X194903474Y-63080048D01*
X194903474Y-63080048D02*
X194951093Y-62984810D01*
X194951093Y-62984810D02*
X194951093Y-62794334D01*
X194951093Y-62794334D02*
X194903474Y-62699096D01*
X194903474Y-62699096D02*
X194855854Y-62651477D01*
X194855854Y-62651477D02*
X194760616Y-62603858D01*
X194760616Y-62603858D02*
X194570140Y-62603858D01*
X194570140Y-62603858D02*
X194474902Y-62651477D01*
X194474902Y-62651477D02*
X194427283Y-62699096D01*
X194427283Y-62699096D02*
X194379664Y-62794334D01*
X185534819Y-99283333D02*
X186249104Y-99283333D01*
X186249104Y-99283333D02*
X186391961Y-99330952D01*
X186391961Y-99330952D02*
X186487200Y-99426190D01*
X186487200Y-99426190D02*
X186534819Y-99569047D01*
X186534819Y-99569047D02*
X186534819Y-99664285D01*
X185630057Y-98854761D02*
X185582438Y-98807142D01*
X185582438Y-98807142D02*
X185534819Y-98711904D01*
X185534819Y-98711904D02*
X185534819Y-98473809D01*
X185534819Y-98473809D02*
X185582438Y-98378571D01*
X185582438Y-98378571D02*
X185630057Y-98330952D01*
X185630057Y-98330952D02*
X185725295Y-98283333D01*
X185725295Y-98283333D02*
X185820533Y-98283333D01*
X185820533Y-98283333D02*
X185963390Y-98330952D01*
X185963390Y-98330952D02*
X186534819Y-98902380D01*
X186534819Y-98902380D02*
X186534819Y-98283333D01*
X181654819Y-97238094D02*
X180654819Y-97238094D01*
X180654819Y-97238094D02*
X180654819Y-96999999D01*
X180654819Y-96999999D02*
X180702438Y-96857142D01*
X180702438Y-96857142D02*
X180797676Y-96761904D01*
X180797676Y-96761904D02*
X180892914Y-96714285D01*
X180892914Y-96714285D02*
X181083390Y-96666666D01*
X181083390Y-96666666D02*
X181226247Y-96666666D01*
X181226247Y-96666666D02*
X181416723Y-96714285D01*
X181416723Y-96714285D02*
X181511961Y-96761904D01*
X181511961Y-96761904D02*
X181607200Y-96857142D01*
X181607200Y-96857142D02*
X181654819Y-96999999D01*
X181654819Y-96999999D02*
X181654819Y-97238094D01*
X180654819Y-96333332D02*
X180654819Y-95714285D01*
X180654819Y-95714285D02*
X181035771Y-96047618D01*
X181035771Y-96047618D02*
X181035771Y-95904761D01*
X181035771Y-95904761D02*
X181083390Y-95809523D01*
X181083390Y-95809523D02*
X181131009Y-95761904D01*
X181131009Y-95761904D02*
X181226247Y-95714285D01*
X181226247Y-95714285D02*
X181464342Y-95714285D01*
X181464342Y-95714285D02*
X181559580Y-95761904D01*
X181559580Y-95761904D02*
X181607200Y-95809523D01*
X181607200Y-95809523D02*
X181654819Y-95904761D01*
X181654819Y-95904761D02*
X181654819Y-96190475D01*
X181654819Y-96190475D02*
X181607200Y-96285713D01*
X181607200Y-96285713D02*
X181559580Y-96333332D01*
X189950057Y-61421001D02*
X189902438Y-61516239D01*
X189902438Y-61516239D02*
X189807200Y-61611477D01*
X189807200Y-61611477D02*
X189664342Y-61754334D01*
X189664342Y-61754334D02*
X189616723Y-61849572D01*
X189616723Y-61849572D02*
X189616723Y-61944810D01*
X189854819Y-61897191D02*
X189807200Y-61992429D01*
X189807200Y-61992429D02*
X189711961Y-62087667D01*
X189711961Y-62087667D02*
X189521485Y-62135286D01*
X189521485Y-62135286D02*
X189188152Y-62135286D01*
X189188152Y-62135286D02*
X188997676Y-62087667D01*
X188997676Y-62087667D02*
X188902438Y-61992429D01*
X188902438Y-61992429D02*
X188854819Y-61897191D01*
X188854819Y-61897191D02*
X188854819Y-61706715D01*
X188854819Y-61706715D02*
X188902438Y-61611477D01*
X188902438Y-61611477D02*
X188997676Y-61516239D01*
X188997676Y-61516239D02*
X189188152Y-61468620D01*
X189188152Y-61468620D02*
X189521485Y-61468620D01*
X189521485Y-61468620D02*
X189711961Y-61516239D01*
X189711961Y-61516239D02*
X189807200Y-61611477D01*
X189807200Y-61611477D02*
X189854819Y-61706715D01*
X189854819Y-61706715D02*
X189854819Y-61897191D01*
X189188152Y-60611477D02*
X189854819Y-60611477D01*
X188807200Y-60849572D02*
X189521485Y-61087667D01*
X189521485Y-61087667D02*
X189521485Y-60468620D01*
X88233333Y-125159580D02*
X88185714Y-125207200D01*
X88185714Y-125207200D02*
X88042857Y-125254819D01*
X88042857Y-125254819D02*
X87947619Y-125254819D01*
X87947619Y-125254819D02*
X87804762Y-125207200D01*
X87804762Y-125207200D02*
X87709524Y-125111961D01*
X87709524Y-125111961D02*
X87661905Y-125016723D01*
X87661905Y-125016723D02*
X87614286Y-124826247D01*
X87614286Y-124826247D02*
X87614286Y-124683390D01*
X87614286Y-124683390D02*
X87661905Y-124492914D01*
X87661905Y-124492914D02*
X87709524Y-124397676D01*
X87709524Y-124397676D02*
X87804762Y-124302438D01*
X87804762Y-124302438D02*
X87947619Y-124254819D01*
X87947619Y-124254819D02*
X88042857Y-124254819D01*
X88042857Y-124254819D02*
X88185714Y-124302438D01*
X88185714Y-124302438D02*
X88233333Y-124350057D01*
X88566667Y-124254819D02*
X89185714Y-124254819D01*
X89185714Y-124254819D02*
X88852381Y-124635771D01*
X88852381Y-124635771D02*
X88995238Y-124635771D01*
X88995238Y-124635771D02*
X89090476Y-124683390D01*
X89090476Y-124683390D02*
X89138095Y-124731009D01*
X89138095Y-124731009D02*
X89185714Y-124826247D01*
X89185714Y-124826247D02*
X89185714Y-125064342D01*
X89185714Y-125064342D02*
X89138095Y-125159580D01*
X89138095Y-125159580D02*
X89090476Y-125207200D01*
X89090476Y-125207200D02*
X88995238Y-125254819D01*
X88995238Y-125254819D02*
X88709524Y-125254819D01*
X88709524Y-125254819D02*
X88614286Y-125207200D01*
X88614286Y-125207200D02*
X88566667Y-125159580D01*
X139185714Y-68954819D02*
X139185714Y-67954819D01*
X139185714Y-67954819D02*
X139423809Y-67954819D01*
X139423809Y-67954819D02*
X139566666Y-68002438D01*
X139566666Y-68002438D02*
X139661904Y-68097676D01*
X139661904Y-68097676D02*
X139709523Y-68192914D01*
X139709523Y-68192914D02*
X139757142Y-68383390D01*
X139757142Y-68383390D02*
X139757142Y-68526247D01*
X139757142Y-68526247D02*
X139709523Y-68716723D01*
X139709523Y-68716723D02*
X139661904Y-68811961D01*
X139661904Y-68811961D02*
X139566666Y-68907200D01*
X139566666Y-68907200D02*
X139423809Y-68954819D01*
X139423809Y-68954819D02*
X139185714Y-68954819D01*
X140709523Y-68954819D02*
X140138095Y-68954819D01*
X140423809Y-68954819D02*
X140423809Y-67954819D01*
X140423809Y-67954819D02*
X140328571Y-68097676D01*
X140328571Y-68097676D02*
X140233333Y-68192914D01*
X140233333Y-68192914D02*
X140138095Y-68240533D01*
X141328571Y-67954819D02*
X141423809Y-67954819D01*
X141423809Y-67954819D02*
X141519047Y-68002438D01*
X141519047Y-68002438D02*
X141566666Y-68050057D01*
X141566666Y-68050057D02*
X141614285Y-68145295D01*
X141614285Y-68145295D02*
X141661904Y-68335771D01*
X141661904Y-68335771D02*
X141661904Y-68573866D01*
X141661904Y-68573866D02*
X141614285Y-68764342D01*
X141614285Y-68764342D02*
X141566666Y-68859580D01*
X141566666Y-68859580D02*
X141519047Y-68907200D01*
X141519047Y-68907200D02*
X141423809Y-68954819D01*
X141423809Y-68954819D02*
X141328571Y-68954819D01*
X141328571Y-68954819D02*
X141233333Y-68907200D01*
X141233333Y-68907200D02*
X141185714Y-68859580D01*
X141185714Y-68859580D02*
X141138095Y-68764342D01*
X141138095Y-68764342D02*
X141090476Y-68573866D01*
X141090476Y-68573866D02*
X141090476Y-68335771D01*
X141090476Y-68335771D02*
X141138095Y-68145295D01*
X141138095Y-68145295D02*
X141185714Y-68050057D01*
X141185714Y-68050057D02*
X141233333Y-68002438D01*
X141233333Y-68002438D02*
X141328571Y-67954819D01*
X77601905Y-54302819D02*
X77601905Y-53302819D01*
X78173333Y-54302819D02*
X77744762Y-53731390D01*
X78173333Y-53302819D02*
X77601905Y-53874247D01*
X79030476Y-53636152D02*
X79030476Y-54302819D01*
X78792381Y-53255200D02*
X78554286Y-53969485D01*
X78554286Y-53969485D02*
X79173333Y-53969485D01*
X127628647Y-83738159D02*
X127628647Y-84452444D01*
X127628647Y-84452444D02*
X127581028Y-84595301D01*
X127581028Y-84595301D02*
X127485790Y-84690540D01*
X127485790Y-84690540D02*
X127342933Y-84738159D01*
X127342933Y-84738159D02*
X127247695Y-84738159D01*
X128057219Y-83833397D02*
X128104838Y-83785778D01*
X128104838Y-83785778D02*
X128200076Y-83738159D01*
X128200076Y-83738159D02*
X128438171Y-83738159D01*
X128438171Y-83738159D02*
X128533409Y-83785778D01*
X128533409Y-83785778D02*
X128581028Y-83833397D01*
X128581028Y-83833397D02*
X128628647Y-83928635D01*
X128628647Y-83928635D02*
X128628647Y-84023873D01*
X128628647Y-84023873D02*
X128581028Y-84166730D01*
X128581028Y-84166730D02*
X128009600Y-84738159D01*
X128009600Y-84738159D02*
X128628647Y-84738159D01*
X129581028Y-84738159D02*
X129009600Y-84738159D01*
X129295314Y-84738159D02*
X129295314Y-83738159D01*
X129295314Y-83738159D02*
X129200076Y-83881016D01*
X129200076Y-83881016D02*
X129104838Y-83976254D01*
X129104838Y-83976254D02*
X129009600Y-84023873D01*
X188688742Y-72641619D02*
X188355409Y-72165428D01*
X188117314Y-72641619D02*
X188117314Y-71641619D01*
X188117314Y-71641619D02*
X188498266Y-71641619D01*
X188498266Y-71641619D02*
X188593504Y-71689238D01*
X188593504Y-71689238D02*
X188641123Y-71736857D01*
X188641123Y-71736857D02*
X188688742Y-71832095D01*
X188688742Y-71832095D02*
X188688742Y-71974952D01*
X188688742Y-71974952D02*
X188641123Y-72070190D01*
X188641123Y-72070190D02*
X188593504Y-72117809D01*
X188593504Y-72117809D02*
X188498266Y-72165428D01*
X188498266Y-72165428D02*
X188117314Y-72165428D01*
X189641123Y-72641619D02*
X189069695Y-72641619D01*
X189355409Y-72641619D02*
X189355409Y-71641619D01*
X189355409Y-71641619D02*
X189260171Y-71784476D01*
X189260171Y-71784476D02*
X189164933Y-71879714D01*
X189164933Y-71879714D02*
X189069695Y-71927333D01*
X190498266Y-71641619D02*
X190307790Y-71641619D01*
X190307790Y-71641619D02*
X190212552Y-71689238D01*
X190212552Y-71689238D02*
X190164933Y-71736857D01*
X190164933Y-71736857D02*
X190069695Y-71879714D01*
X190069695Y-71879714D02*
X190022076Y-72070190D01*
X190022076Y-72070190D02*
X190022076Y-72451142D01*
X190022076Y-72451142D02*
X190069695Y-72546380D01*
X190069695Y-72546380D02*
X190117314Y-72594000D01*
X190117314Y-72594000D02*
X190212552Y-72641619D01*
X190212552Y-72641619D02*
X190403028Y-72641619D01*
X190403028Y-72641619D02*
X190498266Y-72594000D01*
X190498266Y-72594000D02*
X190545885Y-72546380D01*
X190545885Y-72546380D02*
X190593504Y-72451142D01*
X190593504Y-72451142D02*
X190593504Y-72213047D01*
X190593504Y-72213047D02*
X190545885Y-72117809D01*
X190545885Y-72117809D02*
X190498266Y-72070190D01*
X190498266Y-72070190D02*
X190403028Y-72022571D01*
X190403028Y-72022571D02*
X190212552Y-72022571D01*
X190212552Y-72022571D02*
X190117314Y-72070190D01*
X190117314Y-72070190D02*
X190069695Y-72117809D01*
X190069695Y-72117809D02*
X190022076Y-72213047D01*
X69704819Y-129160323D02*
X70419104Y-129160323D01*
X70419104Y-129160323D02*
X70561961Y-129207942D01*
X70561961Y-129207942D02*
X70657200Y-129303180D01*
X70657200Y-129303180D02*
X70704819Y-129446037D01*
X70704819Y-129446037D02*
X70704819Y-129541275D01*
X70704819Y-128160323D02*
X70704819Y-128731751D01*
X70704819Y-128446037D02*
X69704819Y-128446037D01*
X69704819Y-128446037D02*
X69847676Y-128541275D01*
X69847676Y-128541275D02*
X69942914Y-128636513D01*
X69942914Y-128636513D02*
X69990533Y-128731751D01*
X70704819Y-127684132D02*
X70704819Y-127493656D01*
X70704819Y-127493656D02*
X70657200Y-127398418D01*
X70657200Y-127398418D02*
X70609580Y-127350799D01*
X70609580Y-127350799D02*
X70466723Y-127255561D01*
X70466723Y-127255561D02*
X70276247Y-127207942D01*
X70276247Y-127207942D02*
X69895295Y-127207942D01*
X69895295Y-127207942D02*
X69800057Y-127255561D01*
X69800057Y-127255561D02*
X69752438Y-127303180D01*
X69752438Y-127303180D02*
X69704819Y-127398418D01*
X69704819Y-127398418D02*
X69704819Y-127588894D01*
X69704819Y-127588894D02*
X69752438Y-127684132D01*
X69752438Y-127684132D02*
X69800057Y-127731751D01*
X69800057Y-127731751D02*
X69895295Y-127779370D01*
X69895295Y-127779370D02*
X70133390Y-127779370D01*
X70133390Y-127779370D02*
X70228628Y-127731751D01*
X70228628Y-127731751D02*
X70276247Y-127684132D01*
X70276247Y-127684132D02*
X70323866Y-127588894D01*
X70323866Y-127588894D02*
X70323866Y-127398418D01*
X70323866Y-127398418D02*
X70276247Y-127303180D01*
X70276247Y-127303180D02*
X70228628Y-127255561D01*
X70228628Y-127255561D02*
X70133390Y-127207942D01*
X83950057Y-73450438D02*
X83902438Y-73545676D01*
X83902438Y-73545676D02*
X83807200Y-73640914D01*
X83807200Y-73640914D02*
X83664342Y-73783771D01*
X83664342Y-73783771D02*
X83616723Y-73879009D01*
X83616723Y-73879009D02*
X83616723Y-73974247D01*
X83854819Y-73926628D02*
X83807200Y-74021866D01*
X83807200Y-74021866D02*
X83711961Y-74117104D01*
X83711961Y-74117104D02*
X83521485Y-74164723D01*
X83521485Y-74164723D02*
X83188152Y-74164723D01*
X83188152Y-74164723D02*
X82997676Y-74117104D01*
X82997676Y-74117104D02*
X82902438Y-74021866D01*
X82902438Y-74021866D02*
X82854819Y-73926628D01*
X82854819Y-73926628D02*
X82854819Y-73736152D01*
X82854819Y-73736152D02*
X82902438Y-73640914D01*
X82902438Y-73640914D02*
X82997676Y-73545676D01*
X82997676Y-73545676D02*
X83188152Y-73498057D01*
X83188152Y-73498057D02*
X83521485Y-73498057D01*
X83521485Y-73498057D02*
X83711961Y-73545676D01*
X83711961Y-73545676D02*
X83807200Y-73640914D01*
X83807200Y-73640914D02*
X83854819Y-73736152D01*
X83854819Y-73736152D02*
X83854819Y-73926628D01*
X82950057Y-73117104D02*
X82902438Y-73069485D01*
X82902438Y-73069485D02*
X82854819Y-72974247D01*
X82854819Y-72974247D02*
X82854819Y-72736152D01*
X82854819Y-72736152D02*
X82902438Y-72640914D01*
X82902438Y-72640914D02*
X82950057Y-72593295D01*
X82950057Y-72593295D02*
X83045295Y-72545676D01*
X83045295Y-72545676D02*
X83140533Y-72545676D01*
X83140533Y-72545676D02*
X83283390Y-72593295D01*
X83283390Y-72593295D02*
X83854819Y-73164723D01*
X83854819Y-73164723D02*
X83854819Y-72545676D01*
X118178342Y-76604019D02*
X117845009Y-76127828D01*
X117606914Y-76604019D02*
X117606914Y-75604019D01*
X117606914Y-75604019D02*
X117987866Y-75604019D01*
X117987866Y-75604019D02*
X118083104Y-75651638D01*
X118083104Y-75651638D02*
X118130723Y-75699257D01*
X118130723Y-75699257D02*
X118178342Y-75794495D01*
X118178342Y-75794495D02*
X118178342Y-75937352D01*
X118178342Y-75937352D02*
X118130723Y-76032590D01*
X118130723Y-76032590D02*
X118083104Y-76080209D01*
X118083104Y-76080209D02*
X117987866Y-76127828D01*
X117987866Y-76127828D02*
X117606914Y-76127828D01*
X119130723Y-76604019D02*
X118559295Y-76604019D01*
X118845009Y-76604019D02*
X118845009Y-75604019D01*
X118845009Y-75604019D02*
X118749771Y-75746876D01*
X118749771Y-75746876D02*
X118654533Y-75842114D01*
X118654533Y-75842114D02*
X118559295Y-75889733D01*
X120035485Y-75604019D02*
X119559295Y-75604019D01*
X119559295Y-75604019D02*
X119511676Y-76080209D01*
X119511676Y-76080209D02*
X119559295Y-76032590D01*
X119559295Y-76032590D02*
X119654533Y-75984971D01*
X119654533Y-75984971D02*
X119892628Y-75984971D01*
X119892628Y-75984971D02*
X119987866Y-76032590D01*
X119987866Y-76032590D02*
X120035485Y-76080209D01*
X120035485Y-76080209D02*
X120083104Y-76175447D01*
X120083104Y-76175447D02*
X120083104Y-76413542D01*
X120083104Y-76413542D02*
X120035485Y-76508780D01*
X120035485Y-76508780D02*
X119987866Y-76556400D01*
X119987866Y-76556400D02*
X119892628Y-76604019D01*
X119892628Y-76604019D02*
X119654533Y-76604019D01*
X119654533Y-76604019D02*
X119559295Y-76556400D01*
X119559295Y-76556400D02*
X119511676Y-76508780D01*
X186354819Y-48954096D02*
X187069104Y-48954096D01*
X187069104Y-48954096D02*
X187211961Y-49001715D01*
X187211961Y-49001715D02*
X187307200Y-49096953D01*
X187307200Y-49096953D02*
X187354819Y-49239810D01*
X187354819Y-49239810D02*
X187354819Y-49335048D01*
X186688152Y-48049334D02*
X187354819Y-48049334D01*
X186307200Y-48287429D02*
X187021485Y-48525524D01*
X187021485Y-48525524D02*
X187021485Y-47906477D01*
X188085714Y-144754819D02*
X188085714Y-143754819D01*
X188085714Y-143754819D02*
X188323809Y-143754819D01*
X188323809Y-143754819D02*
X188466666Y-143802438D01*
X188466666Y-143802438D02*
X188561904Y-143897676D01*
X188561904Y-143897676D02*
X188609523Y-143992914D01*
X188609523Y-143992914D02*
X188657142Y-144183390D01*
X188657142Y-144183390D02*
X188657142Y-144326247D01*
X188657142Y-144326247D02*
X188609523Y-144516723D01*
X188609523Y-144516723D02*
X188561904Y-144611961D01*
X188561904Y-144611961D02*
X188466666Y-144707200D01*
X188466666Y-144707200D02*
X188323809Y-144754819D01*
X188323809Y-144754819D02*
X188085714Y-144754819D01*
X189609523Y-144754819D02*
X189038095Y-144754819D01*
X189323809Y-144754819D02*
X189323809Y-143754819D01*
X189323809Y-143754819D02*
X189228571Y-143897676D01*
X189228571Y-143897676D02*
X189133333Y-143992914D01*
X189133333Y-143992914D02*
X189038095Y-144040533D01*
X190561904Y-144754819D02*
X189990476Y-144754819D01*
X190276190Y-144754819D02*
X190276190Y-143754819D01*
X190276190Y-143754819D02*
X190180952Y-143897676D01*
X190180952Y-143897676D02*
X190085714Y-143992914D01*
X190085714Y-143992914D02*
X189990476Y-144040533D01*
X78833333Y-107555619D02*
X78500000Y-107079428D01*
X78261905Y-107555619D02*
X78261905Y-106555619D01*
X78261905Y-106555619D02*
X78642857Y-106555619D01*
X78642857Y-106555619D02*
X78738095Y-106603238D01*
X78738095Y-106603238D02*
X78785714Y-106650857D01*
X78785714Y-106650857D02*
X78833333Y-106746095D01*
X78833333Y-106746095D02*
X78833333Y-106888952D01*
X78833333Y-106888952D02*
X78785714Y-106984190D01*
X78785714Y-106984190D02*
X78738095Y-107031809D01*
X78738095Y-107031809D02*
X78642857Y-107079428D01*
X78642857Y-107079428D02*
X78261905Y-107079428D01*
X79690476Y-106555619D02*
X79500000Y-106555619D01*
X79500000Y-106555619D02*
X79404762Y-106603238D01*
X79404762Y-106603238D02*
X79357143Y-106650857D01*
X79357143Y-106650857D02*
X79261905Y-106793714D01*
X79261905Y-106793714D02*
X79214286Y-106984190D01*
X79214286Y-106984190D02*
X79214286Y-107365142D01*
X79214286Y-107365142D02*
X79261905Y-107460380D01*
X79261905Y-107460380D02*
X79309524Y-107508000D01*
X79309524Y-107508000D02*
X79404762Y-107555619D01*
X79404762Y-107555619D02*
X79595238Y-107555619D01*
X79595238Y-107555619D02*
X79690476Y-107508000D01*
X79690476Y-107508000D02*
X79738095Y-107460380D01*
X79738095Y-107460380D02*
X79785714Y-107365142D01*
X79785714Y-107365142D02*
X79785714Y-107127047D01*
X79785714Y-107127047D02*
X79738095Y-107031809D01*
X79738095Y-107031809D02*
X79690476Y-106984190D01*
X79690476Y-106984190D02*
X79595238Y-106936571D01*
X79595238Y-106936571D02*
X79404762Y-106936571D01*
X79404762Y-106936571D02*
X79309524Y-106984190D01*
X79309524Y-106984190D02*
X79261905Y-107031809D01*
X79261905Y-107031809D02*
X79214286Y-107127047D01*
X177181750Y-49354819D02*
X177181750Y-50069104D01*
X177181750Y-50069104D02*
X177134131Y-50211961D01*
X177134131Y-50211961D02*
X177038893Y-50307200D01*
X177038893Y-50307200D02*
X176896036Y-50354819D01*
X176896036Y-50354819D02*
X176800798Y-50354819D01*
X178181750Y-50354819D02*
X177610322Y-50354819D01*
X177896036Y-50354819D02*
X177896036Y-49354819D01*
X177896036Y-49354819D02*
X177800798Y-49497676D01*
X177800798Y-49497676D02*
X177705560Y-49592914D01*
X177705560Y-49592914D02*
X177610322Y-49640533D01*
X178515084Y-49354819D02*
X179181750Y-49354819D01*
X179181750Y-49354819D02*
X178753179Y-50354819D01*
X153931009Y-60533333D02*
X153931009Y-60866666D01*
X154454819Y-60866666D02*
X153454819Y-60866666D01*
X153454819Y-60866666D02*
X153454819Y-60390476D01*
X153550057Y-60057142D02*
X153502438Y-60009523D01*
X153502438Y-60009523D02*
X153454819Y-59914285D01*
X153454819Y-59914285D02*
X153454819Y-59676190D01*
X153454819Y-59676190D02*
X153502438Y-59580952D01*
X153502438Y-59580952D02*
X153550057Y-59533333D01*
X153550057Y-59533333D02*
X153645295Y-59485714D01*
X153645295Y-59485714D02*
X153740533Y-59485714D01*
X153740533Y-59485714D02*
X153883390Y-59533333D01*
X153883390Y-59533333D02*
X154454819Y-60104761D01*
X154454819Y-60104761D02*
X154454819Y-59485714D01*
X78107142Y-119805619D02*
X77773809Y-119329428D01*
X77535714Y-119805619D02*
X77535714Y-118805619D01*
X77535714Y-118805619D02*
X77916666Y-118805619D01*
X77916666Y-118805619D02*
X78011904Y-118853238D01*
X78011904Y-118853238D02*
X78059523Y-118900857D01*
X78059523Y-118900857D02*
X78107142Y-118996095D01*
X78107142Y-118996095D02*
X78107142Y-119138952D01*
X78107142Y-119138952D02*
X78059523Y-119234190D01*
X78059523Y-119234190D02*
X78011904Y-119281809D01*
X78011904Y-119281809D02*
X77916666Y-119329428D01*
X77916666Y-119329428D02*
X77535714Y-119329428D01*
X79059523Y-119805619D02*
X78488095Y-119805619D01*
X78773809Y-119805619D02*
X78773809Y-118805619D01*
X78773809Y-118805619D02*
X78678571Y-118948476D01*
X78678571Y-118948476D02*
X78583333Y-119043714D01*
X78583333Y-119043714D02*
X78488095Y-119091333D01*
X80011904Y-119805619D02*
X79440476Y-119805619D01*
X79726190Y-119805619D02*
X79726190Y-118805619D01*
X79726190Y-118805619D02*
X79630952Y-118948476D01*
X79630952Y-118948476D02*
X79535714Y-119043714D01*
X79535714Y-119043714D02*
X79440476Y-119091333D01*
X156996419Y-115337981D02*
X156996419Y-115814171D01*
X156996419Y-115814171D02*
X155996419Y-115814171D01*
X156472609Y-115004647D02*
X156472609Y-114671314D01*
X156996419Y-114528457D02*
X156996419Y-115004647D01*
X156996419Y-115004647D02*
X155996419Y-115004647D01*
X155996419Y-115004647D02*
X155996419Y-114528457D01*
X156948800Y-114147504D02*
X156996419Y-114052266D01*
X156996419Y-114052266D02*
X156996419Y-113861790D01*
X156996419Y-113861790D02*
X156948800Y-113766552D01*
X156948800Y-113766552D02*
X156853561Y-113718933D01*
X156853561Y-113718933D02*
X156805942Y-113718933D01*
X156805942Y-113718933D02*
X156710704Y-113766552D01*
X156710704Y-113766552D02*
X156663085Y-113861790D01*
X156663085Y-113861790D02*
X156663085Y-114004647D01*
X156663085Y-114004647D02*
X156615466Y-114099885D01*
X156615466Y-114099885D02*
X156520228Y-114147504D01*
X156520228Y-114147504D02*
X156472609Y-114147504D01*
X156472609Y-114147504D02*
X156377371Y-114099885D01*
X156377371Y-114099885D02*
X156329752Y-114004647D01*
X156329752Y-114004647D02*
X156329752Y-113861790D01*
X156329752Y-113861790D02*
X156377371Y-113766552D01*
X156329752Y-113290361D02*
X157329752Y-113290361D01*
X156377371Y-113290361D02*
X156329752Y-113195123D01*
X156329752Y-113195123D02*
X156329752Y-113004647D01*
X156329752Y-113004647D02*
X156377371Y-112909409D01*
X156377371Y-112909409D02*
X156424990Y-112861790D01*
X156424990Y-112861790D02*
X156520228Y-112814171D01*
X156520228Y-112814171D02*
X156805942Y-112814171D01*
X156805942Y-112814171D02*
X156901180Y-112861790D01*
X156901180Y-112861790D02*
X156948800Y-112909409D01*
X156948800Y-112909409D02*
X156996419Y-113004647D01*
X156996419Y-113004647D02*
X156996419Y-113195123D01*
X156996419Y-113195123D02*
X156948800Y-113290361D01*
X155996419Y-112480837D02*
X155996419Y-111861790D01*
X155996419Y-111861790D02*
X156377371Y-112195123D01*
X156377371Y-112195123D02*
X156377371Y-112052266D01*
X156377371Y-112052266D02*
X156424990Y-111957028D01*
X156424990Y-111957028D02*
X156472609Y-111909409D01*
X156472609Y-111909409D02*
X156567847Y-111861790D01*
X156567847Y-111861790D02*
X156805942Y-111861790D01*
X156805942Y-111861790D02*
X156901180Y-111909409D01*
X156901180Y-111909409D02*
X156948800Y-111957028D01*
X156948800Y-111957028D02*
X156996419Y-112052266D01*
X156996419Y-112052266D02*
X156996419Y-112337980D01*
X156996419Y-112337980D02*
X156948800Y-112433218D01*
X156948800Y-112433218D02*
X156901180Y-112480837D01*
X156091657Y-111480837D02*
X156044038Y-111433218D01*
X156044038Y-111433218D02*
X155996419Y-111337980D01*
X155996419Y-111337980D02*
X155996419Y-111099885D01*
X155996419Y-111099885D02*
X156044038Y-111004647D01*
X156044038Y-111004647D02*
X156091657Y-110957028D01*
X156091657Y-110957028D02*
X156186895Y-110909409D01*
X156186895Y-110909409D02*
X156282133Y-110909409D01*
X156282133Y-110909409D02*
X156424990Y-110957028D01*
X156424990Y-110957028D02*
X156996419Y-111528456D01*
X156996419Y-111528456D02*
X156996419Y-110909409D01*
X91508342Y-75486419D02*
X91175009Y-75010228D01*
X90936914Y-75486419D02*
X90936914Y-74486419D01*
X90936914Y-74486419D02*
X91317866Y-74486419D01*
X91317866Y-74486419D02*
X91413104Y-74534038D01*
X91413104Y-74534038D02*
X91460723Y-74581657D01*
X91460723Y-74581657D02*
X91508342Y-74676895D01*
X91508342Y-74676895D02*
X91508342Y-74819752D01*
X91508342Y-74819752D02*
X91460723Y-74914990D01*
X91460723Y-74914990D02*
X91413104Y-74962609D01*
X91413104Y-74962609D02*
X91317866Y-75010228D01*
X91317866Y-75010228D02*
X90936914Y-75010228D01*
X92460723Y-75486419D02*
X91889295Y-75486419D01*
X92175009Y-75486419D02*
X92175009Y-74486419D01*
X92175009Y-74486419D02*
X92079771Y-74629276D01*
X92079771Y-74629276D02*
X91984533Y-74724514D01*
X91984533Y-74724514D02*
X91889295Y-74772133D01*
X92794057Y-74486419D02*
X93413104Y-74486419D01*
X93413104Y-74486419D02*
X93079771Y-74867371D01*
X93079771Y-74867371D02*
X93222628Y-74867371D01*
X93222628Y-74867371D02*
X93317866Y-74914990D01*
X93317866Y-74914990D02*
X93365485Y-74962609D01*
X93365485Y-74962609D02*
X93413104Y-75057847D01*
X93413104Y-75057847D02*
X93413104Y-75295942D01*
X93413104Y-75295942D02*
X93365485Y-75391180D01*
X93365485Y-75391180D02*
X93317866Y-75438800D01*
X93317866Y-75438800D02*
X93222628Y-75486419D01*
X93222628Y-75486419D02*
X92936914Y-75486419D01*
X92936914Y-75486419D02*
X92841676Y-75438800D01*
X92841676Y-75438800D02*
X92794057Y-75391180D01*
X133593153Y-48954819D02*
X133593153Y-49669104D01*
X133593153Y-49669104D02*
X133545534Y-49811961D01*
X133545534Y-49811961D02*
X133450296Y-49907200D01*
X133450296Y-49907200D02*
X133307439Y-49954819D01*
X133307439Y-49954819D02*
X133212201Y-49954819D01*
X134593153Y-49954819D02*
X134021725Y-49954819D01*
X134307439Y-49954819D02*
X134307439Y-48954819D01*
X134307439Y-48954819D02*
X134212201Y-49097676D01*
X134212201Y-49097676D02*
X134116963Y-49192914D01*
X134116963Y-49192914D02*
X134021725Y-49240533D01*
X135450296Y-48954819D02*
X135259820Y-48954819D01*
X135259820Y-48954819D02*
X135164582Y-49002438D01*
X135164582Y-49002438D02*
X135116963Y-49050057D01*
X135116963Y-49050057D02*
X135021725Y-49192914D01*
X135021725Y-49192914D02*
X134974106Y-49383390D01*
X134974106Y-49383390D02*
X134974106Y-49764342D01*
X134974106Y-49764342D02*
X135021725Y-49859580D01*
X135021725Y-49859580D02*
X135069344Y-49907200D01*
X135069344Y-49907200D02*
X135164582Y-49954819D01*
X135164582Y-49954819D02*
X135355058Y-49954819D01*
X135355058Y-49954819D02*
X135450296Y-49907200D01*
X135450296Y-49907200D02*
X135497915Y-49859580D01*
X135497915Y-49859580D02*
X135545534Y-49764342D01*
X135545534Y-49764342D02*
X135545534Y-49526247D01*
X135545534Y-49526247D02*
X135497915Y-49431009D01*
X135497915Y-49431009D02*
X135450296Y-49383390D01*
X135450296Y-49383390D02*
X135355058Y-49335771D01*
X135355058Y-49335771D02*
X135164582Y-49335771D01*
X135164582Y-49335771D02*
X135069344Y-49383390D01*
X135069344Y-49383390D02*
X135021725Y-49431009D01*
X135021725Y-49431009D02*
X134974106Y-49526247D01*
X79962666Y-144697619D02*
X79962666Y-145411904D01*
X79962666Y-145411904D02*
X79915047Y-145554761D01*
X79915047Y-145554761D02*
X79819809Y-145650000D01*
X79819809Y-145650000D02*
X79676952Y-145697619D01*
X79676952Y-145697619D02*
X79581714Y-145697619D01*
X80486476Y-145697619D02*
X80676952Y-145697619D01*
X80676952Y-145697619D02*
X80772190Y-145650000D01*
X80772190Y-145650000D02*
X80819809Y-145602380D01*
X80819809Y-145602380D02*
X80915047Y-145459523D01*
X80915047Y-145459523D02*
X80962666Y-145269047D01*
X80962666Y-145269047D02*
X80962666Y-144888095D01*
X80962666Y-144888095D02*
X80915047Y-144792857D01*
X80915047Y-144792857D02*
X80867428Y-144745238D01*
X80867428Y-144745238D02*
X80772190Y-144697619D01*
X80772190Y-144697619D02*
X80581714Y-144697619D01*
X80581714Y-144697619D02*
X80486476Y-144745238D01*
X80486476Y-144745238D02*
X80438857Y-144792857D01*
X80438857Y-144792857D02*
X80391238Y-144888095D01*
X80391238Y-144888095D02*
X80391238Y-145126190D01*
X80391238Y-145126190D02*
X80438857Y-145221428D01*
X80438857Y-145221428D02*
X80486476Y-145269047D01*
X80486476Y-145269047D02*
X80581714Y-145316666D01*
X80581714Y-145316666D02*
X80772190Y-145316666D01*
X80772190Y-145316666D02*
X80867428Y-145269047D01*
X80867428Y-145269047D02*
X80915047Y-145221428D01*
X80915047Y-145221428D02*
X80962666Y-145126190D01*
X95111219Y-125961733D02*
X95825504Y-125961733D01*
X95825504Y-125961733D02*
X95968361Y-126009352D01*
X95968361Y-126009352D02*
X96063600Y-126104590D01*
X96063600Y-126104590D02*
X96111219Y-126247447D01*
X96111219Y-126247447D02*
X96111219Y-126342685D01*
X95111219Y-125009352D02*
X95111219Y-125485542D01*
X95111219Y-125485542D02*
X95587409Y-125533161D01*
X95587409Y-125533161D02*
X95539790Y-125485542D01*
X95539790Y-125485542D02*
X95492171Y-125390304D01*
X95492171Y-125390304D02*
X95492171Y-125152209D01*
X95492171Y-125152209D02*
X95539790Y-125056971D01*
X95539790Y-125056971D02*
X95587409Y-125009352D01*
X95587409Y-125009352D02*
X95682647Y-124961733D01*
X95682647Y-124961733D02*
X95920742Y-124961733D01*
X95920742Y-124961733D02*
X96015980Y-125009352D01*
X96015980Y-125009352D02*
X96063600Y-125056971D01*
X96063600Y-125056971D02*
X96111219Y-125152209D01*
X96111219Y-125152209D02*
X96111219Y-125390304D01*
X96111219Y-125390304D02*
X96063600Y-125485542D01*
X96063600Y-125485542D02*
X96015980Y-125533161D01*
X177184819Y-142242457D02*
X176708628Y-142575790D01*
X177184819Y-142813885D02*
X176184819Y-142813885D01*
X176184819Y-142813885D02*
X176184819Y-142432933D01*
X176184819Y-142432933D02*
X176232438Y-142337695D01*
X176232438Y-142337695D02*
X176280057Y-142290076D01*
X176280057Y-142290076D02*
X176375295Y-142242457D01*
X176375295Y-142242457D02*
X176518152Y-142242457D01*
X176518152Y-142242457D02*
X176613390Y-142290076D01*
X176613390Y-142290076D02*
X176661009Y-142337695D01*
X176661009Y-142337695D02*
X176708628Y-142432933D01*
X176708628Y-142432933D02*
X176708628Y-142813885D01*
X176280057Y-141861504D02*
X176232438Y-141813885D01*
X176232438Y-141813885D02*
X176184819Y-141718647D01*
X176184819Y-141718647D02*
X176184819Y-141480552D01*
X176184819Y-141480552D02*
X176232438Y-141385314D01*
X176232438Y-141385314D02*
X176280057Y-141337695D01*
X176280057Y-141337695D02*
X176375295Y-141290076D01*
X176375295Y-141290076D02*
X176470533Y-141290076D01*
X176470533Y-141290076D02*
X176613390Y-141337695D01*
X176613390Y-141337695D02*
X177184819Y-141909123D01*
X177184819Y-141909123D02*
X177184819Y-141290076D01*
X177184819Y-140337695D02*
X177184819Y-140909123D01*
X177184819Y-140623409D02*
X176184819Y-140623409D01*
X176184819Y-140623409D02*
X176327676Y-140718647D01*
X176327676Y-140718647D02*
X176422914Y-140813885D01*
X176422914Y-140813885D02*
X176470533Y-140909123D01*
X78833333Y-102555619D02*
X78500000Y-102079428D01*
X78261905Y-102555619D02*
X78261905Y-101555619D01*
X78261905Y-101555619D02*
X78642857Y-101555619D01*
X78642857Y-101555619D02*
X78738095Y-101603238D01*
X78738095Y-101603238D02*
X78785714Y-101650857D01*
X78785714Y-101650857D02*
X78833333Y-101746095D01*
X78833333Y-101746095D02*
X78833333Y-101888952D01*
X78833333Y-101888952D02*
X78785714Y-101984190D01*
X78785714Y-101984190D02*
X78738095Y-102031809D01*
X78738095Y-102031809D02*
X78642857Y-102079428D01*
X78642857Y-102079428D02*
X78261905Y-102079428D01*
X79690476Y-101888952D02*
X79690476Y-102555619D01*
X79452381Y-101508000D02*
X79214286Y-102222285D01*
X79214286Y-102222285D02*
X79833333Y-102222285D01*
X173444819Y-142372457D02*
X172968628Y-142705790D01*
X173444819Y-142943885D02*
X172444819Y-142943885D01*
X172444819Y-142943885D02*
X172444819Y-142562933D01*
X172444819Y-142562933D02*
X172492438Y-142467695D01*
X172492438Y-142467695D02*
X172540057Y-142420076D01*
X172540057Y-142420076D02*
X172635295Y-142372457D01*
X172635295Y-142372457D02*
X172778152Y-142372457D01*
X172778152Y-142372457D02*
X172873390Y-142420076D01*
X172873390Y-142420076D02*
X172921009Y-142467695D01*
X172921009Y-142467695D02*
X172968628Y-142562933D01*
X172968628Y-142562933D02*
X172968628Y-142943885D01*
X173444819Y-141420076D02*
X173444819Y-141991504D01*
X173444819Y-141705790D02*
X172444819Y-141705790D01*
X172444819Y-141705790D02*
X172587676Y-141801028D01*
X172587676Y-141801028D02*
X172682914Y-141896266D01*
X172682914Y-141896266D02*
X172730533Y-141991504D01*
X173444819Y-140943885D02*
X173444819Y-140753409D01*
X173444819Y-140753409D02*
X173397200Y-140658171D01*
X173397200Y-140658171D02*
X173349580Y-140610552D01*
X173349580Y-140610552D02*
X173206723Y-140515314D01*
X173206723Y-140515314D02*
X173016247Y-140467695D01*
X173016247Y-140467695D02*
X172635295Y-140467695D01*
X172635295Y-140467695D02*
X172540057Y-140515314D01*
X172540057Y-140515314D02*
X172492438Y-140562933D01*
X172492438Y-140562933D02*
X172444819Y-140658171D01*
X172444819Y-140658171D02*
X172444819Y-140848647D01*
X172444819Y-140848647D02*
X172492438Y-140943885D01*
X172492438Y-140943885D02*
X172540057Y-140991504D01*
X172540057Y-140991504D02*
X172635295Y-141039123D01*
X172635295Y-141039123D02*
X172873390Y-141039123D01*
X172873390Y-141039123D02*
X172968628Y-140991504D01*
X172968628Y-140991504D02*
X173016247Y-140943885D01*
X173016247Y-140943885D02*
X173063866Y-140848647D01*
X173063866Y-140848647D02*
X173063866Y-140658171D01*
X173063866Y-140658171D02*
X173016247Y-140562933D01*
X173016247Y-140562933D02*
X172968628Y-140515314D01*
X172968628Y-140515314D02*
X172873390Y-140467695D01*
X78357142Y-114805619D02*
X78023809Y-114329428D01*
X77785714Y-114805619D02*
X77785714Y-113805619D01*
X77785714Y-113805619D02*
X78166666Y-113805619D01*
X78166666Y-113805619D02*
X78261904Y-113853238D01*
X78261904Y-113853238D02*
X78309523Y-113900857D01*
X78309523Y-113900857D02*
X78357142Y-113996095D01*
X78357142Y-113996095D02*
X78357142Y-114138952D01*
X78357142Y-114138952D02*
X78309523Y-114234190D01*
X78309523Y-114234190D02*
X78261904Y-114281809D01*
X78261904Y-114281809D02*
X78166666Y-114329428D01*
X78166666Y-114329428D02*
X77785714Y-114329428D01*
X79309523Y-114805619D02*
X78738095Y-114805619D01*
X79023809Y-114805619D02*
X79023809Y-113805619D01*
X79023809Y-113805619D02*
X78928571Y-113948476D01*
X78928571Y-113948476D02*
X78833333Y-114043714D01*
X78833333Y-114043714D02*
X78738095Y-114091333D01*
X79690476Y-113900857D02*
X79738095Y-113853238D01*
X79738095Y-113853238D02*
X79833333Y-113805619D01*
X79833333Y-113805619D02*
X80071428Y-113805619D01*
X80071428Y-113805619D02*
X80166666Y-113853238D01*
X80166666Y-113853238D02*
X80214285Y-113900857D01*
X80214285Y-113900857D02*
X80261904Y-113996095D01*
X80261904Y-113996095D02*
X80261904Y-114091333D01*
X80261904Y-114091333D02*
X80214285Y-114234190D01*
X80214285Y-114234190D02*
X79642857Y-114805619D01*
X79642857Y-114805619D02*
X80261904Y-114805619D01*
X177064819Y-99638094D02*
X176064819Y-99638094D01*
X176064819Y-99638094D02*
X176064819Y-99399999D01*
X176064819Y-99399999D02*
X176112438Y-99257142D01*
X176112438Y-99257142D02*
X176207676Y-99161904D01*
X176207676Y-99161904D02*
X176302914Y-99114285D01*
X176302914Y-99114285D02*
X176493390Y-99066666D01*
X176493390Y-99066666D02*
X176636247Y-99066666D01*
X176636247Y-99066666D02*
X176826723Y-99114285D01*
X176826723Y-99114285D02*
X176921961Y-99161904D01*
X176921961Y-99161904D02*
X177017200Y-99257142D01*
X177017200Y-99257142D02*
X177064819Y-99399999D01*
X177064819Y-99399999D02*
X177064819Y-99638094D01*
X177064819Y-98114285D02*
X177064819Y-98685713D01*
X177064819Y-98399999D02*
X176064819Y-98399999D01*
X176064819Y-98399999D02*
X176207676Y-98495237D01*
X176207676Y-98495237D02*
X176302914Y-98590475D01*
X176302914Y-98590475D02*
X176350533Y-98685713D01*
X127572189Y-95588057D02*
X127095998Y-95921390D01*
X127572189Y-96159485D02*
X126572189Y-96159485D01*
X126572189Y-96159485D02*
X126572189Y-95778533D01*
X126572189Y-95778533D02*
X126619808Y-95683295D01*
X126619808Y-95683295D02*
X126667427Y-95635676D01*
X126667427Y-95635676D02*
X126762665Y-95588057D01*
X126762665Y-95588057D02*
X126905522Y-95588057D01*
X126905522Y-95588057D02*
X127000760Y-95635676D01*
X127000760Y-95635676D02*
X127048379Y-95683295D01*
X127048379Y-95683295D02*
X127095998Y-95778533D01*
X127095998Y-95778533D02*
X127095998Y-96159485D01*
X127572189Y-94635676D02*
X127572189Y-95207104D01*
X127572189Y-94921390D02*
X126572189Y-94921390D01*
X126572189Y-94921390D02*
X126715046Y-95016628D01*
X126715046Y-95016628D02*
X126810284Y-95111866D01*
X126810284Y-95111866D02*
X126857903Y-95207104D01*
X126572189Y-94016628D02*
X126572189Y-93921390D01*
X126572189Y-93921390D02*
X126619808Y-93826152D01*
X126619808Y-93826152D02*
X126667427Y-93778533D01*
X126667427Y-93778533D02*
X126762665Y-93730914D01*
X126762665Y-93730914D02*
X126953141Y-93683295D01*
X126953141Y-93683295D02*
X127191236Y-93683295D01*
X127191236Y-93683295D02*
X127381712Y-93730914D01*
X127381712Y-93730914D02*
X127476950Y-93778533D01*
X127476950Y-93778533D02*
X127524570Y-93826152D01*
X127524570Y-93826152D02*
X127572189Y-93921390D01*
X127572189Y-93921390D02*
X127572189Y-94016628D01*
X127572189Y-94016628D02*
X127524570Y-94111866D01*
X127524570Y-94111866D02*
X127476950Y-94159485D01*
X127476950Y-94159485D02*
X127381712Y-94207104D01*
X127381712Y-94207104D02*
X127191236Y-94254723D01*
X127191236Y-94254723D02*
X126953141Y-94254723D01*
X126953141Y-94254723D02*
X126762665Y-94207104D01*
X126762665Y-94207104D02*
X126667427Y-94159485D01*
X126667427Y-94159485D02*
X126619808Y-94111866D01*
X126619808Y-94111866D02*
X126572189Y-94016628D01*
X92086133Y-72184419D02*
X91752800Y-71708228D01*
X91514705Y-72184419D02*
X91514705Y-71184419D01*
X91514705Y-71184419D02*
X91895657Y-71184419D01*
X91895657Y-71184419D02*
X91990895Y-71232038D01*
X91990895Y-71232038D02*
X92038514Y-71279657D01*
X92038514Y-71279657D02*
X92086133Y-71374895D01*
X92086133Y-71374895D02*
X92086133Y-71517752D01*
X92086133Y-71517752D02*
X92038514Y-71612990D01*
X92038514Y-71612990D02*
X91990895Y-71660609D01*
X91990895Y-71660609D02*
X91895657Y-71708228D01*
X91895657Y-71708228D02*
X91514705Y-71708228D01*
X92657562Y-71612990D02*
X92562324Y-71565371D01*
X92562324Y-71565371D02*
X92514705Y-71517752D01*
X92514705Y-71517752D02*
X92467086Y-71422514D01*
X92467086Y-71422514D02*
X92467086Y-71374895D01*
X92467086Y-71374895D02*
X92514705Y-71279657D01*
X92514705Y-71279657D02*
X92562324Y-71232038D01*
X92562324Y-71232038D02*
X92657562Y-71184419D01*
X92657562Y-71184419D02*
X92848038Y-71184419D01*
X92848038Y-71184419D02*
X92943276Y-71232038D01*
X92943276Y-71232038D02*
X92990895Y-71279657D01*
X92990895Y-71279657D02*
X93038514Y-71374895D01*
X93038514Y-71374895D02*
X93038514Y-71422514D01*
X93038514Y-71422514D02*
X92990895Y-71517752D01*
X92990895Y-71517752D02*
X92943276Y-71565371D01*
X92943276Y-71565371D02*
X92848038Y-71612990D01*
X92848038Y-71612990D02*
X92657562Y-71612990D01*
X92657562Y-71612990D02*
X92562324Y-71660609D01*
X92562324Y-71660609D02*
X92514705Y-71708228D01*
X92514705Y-71708228D02*
X92467086Y-71803466D01*
X92467086Y-71803466D02*
X92467086Y-71993942D01*
X92467086Y-71993942D02*
X92514705Y-72089180D01*
X92514705Y-72089180D02*
X92562324Y-72136800D01*
X92562324Y-72136800D02*
X92657562Y-72184419D01*
X92657562Y-72184419D02*
X92848038Y-72184419D01*
X92848038Y-72184419D02*
X92943276Y-72136800D01*
X92943276Y-72136800D02*
X92990895Y-72089180D01*
X92990895Y-72089180D02*
X93038514Y-71993942D01*
X93038514Y-71993942D02*
X93038514Y-71803466D01*
X93038514Y-71803466D02*
X92990895Y-71708228D01*
X92990895Y-71708228D02*
X92943276Y-71660609D01*
X92943276Y-71660609D02*
X92848038Y-71612990D01*
X190454819Y-83554523D02*
X191169104Y-83554523D01*
X191169104Y-83554523D02*
X191311961Y-83602142D01*
X191311961Y-83602142D02*
X191407200Y-83697380D01*
X191407200Y-83697380D02*
X191454819Y-83840237D01*
X191454819Y-83840237D02*
X191454819Y-83935475D01*
X190550057Y-83125951D02*
X190502438Y-83078332D01*
X190502438Y-83078332D02*
X190454819Y-82983094D01*
X190454819Y-82983094D02*
X190454819Y-82744999D01*
X190454819Y-82744999D02*
X190502438Y-82649761D01*
X190502438Y-82649761D02*
X190550057Y-82602142D01*
X190550057Y-82602142D02*
X190645295Y-82554523D01*
X190645295Y-82554523D02*
X190740533Y-82554523D01*
X190740533Y-82554523D02*
X190883390Y-82602142D01*
X190883390Y-82602142D02*
X191454819Y-83173570D01*
X191454819Y-83173570D02*
X191454819Y-82554523D01*
X190454819Y-81935475D02*
X190454819Y-81840237D01*
X190454819Y-81840237D02*
X190502438Y-81744999D01*
X190502438Y-81744999D02*
X190550057Y-81697380D01*
X190550057Y-81697380D02*
X190645295Y-81649761D01*
X190645295Y-81649761D02*
X190835771Y-81602142D01*
X190835771Y-81602142D02*
X191073866Y-81602142D01*
X191073866Y-81602142D02*
X191264342Y-81649761D01*
X191264342Y-81649761D02*
X191359580Y-81697380D01*
X191359580Y-81697380D02*
X191407200Y-81744999D01*
X191407200Y-81744999D02*
X191454819Y-81840237D01*
X191454819Y-81840237D02*
X191454819Y-81935475D01*
X191454819Y-81935475D02*
X191407200Y-82030713D01*
X191407200Y-82030713D02*
X191359580Y-82078332D01*
X191359580Y-82078332D02*
X191264342Y-82125951D01*
X191264342Y-82125951D02*
X191073866Y-82173570D01*
X191073866Y-82173570D02*
X190835771Y-82173570D01*
X190835771Y-82173570D02*
X190645295Y-82125951D01*
X190645295Y-82125951D02*
X190550057Y-82078332D01*
X190550057Y-82078332D02*
X190502438Y-82030713D01*
X190502438Y-82030713D02*
X190454819Y-81935475D01*
X169961905Y-67454819D02*
X169961905Y-66454819D01*
X170533333Y-67454819D02*
X170104762Y-66883390D01*
X170533333Y-66454819D02*
X169961905Y-67026247D01*
X171438095Y-66454819D02*
X170961905Y-66454819D01*
X170961905Y-66454819D02*
X170914286Y-66931009D01*
X170914286Y-66931009D02*
X170961905Y-66883390D01*
X170961905Y-66883390D02*
X171057143Y-66835771D01*
X171057143Y-66835771D02*
X171295238Y-66835771D01*
X171295238Y-66835771D02*
X171390476Y-66883390D01*
X171390476Y-66883390D02*
X171438095Y-66931009D01*
X171438095Y-66931009D02*
X171485714Y-67026247D01*
X171485714Y-67026247D02*
X171485714Y-67264342D01*
X171485714Y-67264342D02*
X171438095Y-67359580D01*
X171438095Y-67359580D02*
X171390476Y-67407200D01*
X171390476Y-67407200D02*
X171295238Y-67454819D01*
X171295238Y-67454819D02*
X171057143Y-67454819D01*
X171057143Y-67454819D02*
X170961905Y-67407200D01*
X170961905Y-67407200D02*
X170914286Y-67359580D01*
X185575119Y-123978523D02*
X186289404Y-123978523D01*
X186289404Y-123978523D02*
X186432261Y-124026142D01*
X186432261Y-124026142D02*
X186527500Y-124121380D01*
X186527500Y-124121380D02*
X186575119Y-124264237D01*
X186575119Y-124264237D02*
X186575119Y-124359475D01*
X186575119Y-122978523D02*
X186575119Y-123549951D01*
X186575119Y-123264237D02*
X185575119Y-123264237D01*
X185575119Y-123264237D02*
X185717976Y-123359475D01*
X185717976Y-123359475D02*
X185813214Y-123454713D01*
X185813214Y-123454713D02*
X185860833Y-123549951D01*
X185908452Y-122121380D02*
X186575119Y-122121380D01*
X185527500Y-122359475D02*
X186241785Y-122597570D01*
X186241785Y-122597570D02*
X186241785Y-121978523D01*
X93890380Y-63559866D02*
X93938000Y-63607485D01*
X93938000Y-63607485D02*
X93985619Y-63750342D01*
X93985619Y-63750342D02*
X93985619Y-63845580D01*
X93985619Y-63845580D02*
X93938000Y-63988437D01*
X93938000Y-63988437D02*
X93842761Y-64083675D01*
X93842761Y-64083675D02*
X93747523Y-64131294D01*
X93747523Y-64131294D02*
X93557047Y-64178913D01*
X93557047Y-64178913D02*
X93414190Y-64178913D01*
X93414190Y-64178913D02*
X93223714Y-64131294D01*
X93223714Y-64131294D02*
X93128476Y-64083675D01*
X93128476Y-64083675D02*
X93033238Y-63988437D01*
X93033238Y-63988437D02*
X92985619Y-63845580D01*
X92985619Y-63845580D02*
X92985619Y-63750342D01*
X92985619Y-63750342D02*
X93033238Y-63607485D01*
X93033238Y-63607485D02*
X93080857Y-63559866D01*
X93080857Y-63178913D02*
X93033238Y-63131294D01*
X93033238Y-63131294D02*
X92985619Y-63036056D01*
X92985619Y-63036056D02*
X92985619Y-62797961D01*
X92985619Y-62797961D02*
X93033238Y-62702723D01*
X93033238Y-62702723D02*
X93080857Y-62655104D01*
X93080857Y-62655104D02*
X93176095Y-62607485D01*
X93176095Y-62607485D02*
X93271333Y-62607485D01*
X93271333Y-62607485D02*
X93414190Y-62655104D01*
X93414190Y-62655104D02*
X93985619Y-63226532D01*
X93985619Y-63226532D02*
X93985619Y-62607485D01*
X115130538Y-95118006D02*
X114654347Y-95451339D01*
X115130538Y-95689434D02*
X114130538Y-95689434D01*
X114130538Y-95689434D02*
X114130538Y-95308482D01*
X114130538Y-95308482D02*
X114178157Y-95213244D01*
X114178157Y-95213244D02*
X114225776Y-95165625D01*
X114225776Y-95165625D02*
X114321014Y-95118006D01*
X114321014Y-95118006D02*
X114463871Y-95118006D01*
X114463871Y-95118006D02*
X114559109Y-95165625D01*
X114559109Y-95165625D02*
X114606728Y-95213244D01*
X114606728Y-95213244D02*
X114654347Y-95308482D01*
X114654347Y-95308482D02*
X114654347Y-95689434D01*
X114130538Y-94784672D02*
X114130538Y-94118006D01*
X114130538Y-94118006D02*
X115130538Y-94546577D01*
X133601619Y-95588057D02*
X133125428Y-95921390D01*
X133601619Y-96159485D02*
X132601619Y-96159485D01*
X132601619Y-96159485D02*
X132601619Y-95778533D01*
X132601619Y-95778533D02*
X132649238Y-95683295D01*
X132649238Y-95683295D02*
X132696857Y-95635676D01*
X132696857Y-95635676D02*
X132792095Y-95588057D01*
X132792095Y-95588057D02*
X132934952Y-95588057D01*
X132934952Y-95588057D02*
X133030190Y-95635676D01*
X133030190Y-95635676D02*
X133077809Y-95683295D01*
X133077809Y-95683295D02*
X133125428Y-95778533D01*
X133125428Y-95778533D02*
X133125428Y-96159485D01*
X132696857Y-95207104D02*
X132649238Y-95159485D01*
X132649238Y-95159485D02*
X132601619Y-95064247D01*
X132601619Y-95064247D02*
X132601619Y-94826152D01*
X132601619Y-94826152D02*
X132649238Y-94730914D01*
X132649238Y-94730914D02*
X132696857Y-94683295D01*
X132696857Y-94683295D02*
X132792095Y-94635676D01*
X132792095Y-94635676D02*
X132887333Y-94635676D01*
X132887333Y-94635676D02*
X133030190Y-94683295D01*
X133030190Y-94683295D02*
X133601619Y-95254723D01*
X133601619Y-95254723D02*
X133601619Y-94635676D01*
X132601619Y-94016628D02*
X132601619Y-93921390D01*
X132601619Y-93921390D02*
X132649238Y-93826152D01*
X132649238Y-93826152D02*
X132696857Y-93778533D01*
X132696857Y-93778533D02*
X132792095Y-93730914D01*
X132792095Y-93730914D02*
X132982571Y-93683295D01*
X132982571Y-93683295D02*
X133220666Y-93683295D01*
X133220666Y-93683295D02*
X133411142Y-93730914D01*
X133411142Y-93730914D02*
X133506380Y-93778533D01*
X133506380Y-93778533D02*
X133554000Y-93826152D01*
X133554000Y-93826152D02*
X133601619Y-93921390D01*
X133601619Y-93921390D02*
X133601619Y-94016628D01*
X133601619Y-94016628D02*
X133554000Y-94111866D01*
X133554000Y-94111866D02*
X133506380Y-94159485D01*
X133506380Y-94159485D02*
X133411142Y-94207104D01*
X133411142Y-94207104D02*
X133220666Y-94254723D01*
X133220666Y-94254723D02*
X132982571Y-94254723D01*
X132982571Y-94254723D02*
X132792095Y-94207104D01*
X132792095Y-94207104D02*
X132696857Y-94159485D01*
X132696857Y-94159485D02*
X132649238Y-94111866D01*
X132649238Y-94111866D02*
X132601619Y-94016628D01*
X183454819Y-64714285D02*
X182454819Y-64714285D01*
X182454819Y-64714285D02*
X182454819Y-64476190D01*
X182454819Y-64476190D02*
X182502438Y-64333333D01*
X182502438Y-64333333D02*
X182597676Y-64238095D01*
X182597676Y-64238095D02*
X182692914Y-64190476D01*
X182692914Y-64190476D02*
X182883390Y-64142857D01*
X182883390Y-64142857D02*
X183026247Y-64142857D01*
X183026247Y-64142857D02*
X183216723Y-64190476D01*
X183216723Y-64190476D02*
X183311961Y-64238095D01*
X183311961Y-64238095D02*
X183407200Y-64333333D01*
X183407200Y-64333333D02*
X183454819Y-64476190D01*
X183454819Y-64476190D02*
X183454819Y-64714285D01*
X183454819Y-63190476D02*
X183454819Y-63761904D01*
X183454819Y-63476190D02*
X182454819Y-63476190D01*
X182454819Y-63476190D02*
X182597676Y-63571428D01*
X182597676Y-63571428D02*
X182692914Y-63666666D01*
X182692914Y-63666666D02*
X182740533Y-63761904D01*
X182788152Y-62333333D02*
X183454819Y-62333333D01*
X182407200Y-62571428D02*
X183121485Y-62809523D01*
X183121485Y-62809523D02*
X183121485Y-62190476D01*
X69499722Y-117144133D02*
X70214007Y-117144133D01*
X70214007Y-117144133D02*
X70356864Y-117191752D01*
X70356864Y-117191752D02*
X70452103Y-117286990D01*
X70452103Y-117286990D02*
X70499722Y-117429847D01*
X70499722Y-117429847D02*
X70499722Y-117525085D01*
X69928293Y-116525085D02*
X69880674Y-116620323D01*
X69880674Y-116620323D02*
X69833055Y-116667942D01*
X69833055Y-116667942D02*
X69737817Y-116715561D01*
X69737817Y-116715561D02*
X69690198Y-116715561D01*
X69690198Y-116715561D02*
X69594960Y-116667942D01*
X69594960Y-116667942D02*
X69547341Y-116620323D01*
X69547341Y-116620323D02*
X69499722Y-116525085D01*
X69499722Y-116525085D02*
X69499722Y-116334609D01*
X69499722Y-116334609D02*
X69547341Y-116239371D01*
X69547341Y-116239371D02*
X69594960Y-116191752D01*
X69594960Y-116191752D02*
X69690198Y-116144133D01*
X69690198Y-116144133D02*
X69737817Y-116144133D01*
X69737817Y-116144133D02*
X69833055Y-116191752D01*
X69833055Y-116191752D02*
X69880674Y-116239371D01*
X69880674Y-116239371D02*
X69928293Y-116334609D01*
X69928293Y-116334609D02*
X69928293Y-116525085D01*
X69928293Y-116525085D02*
X69975912Y-116620323D01*
X69975912Y-116620323D02*
X70023531Y-116667942D01*
X70023531Y-116667942D02*
X70118769Y-116715561D01*
X70118769Y-116715561D02*
X70309245Y-116715561D01*
X70309245Y-116715561D02*
X70404483Y-116667942D01*
X70404483Y-116667942D02*
X70452103Y-116620323D01*
X70452103Y-116620323D02*
X70499722Y-116525085D01*
X70499722Y-116525085D02*
X70499722Y-116334609D01*
X70499722Y-116334609D02*
X70452103Y-116239371D01*
X70452103Y-116239371D02*
X70404483Y-116191752D01*
X70404483Y-116191752D02*
X70309245Y-116144133D01*
X70309245Y-116144133D02*
X70118769Y-116144133D01*
X70118769Y-116144133D02*
X70023531Y-116191752D01*
X70023531Y-116191752D02*
X69975912Y-116239371D01*
X69975912Y-116239371D02*
X69928293Y-116334609D01*
X118538153Y-49154819D02*
X118538153Y-49869104D01*
X118538153Y-49869104D02*
X118490534Y-50011961D01*
X118490534Y-50011961D02*
X118395296Y-50107200D01*
X118395296Y-50107200D02*
X118252439Y-50154819D01*
X118252439Y-50154819D02*
X118157201Y-50154819D01*
X119538153Y-50154819D02*
X118966725Y-50154819D01*
X119252439Y-50154819D02*
X119252439Y-49154819D01*
X119252439Y-49154819D02*
X119157201Y-49297676D01*
X119157201Y-49297676D02*
X119061963Y-49392914D01*
X119061963Y-49392914D02*
X118966725Y-49440533D01*
X119919106Y-49250057D02*
X119966725Y-49202438D01*
X119966725Y-49202438D02*
X120061963Y-49154819D01*
X120061963Y-49154819D02*
X120300058Y-49154819D01*
X120300058Y-49154819D02*
X120395296Y-49202438D01*
X120395296Y-49202438D02*
X120442915Y-49250057D01*
X120442915Y-49250057D02*
X120490534Y-49345295D01*
X120490534Y-49345295D02*
X120490534Y-49440533D01*
X120490534Y-49440533D02*
X120442915Y-49583390D01*
X120442915Y-49583390D02*
X119871487Y-50154819D01*
X119871487Y-50154819D02*
X120490534Y-50154819D01*
X69454819Y-105434133D02*
X70169104Y-105434133D01*
X70169104Y-105434133D02*
X70311961Y-105481752D01*
X70311961Y-105481752D02*
X70407200Y-105576990D01*
X70407200Y-105576990D02*
X70454819Y-105719847D01*
X70454819Y-105719847D02*
X70454819Y-105815085D01*
X69454819Y-105053180D02*
X69454819Y-104386514D01*
X69454819Y-104386514D02*
X70454819Y-104815085D01*
X96161905Y-55064819D02*
X96161905Y-54064819D01*
X96161905Y-54064819D02*
X96400000Y-54064819D01*
X96400000Y-54064819D02*
X96542857Y-54112438D01*
X96542857Y-54112438D02*
X96638095Y-54207676D01*
X96638095Y-54207676D02*
X96685714Y-54302914D01*
X96685714Y-54302914D02*
X96733333Y-54493390D01*
X96733333Y-54493390D02*
X96733333Y-54636247D01*
X96733333Y-54636247D02*
X96685714Y-54826723D01*
X96685714Y-54826723D02*
X96638095Y-54921961D01*
X96638095Y-54921961D02*
X96542857Y-55017200D01*
X96542857Y-55017200D02*
X96400000Y-55064819D01*
X96400000Y-55064819D02*
X96161905Y-55064819D01*
X97209524Y-55064819D02*
X97400000Y-55064819D01*
X97400000Y-55064819D02*
X97495238Y-55017200D01*
X97495238Y-55017200D02*
X97542857Y-54969580D01*
X97542857Y-54969580D02*
X97638095Y-54826723D01*
X97638095Y-54826723D02*
X97685714Y-54636247D01*
X97685714Y-54636247D02*
X97685714Y-54255295D01*
X97685714Y-54255295D02*
X97638095Y-54160057D01*
X97638095Y-54160057D02*
X97590476Y-54112438D01*
X97590476Y-54112438D02*
X97495238Y-54064819D01*
X97495238Y-54064819D02*
X97304762Y-54064819D01*
X97304762Y-54064819D02*
X97209524Y-54112438D01*
X97209524Y-54112438D02*
X97161905Y-54160057D01*
X97161905Y-54160057D02*
X97114286Y-54255295D01*
X97114286Y-54255295D02*
X97114286Y-54493390D01*
X97114286Y-54493390D02*
X97161905Y-54588628D01*
X97161905Y-54588628D02*
X97209524Y-54636247D01*
X97209524Y-54636247D02*
X97304762Y-54683866D01*
X97304762Y-54683866D02*
X97495238Y-54683866D01*
X97495238Y-54683866D02*
X97590476Y-54636247D01*
X97590476Y-54636247D02*
X97638095Y-54588628D01*
X97638095Y-54588628D02*
X97685714Y-54493390D01*
X178031009Y-123333333D02*
X178031009Y-123666666D01*
X178554819Y-123666666D02*
X177554819Y-123666666D01*
X177554819Y-123666666D02*
X177554819Y-123190476D01*
X178554819Y-122285714D02*
X178554819Y-122857142D01*
X178554819Y-122571428D02*
X177554819Y-122571428D01*
X177554819Y-122571428D02*
X177697676Y-122666666D01*
X177697676Y-122666666D02*
X177792914Y-122761904D01*
X177792914Y-122761904D02*
X177840533Y-122857142D01*
X177898220Y-84129580D02*
X177850601Y-84177200D01*
X177850601Y-84177200D02*
X177707744Y-84224819D01*
X177707744Y-84224819D02*
X177612506Y-84224819D01*
X177612506Y-84224819D02*
X177469649Y-84177200D01*
X177469649Y-84177200D02*
X177374411Y-84081961D01*
X177374411Y-84081961D02*
X177326792Y-83986723D01*
X177326792Y-83986723D02*
X177279173Y-83796247D01*
X177279173Y-83796247D02*
X177279173Y-83653390D01*
X177279173Y-83653390D02*
X177326792Y-83462914D01*
X177326792Y-83462914D02*
X177374411Y-83367676D01*
X177374411Y-83367676D02*
X177469649Y-83272438D01*
X177469649Y-83272438D02*
X177612506Y-83224819D01*
X177612506Y-83224819D02*
X177707744Y-83224819D01*
X177707744Y-83224819D02*
X177850601Y-83272438D01*
X177850601Y-83272438D02*
X177898220Y-83320057D01*
X178374411Y-84224819D02*
X178564887Y-84224819D01*
X178564887Y-84224819D02*
X178660125Y-84177200D01*
X178660125Y-84177200D02*
X178707744Y-84129580D01*
X178707744Y-84129580D02*
X178802982Y-83986723D01*
X178802982Y-83986723D02*
X178850601Y-83796247D01*
X178850601Y-83796247D02*
X178850601Y-83415295D01*
X178850601Y-83415295D02*
X178802982Y-83320057D01*
X178802982Y-83320057D02*
X178755363Y-83272438D01*
X178755363Y-83272438D02*
X178660125Y-83224819D01*
X178660125Y-83224819D02*
X178469649Y-83224819D01*
X178469649Y-83224819D02*
X178374411Y-83272438D01*
X178374411Y-83272438D02*
X178326792Y-83320057D01*
X178326792Y-83320057D02*
X178279173Y-83415295D01*
X178279173Y-83415295D02*
X178279173Y-83653390D01*
X178279173Y-83653390D02*
X178326792Y-83748628D01*
X178326792Y-83748628D02*
X178374411Y-83796247D01*
X178374411Y-83796247D02*
X178469649Y-83843866D01*
X178469649Y-83843866D02*
X178660125Y-83843866D01*
X178660125Y-83843866D02*
X178755363Y-83796247D01*
X178755363Y-83796247D02*
X178802982Y-83748628D01*
X178802982Y-83748628D02*
X178850601Y-83653390D01*
X156083333Y-109985980D02*
X156035714Y-110033600D01*
X156035714Y-110033600D02*
X155892857Y-110081219D01*
X155892857Y-110081219D02*
X155797619Y-110081219D01*
X155797619Y-110081219D02*
X155654762Y-110033600D01*
X155654762Y-110033600D02*
X155559524Y-109938361D01*
X155559524Y-109938361D02*
X155511905Y-109843123D01*
X155511905Y-109843123D02*
X155464286Y-109652647D01*
X155464286Y-109652647D02*
X155464286Y-109509790D01*
X155464286Y-109509790D02*
X155511905Y-109319314D01*
X155511905Y-109319314D02*
X155559524Y-109224076D01*
X155559524Y-109224076D02*
X155654762Y-109128838D01*
X155654762Y-109128838D02*
X155797619Y-109081219D01*
X155797619Y-109081219D02*
X155892857Y-109081219D01*
X155892857Y-109081219D02*
X156035714Y-109128838D01*
X156035714Y-109128838D02*
X156083333Y-109176457D01*
X156940476Y-109414552D02*
X156940476Y-110081219D01*
X156702381Y-109033600D02*
X156464286Y-109747885D01*
X156464286Y-109747885D02*
X157083333Y-109747885D01*
X90260267Y-143089600D02*
X90403124Y-143137219D01*
X90403124Y-143137219D02*
X90641219Y-143137219D01*
X90641219Y-143137219D02*
X90736457Y-143089600D01*
X90736457Y-143089600D02*
X90784076Y-143041980D01*
X90784076Y-143041980D02*
X90831695Y-142946742D01*
X90831695Y-142946742D02*
X90831695Y-142851504D01*
X90831695Y-142851504D02*
X90784076Y-142756266D01*
X90784076Y-142756266D02*
X90736457Y-142708647D01*
X90736457Y-142708647D02*
X90641219Y-142661028D01*
X90641219Y-142661028D02*
X90450743Y-142613409D01*
X90450743Y-142613409D02*
X90355505Y-142565790D01*
X90355505Y-142565790D02*
X90307886Y-142518171D01*
X90307886Y-142518171D02*
X90260267Y-142422933D01*
X90260267Y-142422933D02*
X90260267Y-142327695D01*
X90260267Y-142327695D02*
X90307886Y-142232457D01*
X90307886Y-142232457D02*
X90355505Y-142184838D01*
X90355505Y-142184838D02*
X90450743Y-142137219D01*
X90450743Y-142137219D02*
X90688838Y-142137219D01*
X90688838Y-142137219D02*
X90831695Y-142184838D01*
X91165029Y-142137219D02*
X91403124Y-143137219D01*
X91403124Y-143137219D02*
X91593600Y-142422933D01*
X91593600Y-142422933D02*
X91784076Y-143137219D01*
X91784076Y-143137219D02*
X92022172Y-142137219D01*
X92926933Y-143137219D02*
X92355505Y-143137219D01*
X92641219Y-143137219D02*
X92641219Y-142137219D01*
X92641219Y-142137219D02*
X92545981Y-142280076D01*
X92545981Y-142280076D02*
X92450743Y-142375314D01*
X92450743Y-142375314D02*
X92355505Y-142422933D01*
X108133333Y-70259580D02*
X108085714Y-70307200D01*
X108085714Y-70307200D02*
X107942857Y-70354819D01*
X107942857Y-70354819D02*
X107847619Y-70354819D01*
X107847619Y-70354819D02*
X107704762Y-70307200D01*
X107704762Y-70307200D02*
X107609524Y-70211961D01*
X107609524Y-70211961D02*
X107561905Y-70116723D01*
X107561905Y-70116723D02*
X107514286Y-69926247D01*
X107514286Y-69926247D02*
X107514286Y-69783390D01*
X107514286Y-69783390D02*
X107561905Y-69592914D01*
X107561905Y-69592914D02*
X107609524Y-69497676D01*
X107609524Y-69497676D02*
X107704762Y-69402438D01*
X107704762Y-69402438D02*
X107847619Y-69354819D01*
X107847619Y-69354819D02*
X107942857Y-69354819D01*
X107942857Y-69354819D02*
X108085714Y-69402438D01*
X108085714Y-69402438D02*
X108133333Y-69450057D01*
X108990476Y-69354819D02*
X108800000Y-69354819D01*
X108800000Y-69354819D02*
X108704762Y-69402438D01*
X108704762Y-69402438D02*
X108657143Y-69450057D01*
X108657143Y-69450057D02*
X108561905Y-69592914D01*
X108561905Y-69592914D02*
X108514286Y-69783390D01*
X108514286Y-69783390D02*
X108514286Y-70164342D01*
X108514286Y-70164342D02*
X108561905Y-70259580D01*
X108561905Y-70259580D02*
X108609524Y-70307200D01*
X108609524Y-70307200D02*
X108704762Y-70354819D01*
X108704762Y-70354819D02*
X108895238Y-70354819D01*
X108895238Y-70354819D02*
X108990476Y-70307200D01*
X108990476Y-70307200D02*
X109038095Y-70259580D01*
X109038095Y-70259580D02*
X109085714Y-70164342D01*
X109085714Y-70164342D02*
X109085714Y-69926247D01*
X109085714Y-69926247D02*
X109038095Y-69831009D01*
X109038095Y-69831009D02*
X108990476Y-69783390D01*
X108990476Y-69783390D02*
X108895238Y-69735771D01*
X108895238Y-69735771D02*
X108704762Y-69735771D01*
X108704762Y-69735771D02*
X108609524Y-69783390D01*
X108609524Y-69783390D02*
X108561905Y-69831009D01*
X108561905Y-69831009D02*
X108514286Y-69926247D01*
X92354819Y-113633333D02*
X93069104Y-113633333D01*
X93069104Y-113633333D02*
X93211961Y-113680952D01*
X93211961Y-113680952D02*
X93307200Y-113776190D01*
X93307200Y-113776190D02*
X93354819Y-113919047D01*
X93354819Y-113919047D02*
X93354819Y-114014285D01*
X92354819Y-113252380D02*
X92354819Y-112633333D01*
X92354819Y-112633333D02*
X92735771Y-112966666D01*
X92735771Y-112966666D02*
X92735771Y-112823809D01*
X92735771Y-112823809D02*
X92783390Y-112728571D01*
X92783390Y-112728571D02*
X92831009Y-112680952D01*
X92831009Y-112680952D02*
X92926247Y-112633333D01*
X92926247Y-112633333D02*
X93164342Y-112633333D01*
X93164342Y-112633333D02*
X93259580Y-112680952D01*
X93259580Y-112680952D02*
X93307200Y-112728571D01*
X93307200Y-112728571D02*
X93354819Y-112823809D01*
X93354819Y-112823809D02*
X93354819Y-113109523D01*
X93354819Y-113109523D02*
X93307200Y-113204761D01*
X93307200Y-113204761D02*
X93259580Y-113252380D01*
X91954819Y-90438094D02*
X90954819Y-90438094D01*
X90954819Y-90438094D02*
X90954819Y-90199999D01*
X90954819Y-90199999D02*
X91002438Y-90057142D01*
X91002438Y-90057142D02*
X91097676Y-89961904D01*
X91097676Y-89961904D02*
X91192914Y-89914285D01*
X91192914Y-89914285D02*
X91383390Y-89866666D01*
X91383390Y-89866666D02*
X91526247Y-89866666D01*
X91526247Y-89866666D02*
X91716723Y-89914285D01*
X91716723Y-89914285D02*
X91811961Y-89961904D01*
X91811961Y-89961904D02*
X91907200Y-90057142D01*
X91907200Y-90057142D02*
X91954819Y-90199999D01*
X91954819Y-90199999D02*
X91954819Y-90438094D01*
X91050057Y-89485713D02*
X91002438Y-89438094D01*
X91002438Y-89438094D02*
X90954819Y-89342856D01*
X90954819Y-89342856D02*
X90954819Y-89104761D01*
X90954819Y-89104761D02*
X91002438Y-89009523D01*
X91002438Y-89009523D02*
X91050057Y-88961904D01*
X91050057Y-88961904D02*
X91145295Y-88914285D01*
X91145295Y-88914285D02*
X91240533Y-88914285D01*
X91240533Y-88914285D02*
X91383390Y-88961904D01*
X91383390Y-88961904D02*
X91954819Y-89533332D01*
X91954819Y-89533332D02*
X91954819Y-88914285D01*
X95710476Y-48854819D02*
X95710476Y-49569104D01*
X95710476Y-49569104D02*
X95662857Y-49711961D01*
X95662857Y-49711961D02*
X95567619Y-49807200D01*
X95567619Y-49807200D02*
X95424762Y-49854819D01*
X95424762Y-49854819D02*
X95329524Y-49854819D01*
X96710476Y-49854819D02*
X96139048Y-49854819D01*
X96424762Y-49854819D02*
X96424762Y-48854819D01*
X96424762Y-48854819D02*
X96329524Y-48997676D01*
X96329524Y-48997676D02*
X96234286Y-49092914D01*
X96234286Y-49092914D02*
X96139048Y-49140533D01*
X97662857Y-49854819D02*
X97091429Y-49854819D01*
X97377143Y-49854819D02*
X97377143Y-48854819D01*
X97377143Y-48854819D02*
X97281905Y-48997676D01*
X97281905Y-48997676D02*
X97186667Y-49092914D01*
X97186667Y-49092914D02*
X97091429Y-49140533D01*
X131950057Y-73602838D02*
X131902438Y-73698076D01*
X131902438Y-73698076D02*
X131807200Y-73793314D01*
X131807200Y-73793314D02*
X131664342Y-73936171D01*
X131664342Y-73936171D02*
X131616723Y-74031409D01*
X131616723Y-74031409D02*
X131616723Y-74126647D01*
X131854819Y-74079028D02*
X131807200Y-74174266D01*
X131807200Y-74174266D02*
X131711961Y-74269504D01*
X131711961Y-74269504D02*
X131521485Y-74317123D01*
X131521485Y-74317123D02*
X131188152Y-74317123D01*
X131188152Y-74317123D02*
X130997676Y-74269504D01*
X130997676Y-74269504D02*
X130902438Y-74174266D01*
X130902438Y-74174266D02*
X130854819Y-74079028D01*
X130854819Y-74079028D02*
X130854819Y-73888552D01*
X130854819Y-73888552D02*
X130902438Y-73793314D01*
X130902438Y-73793314D02*
X130997676Y-73698076D01*
X130997676Y-73698076D02*
X131188152Y-73650457D01*
X131188152Y-73650457D02*
X131521485Y-73650457D01*
X131521485Y-73650457D02*
X131711961Y-73698076D01*
X131711961Y-73698076D02*
X131807200Y-73793314D01*
X131807200Y-73793314D02*
X131854819Y-73888552D01*
X131854819Y-73888552D02*
X131854819Y-74079028D01*
X130854819Y-73317123D02*
X130854819Y-72698076D01*
X130854819Y-72698076D02*
X131235771Y-73031409D01*
X131235771Y-73031409D02*
X131235771Y-72888552D01*
X131235771Y-72888552D02*
X131283390Y-72793314D01*
X131283390Y-72793314D02*
X131331009Y-72745695D01*
X131331009Y-72745695D02*
X131426247Y-72698076D01*
X131426247Y-72698076D02*
X131664342Y-72698076D01*
X131664342Y-72698076D02*
X131759580Y-72745695D01*
X131759580Y-72745695D02*
X131807200Y-72793314D01*
X131807200Y-72793314D02*
X131854819Y-72888552D01*
X131854819Y-72888552D02*
X131854819Y-73174266D01*
X131854819Y-73174266D02*
X131807200Y-73269504D01*
X131807200Y-73269504D02*
X131759580Y-73317123D01*
X156996419Y-140714171D02*
X156520228Y-141047504D01*
X156996419Y-141285599D02*
X155996419Y-141285599D01*
X155996419Y-141285599D02*
X155996419Y-140904647D01*
X155996419Y-140904647D02*
X156044038Y-140809409D01*
X156044038Y-140809409D02*
X156091657Y-140761790D01*
X156091657Y-140761790D02*
X156186895Y-140714171D01*
X156186895Y-140714171D02*
X156329752Y-140714171D01*
X156329752Y-140714171D02*
X156424990Y-140761790D01*
X156424990Y-140761790D02*
X156472609Y-140809409D01*
X156472609Y-140809409D02*
X156520228Y-140904647D01*
X156520228Y-140904647D02*
X156520228Y-141285599D01*
X156948800Y-139904647D02*
X156996419Y-139999885D01*
X156996419Y-139999885D02*
X156996419Y-140190361D01*
X156996419Y-140190361D02*
X156948800Y-140285599D01*
X156948800Y-140285599D02*
X156853561Y-140333218D01*
X156853561Y-140333218D02*
X156472609Y-140333218D01*
X156472609Y-140333218D02*
X156377371Y-140285599D01*
X156377371Y-140285599D02*
X156329752Y-140190361D01*
X156329752Y-140190361D02*
X156329752Y-139999885D01*
X156329752Y-139999885D02*
X156377371Y-139904647D01*
X156377371Y-139904647D02*
X156472609Y-139857028D01*
X156472609Y-139857028D02*
X156567847Y-139857028D01*
X156567847Y-139857028D02*
X156663085Y-140333218D01*
X156948800Y-139476075D02*
X156996419Y-139380837D01*
X156996419Y-139380837D02*
X156996419Y-139190361D01*
X156996419Y-139190361D02*
X156948800Y-139095123D01*
X156948800Y-139095123D02*
X156853561Y-139047504D01*
X156853561Y-139047504D02*
X156805942Y-139047504D01*
X156805942Y-139047504D02*
X156710704Y-139095123D01*
X156710704Y-139095123D02*
X156663085Y-139190361D01*
X156663085Y-139190361D02*
X156663085Y-139333218D01*
X156663085Y-139333218D02*
X156615466Y-139428456D01*
X156615466Y-139428456D02*
X156520228Y-139476075D01*
X156520228Y-139476075D02*
X156472609Y-139476075D01*
X156472609Y-139476075D02*
X156377371Y-139428456D01*
X156377371Y-139428456D02*
X156329752Y-139333218D01*
X156329752Y-139333218D02*
X156329752Y-139190361D01*
X156329752Y-139190361D02*
X156377371Y-139095123D01*
X156329752Y-138618932D02*
X157329752Y-138618932D01*
X156377371Y-138618932D02*
X156329752Y-138523694D01*
X156329752Y-138523694D02*
X156329752Y-138333218D01*
X156329752Y-138333218D02*
X156377371Y-138237980D01*
X156377371Y-138237980D02*
X156424990Y-138190361D01*
X156424990Y-138190361D02*
X156520228Y-138142742D01*
X156520228Y-138142742D02*
X156805942Y-138142742D01*
X156805942Y-138142742D02*
X156901180Y-138190361D01*
X156901180Y-138190361D02*
X156948800Y-138237980D01*
X156948800Y-138237980D02*
X156996419Y-138333218D01*
X156996419Y-138333218D02*
X156996419Y-138523694D01*
X156996419Y-138523694D02*
X156948800Y-138618932D01*
X155996419Y-137809408D02*
X155996419Y-137190361D01*
X155996419Y-137190361D02*
X156377371Y-137523694D01*
X156377371Y-137523694D02*
X156377371Y-137380837D01*
X156377371Y-137380837D02*
X156424990Y-137285599D01*
X156424990Y-137285599D02*
X156472609Y-137237980D01*
X156472609Y-137237980D02*
X156567847Y-137190361D01*
X156567847Y-137190361D02*
X156805942Y-137190361D01*
X156805942Y-137190361D02*
X156901180Y-137237980D01*
X156901180Y-137237980D02*
X156948800Y-137285599D01*
X156948800Y-137285599D02*
X156996419Y-137380837D01*
X156996419Y-137380837D02*
X156996419Y-137666551D01*
X156996419Y-137666551D02*
X156948800Y-137761789D01*
X156948800Y-137761789D02*
X156901180Y-137809408D01*
X156091657Y-136809408D02*
X156044038Y-136761789D01*
X156044038Y-136761789D02*
X155996419Y-136666551D01*
X155996419Y-136666551D02*
X155996419Y-136428456D01*
X155996419Y-136428456D02*
X156044038Y-136333218D01*
X156044038Y-136333218D02*
X156091657Y-136285599D01*
X156091657Y-136285599D02*
X156186895Y-136237980D01*
X156186895Y-136237980D02*
X156282133Y-136237980D01*
X156282133Y-136237980D02*
X156424990Y-136285599D01*
X156424990Y-136285599D02*
X156996419Y-136857027D01*
X156996419Y-136857027D02*
X156996419Y-136237980D01*
X108854819Y-49414285D02*
X107854819Y-49414285D01*
X107854819Y-49414285D02*
X107854819Y-49176190D01*
X107854819Y-49176190D02*
X107902438Y-49033333D01*
X107902438Y-49033333D02*
X107997676Y-48938095D01*
X107997676Y-48938095D02*
X108092914Y-48890476D01*
X108092914Y-48890476D02*
X108283390Y-48842857D01*
X108283390Y-48842857D02*
X108426247Y-48842857D01*
X108426247Y-48842857D02*
X108616723Y-48890476D01*
X108616723Y-48890476D02*
X108711961Y-48938095D01*
X108711961Y-48938095D02*
X108807200Y-49033333D01*
X108807200Y-49033333D02*
X108854819Y-49176190D01*
X108854819Y-49176190D02*
X108854819Y-49414285D01*
X108854819Y-47890476D02*
X108854819Y-48461904D01*
X108854819Y-48176190D02*
X107854819Y-48176190D01*
X107854819Y-48176190D02*
X107997676Y-48271428D01*
X107997676Y-48271428D02*
X108092914Y-48366666D01*
X108092914Y-48366666D02*
X108140533Y-48461904D01*
X107854819Y-47557142D02*
X107854819Y-46938095D01*
X107854819Y-46938095D02*
X108235771Y-47271428D01*
X108235771Y-47271428D02*
X108235771Y-47128571D01*
X108235771Y-47128571D02*
X108283390Y-47033333D01*
X108283390Y-47033333D02*
X108331009Y-46985714D01*
X108331009Y-46985714D02*
X108426247Y-46938095D01*
X108426247Y-46938095D02*
X108664342Y-46938095D01*
X108664342Y-46938095D02*
X108759580Y-46985714D01*
X108759580Y-46985714D02*
X108807200Y-47033333D01*
X108807200Y-47033333D02*
X108854819Y-47128571D01*
X108854819Y-47128571D02*
X108854819Y-47414285D01*
X108854819Y-47414285D02*
X108807200Y-47509523D01*
X108807200Y-47509523D02*
X108759580Y-47557142D01*
X84159580Y-62599866D02*
X84207200Y-62647485D01*
X84207200Y-62647485D02*
X84254819Y-62790342D01*
X84254819Y-62790342D02*
X84254819Y-62885580D01*
X84254819Y-62885580D02*
X84207200Y-63028437D01*
X84207200Y-63028437D02*
X84111961Y-63123675D01*
X84111961Y-63123675D02*
X84016723Y-63171294D01*
X84016723Y-63171294D02*
X83826247Y-63218913D01*
X83826247Y-63218913D02*
X83683390Y-63218913D01*
X83683390Y-63218913D02*
X83492914Y-63171294D01*
X83492914Y-63171294D02*
X83397676Y-63123675D01*
X83397676Y-63123675D02*
X83302438Y-63028437D01*
X83302438Y-63028437D02*
X83254819Y-62885580D01*
X83254819Y-62885580D02*
X83254819Y-62790342D01*
X83254819Y-62790342D02*
X83302438Y-62647485D01*
X83302438Y-62647485D02*
X83350057Y-62599866D01*
X84254819Y-61647485D02*
X84254819Y-62218913D01*
X84254819Y-61933199D02*
X83254819Y-61933199D01*
X83254819Y-61933199D02*
X83397676Y-62028437D01*
X83397676Y-62028437D02*
X83492914Y-62123675D01*
X83492914Y-62123675D02*
X83540533Y-62218913D01*
X185575119Y-136068523D02*
X186289404Y-136068523D01*
X186289404Y-136068523D02*
X186432261Y-136116142D01*
X186432261Y-136116142D02*
X186527500Y-136211380D01*
X186527500Y-136211380D02*
X186575119Y-136354237D01*
X186575119Y-136354237D02*
X186575119Y-136449475D01*
X186575119Y-135068523D02*
X186575119Y-135639951D01*
X186575119Y-135354237D02*
X185575119Y-135354237D01*
X185575119Y-135354237D02*
X185717976Y-135449475D01*
X185717976Y-135449475D02*
X185813214Y-135544713D01*
X185813214Y-135544713D02*
X185860833Y-135639951D01*
X185575119Y-134163761D02*
X185575119Y-134639951D01*
X185575119Y-134639951D02*
X186051309Y-134687570D01*
X186051309Y-134687570D02*
X186003690Y-134639951D01*
X186003690Y-134639951D02*
X185956071Y-134544713D01*
X185956071Y-134544713D02*
X185956071Y-134306618D01*
X185956071Y-134306618D02*
X186003690Y-134211380D01*
X186003690Y-134211380D02*
X186051309Y-134163761D01*
X186051309Y-134163761D02*
X186146547Y-134116142D01*
X186146547Y-134116142D02*
X186384642Y-134116142D01*
X186384642Y-134116142D02*
X186479880Y-134163761D01*
X186479880Y-134163761D02*
X186527500Y-134211380D01*
X186527500Y-134211380D02*
X186575119Y-134306618D01*
X186575119Y-134306618D02*
X186575119Y-134544713D01*
X186575119Y-134544713D02*
X186527500Y-134639951D01*
X186527500Y-134639951D02*
X186479880Y-134687570D01*
X109131790Y-95168806D02*
X108655599Y-95502139D01*
X109131790Y-95740234D02*
X108131790Y-95740234D01*
X108131790Y-95740234D02*
X108131790Y-95359282D01*
X108131790Y-95359282D02*
X108179409Y-95264044D01*
X108179409Y-95264044D02*
X108227028Y-95216425D01*
X108227028Y-95216425D02*
X108322266Y-95168806D01*
X108322266Y-95168806D02*
X108465123Y-95168806D01*
X108465123Y-95168806D02*
X108560361Y-95216425D01*
X108560361Y-95216425D02*
X108607980Y-95264044D01*
X108607980Y-95264044D02*
X108655599Y-95359282D01*
X108655599Y-95359282D02*
X108655599Y-95740234D01*
X108131790Y-94264044D02*
X108131790Y-94740234D01*
X108131790Y-94740234D02*
X108607980Y-94787853D01*
X108607980Y-94787853D02*
X108560361Y-94740234D01*
X108560361Y-94740234D02*
X108512742Y-94644996D01*
X108512742Y-94644996D02*
X108512742Y-94406901D01*
X108512742Y-94406901D02*
X108560361Y-94311663D01*
X108560361Y-94311663D02*
X108607980Y-94264044D01*
X108607980Y-94264044D02*
X108703218Y-94216425D01*
X108703218Y-94216425D02*
X108941313Y-94216425D01*
X108941313Y-94216425D02*
X109036551Y-94264044D01*
X109036551Y-94264044D02*
X109084171Y-94311663D01*
X109084171Y-94311663D02*
X109131790Y-94406901D01*
X109131790Y-94406901D02*
X109131790Y-94644996D01*
X109131790Y-94644996D02*
X109084171Y-94740234D01*
X109084171Y-94740234D02*
X109036551Y-94787853D01*
X121574358Y-95061442D02*
X121098167Y-95394775D01*
X121574358Y-95632870D02*
X120574358Y-95632870D01*
X120574358Y-95632870D02*
X120574358Y-95251918D01*
X120574358Y-95251918D02*
X120621977Y-95156680D01*
X120621977Y-95156680D02*
X120669596Y-95109061D01*
X120669596Y-95109061D02*
X120764834Y-95061442D01*
X120764834Y-95061442D02*
X120907691Y-95061442D01*
X120907691Y-95061442D02*
X121002929Y-95109061D01*
X121002929Y-95109061D02*
X121050548Y-95156680D01*
X121050548Y-95156680D02*
X121098167Y-95251918D01*
X121098167Y-95251918D02*
X121098167Y-95632870D01*
X121574358Y-94585251D02*
X121574358Y-94394775D01*
X121574358Y-94394775D02*
X121526739Y-94299537D01*
X121526739Y-94299537D02*
X121479119Y-94251918D01*
X121479119Y-94251918D02*
X121336262Y-94156680D01*
X121336262Y-94156680D02*
X121145786Y-94109061D01*
X121145786Y-94109061D02*
X120764834Y-94109061D01*
X120764834Y-94109061D02*
X120669596Y-94156680D01*
X120669596Y-94156680D02*
X120621977Y-94204299D01*
X120621977Y-94204299D02*
X120574358Y-94299537D01*
X120574358Y-94299537D02*
X120574358Y-94490013D01*
X120574358Y-94490013D02*
X120621977Y-94585251D01*
X120621977Y-94585251D02*
X120669596Y-94632870D01*
X120669596Y-94632870D02*
X120764834Y-94680489D01*
X120764834Y-94680489D02*
X121002929Y-94680489D01*
X121002929Y-94680489D02*
X121098167Y-94632870D01*
X121098167Y-94632870D02*
X121145786Y-94585251D01*
X121145786Y-94585251D02*
X121193405Y-94490013D01*
X121193405Y-94490013D02*
X121193405Y-94299537D01*
X121193405Y-94299537D02*
X121145786Y-94204299D01*
X121145786Y-94204299D02*
X121098167Y-94156680D01*
X121098167Y-94156680D02*
X121002929Y-94109061D01*
X184213333Y-83859580D02*
X184165714Y-83907200D01*
X184165714Y-83907200D02*
X184022857Y-83954819D01*
X184022857Y-83954819D02*
X183927619Y-83954819D01*
X183927619Y-83954819D02*
X183784762Y-83907200D01*
X183784762Y-83907200D02*
X183689524Y-83811961D01*
X183689524Y-83811961D02*
X183641905Y-83716723D01*
X183641905Y-83716723D02*
X183594286Y-83526247D01*
X183594286Y-83526247D02*
X183594286Y-83383390D01*
X183594286Y-83383390D02*
X183641905Y-83192914D01*
X183641905Y-83192914D02*
X183689524Y-83097676D01*
X183689524Y-83097676D02*
X183784762Y-83002438D01*
X183784762Y-83002438D02*
X183927619Y-82954819D01*
X183927619Y-82954819D02*
X184022857Y-82954819D01*
X184022857Y-82954819D02*
X184165714Y-83002438D01*
X184165714Y-83002438D02*
X184213333Y-83050057D01*
X184784762Y-83383390D02*
X184689524Y-83335771D01*
X184689524Y-83335771D02*
X184641905Y-83288152D01*
X184641905Y-83288152D02*
X184594286Y-83192914D01*
X184594286Y-83192914D02*
X184594286Y-83145295D01*
X184594286Y-83145295D02*
X184641905Y-83050057D01*
X184641905Y-83050057D02*
X184689524Y-83002438D01*
X184689524Y-83002438D02*
X184784762Y-82954819D01*
X184784762Y-82954819D02*
X184975238Y-82954819D01*
X184975238Y-82954819D02*
X185070476Y-83002438D01*
X185070476Y-83002438D02*
X185118095Y-83050057D01*
X185118095Y-83050057D02*
X185165714Y-83145295D01*
X185165714Y-83145295D02*
X185165714Y-83192914D01*
X185165714Y-83192914D02*
X185118095Y-83288152D01*
X185118095Y-83288152D02*
X185070476Y-83335771D01*
X185070476Y-83335771D02*
X184975238Y-83383390D01*
X184975238Y-83383390D02*
X184784762Y-83383390D01*
X184784762Y-83383390D02*
X184689524Y-83431009D01*
X184689524Y-83431009D02*
X184641905Y-83478628D01*
X184641905Y-83478628D02*
X184594286Y-83573866D01*
X184594286Y-83573866D02*
X184594286Y-83764342D01*
X184594286Y-83764342D02*
X184641905Y-83859580D01*
X184641905Y-83859580D02*
X184689524Y-83907200D01*
X184689524Y-83907200D02*
X184784762Y-83954819D01*
X184784762Y-83954819D02*
X184975238Y-83954819D01*
X184975238Y-83954819D02*
X185070476Y-83907200D01*
X185070476Y-83907200D02*
X185118095Y-83859580D01*
X185118095Y-83859580D02*
X185165714Y-83764342D01*
X185165714Y-83764342D02*
X185165714Y-83573866D01*
X185165714Y-83573866D02*
X185118095Y-83478628D01*
X185118095Y-83478628D02*
X185070476Y-83431009D01*
X185070476Y-83431009D02*
X184975238Y-83383390D01*
X118224819Y-73098819D02*
X117891486Y-72622628D01*
X117653391Y-73098819D02*
X117653391Y-72098819D01*
X117653391Y-72098819D02*
X118034343Y-72098819D01*
X118034343Y-72098819D02*
X118129581Y-72146438D01*
X118129581Y-72146438D02*
X118177200Y-72194057D01*
X118177200Y-72194057D02*
X118224819Y-72289295D01*
X118224819Y-72289295D02*
X118224819Y-72432152D01*
X118224819Y-72432152D02*
X118177200Y-72527390D01*
X118177200Y-72527390D02*
X118129581Y-72575009D01*
X118129581Y-72575009D02*
X118034343Y-72622628D01*
X118034343Y-72622628D02*
X117653391Y-72622628D01*
X119177200Y-73098819D02*
X118605772Y-73098819D01*
X118891486Y-73098819D02*
X118891486Y-72098819D01*
X118891486Y-72098819D02*
X118796248Y-72241676D01*
X118796248Y-72241676D02*
X118701010Y-72336914D01*
X118701010Y-72336914D02*
X118605772Y-72384533D01*
X119510534Y-72098819D02*
X120177200Y-72098819D01*
X120177200Y-72098819D02*
X119748629Y-73098819D01*
X73485714Y-59179619D02*
X73485714Y-58179619D01*
X73485714Y-58179619D02*
X73723809Y-58179619D01*
X73723809Y-58179619D02*
X73866666Y-58227238D01*
X73866666Y-58227238D02*
X73961904Y-58322476D01*
X73961904Y-58322476D02*
X74009523Y-58417714D01*
X74009523Y-58417714D02*
X74057142Y-58608190D01*
X74057142Y-58608190D02*
X74057142Y-58751047D01*
X74057142Y-58751047D02*
X74009523Y-58941523D01*
X74009523Y-58941523D02*
X73961904Y-59036761D01*
X73961904Y-59036761D02*
X73866666Y-59132000D01*
X73866666Y-59132000D02*
X73723809Y-59179619D01*
X73723809Y-59179619D02*
X73485714Y-59179619D01*
X75009523Y-59179619D02*
X74438095Y-59179619D01*
X74723809Y-59179619D02*
X74723809Y-58179619D01*
X74723809Y-58179619D02*
X74628571Y-58322476D01*
X74628571Y-58322476D02*
X74533333Y-58417714D01*
X74533333Y-58417714D02*
X74438095Y-58465333D01*
X75390476Y-58274857D02*
X75438095Y-58227238D01*
X75438095Y-58227238D02*
X75533333Y-58179619D01*
X75533333Y-58179619D02*
X75771428Y-58179619D01*
X75771428Y-58179619D02*
X75866666Y-58227238D01*
X75866666Y-58227238D02*
X75914285Y-58274857D01*
X75914285Y-58274857D02*
X75961904Y-58370095D01*
X75961904Y-58370095D02*
X75961904Y-58465333D01*
X75961904Y-58465333D02*
X75914285Y-58608190D01*
X75914285Y-58608190D02*
X75342857Y-59179619D01*
X75342857Y-59179619D02*
X75961904Y-59179619D01*
X69604019Y-140395523D02*
X70318304Y-140395523D01*
X70318304Y-140395523D02*
X70461161Y-140443142D01*
X70461161Y-140443142D02*
X70556400Y-140538380D01*
X70556400Y-140538380D02*
X70604019Y-140681237D01*
X70604019Y-140681237D02*
X70604019Y-140776475D01*
X70604019Y-139395523D02*
X70604019Y-139966951D01*
X70604019Y-139681237D02*
X69604019Y-139681237D01*
X69604019Y-139681237D02*
X69746876Y-139776475D01*
X69746876Y-139776475D02*
X69842114Y-139871713D01*
X69842114Y-139871713D02*
X69889733Y-139966951D01*
X69604019Y-138776475D02*
X69604019Y-138681237D01*
X69604019Y-138681237D02*
X69651638Y-138585999D01*
X69651638Y-138585999D02*
X69699257Y-138538380D01*
X69699257Y-138538380D02*
X69794495Y-138490761D01*
X69794495Y-138490761D02*
X69984971Y-138443142D01*
X69984971Y-138443142D02*
X70223066Y-138443142D01*
X70223066Y-138443142D02*
X70413542Y-138490761D01*
X70413542Y-138490761D02*
X70508780Y-138538380D01*
X70508780Y-138538380D02*
X70556400Y-138585999D01*
X70556400Y-138585999D02*
X70604019Y-138681237D01*
X70604019Y-138681237D02*
X70604019Y-138776475D01*
X70604019Y-138776475D02*
X70556400Y-138871713D01*
X70556400Y-138871713D02*
X70508780Y-138919332D01*
X70508780Y-138919332D02*
X70413542Y-138966951D01*
X70413542Y-138966951D02*
X70223066Y-139014570D01*
X70223066Y-139014570D02*
X69984971Y-139014570D01*
X69984971Y-139014570D02*
X69794495Y-138966951D01*
X69794495Y-138966951D02*
X69699257Y-138919332D01*
X69699257Y-138919332D02*
X69651638Y-138871713D01*
X69651638Y-138871713D02*
X69604019Y-138776475D01*
X95050057Y-80968838D02*
X95002438Y-81064076D01*
X95002438Y-81064076D02*
X94907200Y-81159314D01*
X94907200Y-81159314D02*
X94764342Y-81302171D01*
X94764342Y-81302171D02*
X94716723Y-81397409D01*
X94716723Y-81397409D02*
X94716723Y-81492647D01*
X94954819Y-81445028D02*
X94907200Y-81540266D01*
X94907200Y-81540266D02*
X94811961Y-81635504D01*
X94811961Y-81635504D02*
X94621485Y-81683123D01*
X94621485Y-81683123D02*
X94288152Y-81683123D01*
X94288152Y-81683123D02*
X94097676Y-81635504D01*
X94097676Y-81635504D02*
X94002438Y-81540266D01*
X94002438Y-81540266D02*
X93954819Y-81445028D01*
X93954819Y-81445028D02*
X93954819Y-81254552D01*
X93954819Y-81254552D02*
X94002438Y-81159314D01*
X94002438Y-81159314D02*
X94097676Y-81064076D01*
X94097676Y-81064076D02*
X94288152Y-81016457D01*
X94288152Y-81016457D02*
X94621485Y-81016457D01*
X94621485Y-81016457D02*
X94811961Y-81064076D01*
X94811961Y-81064076D02*
X94907200Y-81159314D01*
X94907200Y-81159314D02*
X94954819Y-81254552D01*
X94954819Y-81254552D02*
X94954819Y-81445028D01*
X94954819Y-80064076D02*
X94954819Y-80635504D01*
X94954819Y-80349790D02*
X93954819Y-80349790D01*
X93954819Y-80349790D02*
X94097676Y-80445028D01*
X94097676Y-80445028D02*
X94192914Y-80540266D01*
X94192914Y-80540266D02*
X94240533Y-80635504D01*
X77254819Y-89353923D02*
X77969104Y-89353923D01*
X77969104Y-89353923D02*
X78111961Y-89401542D01*
X78111961Y-89401542D02*
X78207200Y-89496780D01*
X78207200Y-89496780D02*
X78254819Y-89639637D01*
X78254819Y-89639637D02*
X78254819Y-89734875D01*
X78254819Y-88353923D02*
X78254819Y-88925351D01*
X78254819Y-88639637D02*
X77254819Y-88639637D01*
X77254819Y-88639637D02*
X77397676Y-88734875D01*
X77397676Y-88734875D02*
X77492914Y-88830113D01*
X77492914Y-88830113D02*
X77540533Y-88925351D01*
X77254819Y-88020589D02*
X77254819Y-87401542D01*
X77254819Y-87401542D02*
X77635771Y-87734875D01*
X77635771Y-87734875D02*
X77635771Y-87592018D01*
X77635771Y-87592018D02*
X77683390Y-87496780D01*
X77683390Y-87496780D02*
X77731009Y-87449161D01*
X77731009Y-87449161D02*
X77826247Y-87401542D01*
X77826247Y-87401542D02*
X78064342Y-87401542D01*
X78064342Y-87401542D02*
X78159580Y-87449161D01*
X78159580Y-87449161D02*
X78207200Y-87496780D01*
X78207200Y-87496780D02*
X78254819Y-87592018D01*
X78254819Y-87592018D02*
X78254819Y-87877732D01*
X78254819Y-87877732D02*
X78207200Y-87972970D01*
X78207200Y-87972970D02*
X78159580Y-88020589D01*
X107333333Y-59359580D02*
X107285714Y-59407200D01*
X107285714Y-59407200D02*
X107142857Y-59454819D01*
X107142857Y-59454819D02*
X107047619Y-59454819D01*
X107047619Y-59454819D02*
X106904762Y-59407200D01*
X106904762Y-59407200D02*
X106809524Y-59311961D01*
X106809524Y-59311961D02*
X106761905Y-59216723D01*
X106761905Y-59216723D02*
X106714286Y-59026247D01*
X106714286Y-59026247D02*
X106714286Y-58883390D01*
X106714286Y-58883390D02*
X106761905Y-58692914D01*
X106761905Y-58692914D02*
X106809524Y-58597676D01*
X106809524Y-58597676D02*
X106904762Y-58502438D01*
X106904762Y-58502438D02*
X107047619Y-58454819D01*
X107047619Y-58454819D02*
X107142857Y-58454819D01*
X107142857Y-58454819D02*
X107285714Y-58502438D01*
X107285714Y-58502438D02*
X107333333Y-58550057D01*
X108238095Y-58454819D02*
X107761905Y-58454819D01*
X107761905Y-58454819D02*
X107714286Y-58931009D01*
X107714286Y-58931009D02*
X107761905Y-58883390D01*
X107761905Y-58883390D02*
X107857143Y-58835771D01*
X107857143Y-58835771D02*
X108095238Y-58835771D01*
X108095238Y-58835771D02*
X108190476Y-58883390D01*
X108190476Y-58883390D02*
X108238095Y-58931009D01*
X108238095Y-58931009D02*
X108285714Y-59026247D01*
X108285714Y-59026247D02*
X108285714Y-59264342D01*
X108285714Y-59264342D02*
X108238095Y-59359580D01*
X108238095Y-59359580D02*
X108190476Y-59407200D01*
X108190476Y-59407200D02*
X108095238Y-59454819D01*
X108095238Y-59454819D02*
X107857143Y-59454819D01*
X107857143Y-59454819D02*
X107761905Y-59407200D01*
X107761905Y-59407200D02*
X107714286Y-59359580D01*
X185575119Y-113957333D02*
X186289404Y-113957333D01*
X186289404Y-113957333D02*
X186432261Y-114004952D01*
X186432261Y-114004952D02*
X186527500Y-114100190D01*
X186527500Y-114100190D02*
X186575119Y-114243047D01*
X186575119Y-114243047D02*
X186575119Y-114338285D01*
X186575119Y-112957333D02*
X186575119Y-113528761D01*
X186575119Y-113243047D02*
X185575119Y-113243047D01*
X185575119Y-113243047D02*
X185717976Y-113338285D01*
X185717976Y-113338285D02*
X185813214Y-113433523D01*
X185813214Y-113433523D02*
X185860833Y-113528761D01*
X185575119Y-112623999D02*
X185575119Y-112004952D01*
X185575119Y-112004952D02*
X185956071Y-112338285D01*
X185956071Y-112338285D02*
X185956071Y-112195428D01*
X185956071Y-112195428D02*
X186003690Y-112100190D01*
X186003690Y-112100190D02*
X186051309Y-112052571D01*
X186051309Y-112052571D02*
X186146547Y-112004952D01*
X186146547Y-112004952D02*
X186384642Y-112004952D01*
X186384642Y-112004952D02*
X186479880Y-112052571D01*
X186479880Y-112052571D02*
X186527500Y-112100190D01*
X186527500Y-112100190D02*
X186575119Y-112195428D01*
X186575119Y-112195428D02*
X186575119Y-112481142D01*
X186575119Y-112481142D02*
X186527500Y-112576380D01*
X186527500Y-112576380D02*
X186479880Y-112623999D01*
X186575119Y-111576380D02*
X185575119Y-111576380D01*
X185575119Y-111576380D02*
X185575119Y-111195428D01*
X185575119Y-111195428D02*
X185622738Y-111100190D01*
X185622738Y-111100190D02*
X185670357Y-111052571D01*
X185670357Y-111052571D02*
X185765595Y-111004952D01*
X185765595Y-111004952D02*
X185908452Y-111004952D01*
X185908452Y-111004952D02*
X186003690Y-111052571D01*
X186003690Y-111052571D02*
X186051309Y-111100190D01*
X186051309Y-111100190D02*
X186098928Y-111195428D01*
X186098928Y-111195428D02*
X186098928Y-111576380D01*
X186527500Y-110623999D02*
X186575119Y-110481142D01*
X186575119Y-110481142D02*
X186575119Y-110243047D01*
X186575119Y-110243047D02*
X186527500Y-110147809D01*
X186527500Y-110147809D02*
X186479880Y-110100190D01*
X186479880Y-110100190D02*
X186384642Y-110052571D01*
X186384642Y-110052571D02*
X186289404Y-110052571D01*
X186289404Y-110052571D02*
X186194166Y-110100190D01*
X186194166Y-110100190D02*
X186146547Y-110147809D01*
X186146547Y-110147809D02*
X186098928Y-110243047D01*
X186098928Y-110243047D02*
X186051309Y-110433523D01*
X186051309Y-110433523D02*
X186003690Y-110528761D01*
X186003690Y-110528761D02*
X185956071Y-110576380D01*
X185956071Y-110576380D02*
X185860833Y-110623999D01*
X185860833Y-110623999D02*
X185765595Y-110623999D01*
X185765595Y-110623999D02*
X185670357Y-110576380D01*
X185670357Y-110576380D02*
X185622738Y-110528761D01*
X185622738Y-110528761D02*
X185575119Y-110433523D01*
X185575119Y-110433523D02*
X185575119Y-110195428D01*
X185575119Y-110195428D02*
X185622738Y-110052571D01*
X185575119Y-109719237D02*
X186575119Y-109481142D01*
X186575119Y-109481142D02*
X185860833Y-109290666D01*
X185860833Y-109290666D02*
X186575119Y-109100190D01*
X186575119Y-109100190D02*
X185575119Y-108862095D01*
X186575119Y-107957333D02*
X186575119Y-108528761D01*
X186575119Y-108243047D02*
X185575119Y-108243047D01*
X185575119Y-108243047D02*
X185717976Y-108338285D01*
X185717976Y-108338285D02*
X185813214Y-108433523D01*
X185813214Y-108433523D02*
X185860833Y-108528761D01*
X137133333Y-57859580D02*
X137085714Y-57907200D01*
X137085714Y-57907200D02*
X136942857Y-57954819D01*
X136942857Y-57954819D02*
X136847619Y-57954819D01*
X136847619Y-57954819D02*
X136704762Y-57907200D01*
X136704762Y-57907200D02*
X136609524Y-57811961D01*
X136609524Y-57811961D02*
X136561905Y-57716723D01*
X136561905Y-57716723D02*
X136514286Y-57526247D01*
X136514286Y-57526247D02*
X136514286Y-57383390D01*
X136514286Y-57383390D02*
X136561905Y-57192914D01*
X136561905Y-57192914D02*
X136609524Y-57097676D01*
X136609524Y-57097676D02*
X136704762Y-57002438D01*
X136704762Y-57002438D02*
X136847619Y-56954819D01*
X136847619Y-56954819D02*
X136942857Y-56954819D01*
X136942857Y-56954819D02*
X137085714Y-57002438D01*
X137085714Y-57002438D02*
X137133333Y-57050057D01*
X137466667Y-56954819D02*
X138133333Y-56954819D01*
X138133333Y-56954819D02*
X137704762Y-57954819D01*
X120251905Y-69134819D02*
X120251905Y-68134819D01*
X120823333Y-69134819D02*
X120394762Y-68563390D01*
X120823333Y-68134819D02*
X120251905Y-68706247D01*
X121680476Y-68134819D02*
X121490000Y-68134819D01*
X121490000Y-68134819D02*
X121394762Y-68182438D01*
X121394762Y-68182438D02*
X121347143Y-68230057D01*
X121347143Y-68230057D02*
X121251905Y-68372914D01*
X121251905Y-68372914D02*
X121204286Y-68563390D01*
X121204286Y-68563390D02*
X121204286Y-68944342D01*
X121204286Y-68944342D02*
X121251905Y-69039580D01*
X121251905Y-69039580D02*
X121299524Y-69087200D01*
X121299524Y-69087200D02*
X121394762Y-69134819D01*
X121394762Y-69134819D02*
X121585238Y-69134819D01*
X121585238Y-69134819D02*
X121680476Y-69087200D01*
X121680476Y-69087200D02*
X121728095Y-69039580D01*
X121728095Y-69039580D02*
X121775714Y-68944342D01*
X121775714Y-68944342D02*
X121775714Y-68706247D01*
X121775714Y-68706247D02*
X121728095Y-68611009D01*
X121728095Y-68611009D02*
X121680476Y-68563390D01*
X121680476Y-68563390D02*
X121585238Y-68515771D01*
X121585238Y-68515771D02*
X121394762Y-68515771D01*
X121394762Y-68515771D02*
X121299524Y-68563390D01*
X121299524Y-68563390D02*
X121251905Y-68611009D01*
X121251905Y-68611009D02*
X121204286Y-68706247D01*
X159910476Y-82024819D02*
X159910476Y-82739104D01*
X159910476Y-82739104D02*
X159862857Y-82881961D01*
X159862857Y-82881961D02*
X159767619Y-82977200D01*
X159767619Y-82977200D02*
X159624762Y-83024819D01*
X159624762Y-83024819D02*
X159529524Y-83024819D01*
X160339048Y-82120057D02*
X160386667Y-82072438D01*
X160386667Y-82072438D02*
X160481905Y-82024819D01*
X160481905Y-82024819D02*
X160720000Y-82024819D01*
X160720000Y-82024819D02*
X160815238Y-82072438D01*
X160815238Y-82072438D02*
X160862857Y-82120057D01*
X160862857Y-82120057D02*
X160910476Y-82215295D01*
X160910476Y-82215295D02*
X160910476Y-82310533D01*
X160910476Y-82310533D02*
X160862857Y-82453390D01*
X160862857Y-82453390D02*
X160291429Y-83024819D01*
X160291429Y-83024819D02*
X160910476Y-83024819D01*
X161291429Y-82120057D02*
X161339048Y-82072438D01*
X161339048Y-82072438D02*
X161434286Y-82024819D01*
X161434286Y-82024819D02*
X161672381Y-82024819D01*
X161672381Y-82024819D02*
X161767619Y-82072438D01*
X161767619Y-82072438D02*
X161815238Y-82120057D01*
X161815238Y-82120057D02*
X161862857Y-82215295D01*
X161862857Y-82215295D02*
X161862857Y-82310533D01*
X161862857Y-82310533D02*
X161815238Y-82453390D01*
X161815238Y-82453390D02*
X161243810Y-83024819D01*
X161243810Y-83024819D02*
X161862857Y-83024819D01*
X76854819Y-69405983D02*
X77569104Y-69405983D01*
X77569104Y-69405983D02*
X77711961Y-69453602D01*
X77711961Y-69453602D02*
X77807200Y-69548840D01*
X77807200Y-69548840D02*
X77854819Y-69691697D01*
X77854819Y-69691697D02*
X77854819Y-69786935D01*
X77854819Y-68405983D02*
X77854819Y-68977411D01*
X77854819Y-68691697D02*
X76854819Y-68691697D01*
X76854819Y-68691697D02*
X76997676Y-68786935D01*
X76997676Y-68786935D02*
X77092914Y-68882173D01*
X77092914Y-68882173D02*
X77140533Y-68977411D01*
X164490476Y-49354819D02*
X164490476Y-50069104D01*
X164490476Y-50069104D02*
X164442857Y-50211961D01*
X164442857Y-50211961D02*
X164347619Y-50307200D01*
X164347619Y-50307200D02*
X164204762Y-50354819D01*
X164204762Y-50354819D02*
X164109524Y-50354819D01*
X165490476Y-50354819D02*
X164919048Y-50354819D01*
X165204762Y-50354819D02*
X165204762Y-49354819D01*
X165204762Y-49354819D02*
X165109524Y-49497676D01*
X165109524Y-49497676D02*
X165014286Y-49592914D01*
X165014286Y-49592914D02*
X164919048Y-49640533D01*
X166061905Y-49783390D02*
X165966667Y-49735771D01*
X165966667Y-49735771D02*
X165919048Y-49688152D01*
X165919048Y-49688152D02*
X165871429Y-49592914D01*
X165871429Y-49592914D02*
X165871429Y-49545295D01*
X165871429Y-49545295D02*
X165919048Y-49450057D01*
X165919048Y-49450057D02*
X165966667Y-49402438D01*
X165966667Y-49402438D02*
X166061905Y-49354819D01*
X166061905Y-49354819D02*
X166252381Y-49354819D01*
X166252381Y-49354819D02*
X166347619Y-49402438D01*
X166347619Y-49402438D02*
X166395238Y-49450057D01*
X166395238Y-49450057D02*
X166442857Y-49545295D01*
X166442857Y-49545295D02*
X166442857Y-49592914D01*
X166442857Y-49592914D02*
X166395238Y-49688152D01*
X166395238Y-49688152D02*
X166347619Y-49735771D01*
X166347619Y-49735771D02*
X166252381Y-49783390D01*
X166252381Y-49783390D02*
X166061905Y-49783390D01*
X166061905Y-49783390D02*
X165966667Y-49831009D01*
X165966667Y-49831009D02*
X165919048Y-49878628D01*
X165919048Y-49878628D02*
X165871429Y-49973866D01*
X165871429Y-49973866D02*
X165871429Y-50164342D01*
X165871429Y-50164342D02*
X165919048Y-50259580D01*
X165919048Y-50259580D02*
X165966667Y-50307200D01*
X165966667Y-50307200D02*
X166061905Y-50354819D01*
X166061905Y-50354819D02*
X166252381Y-50354819D01*
X166252381Y-50354819D02*
X166347619Y-50307200D01*
X166347619Y-50307200D02*
X166395238Y-50259580D01*
X166395238Y-50259580D02*
X166442857Y-50164342D01*
X166442857Y-50164342D02*
X166442857Y-49973866D01*
X166442857Y-49973866D02*
X166395238Y-49878628D01*
X166395238Y-49878628D02*
X166347619Y-49831009D01*
X166347619Y-49831009D02*
X166252381Y-49783390D01*
%TO.C,R14*%
D11*
X100126800Y-136472800D02*
X100126800Y-137242800D01*
X100126800Y-144552800D02*
X100126800Y-143782800D01*
X98756800Y-137242800D02*
X101496800Y-137242800D01*
X101496800Y-143782800D01*
X98756800Y-143782800D01*
X98756800Y-137242800D01*
%TO.C,R2*%
X145178591Y-90909218D02*
X145178591Y-91679218D01*
X145178591Y-98989218D02*
X145178591Y-98219218D01*
X143808591Y-91679218D02*
X146548591Y-91679218D01*
X146548591Y-98219218D01*
X143808591Y-98219218D01*
X143808591Y-91679218D01*
%TO.C,R3*%
X138884011Y-90897375D02*
X138884011Y-91667375D01*
X138884011Y-98977375D02*
X138884011Y-98207375D01*
X137514011Y-91667375D02*
X140254011Y-91667375D01*
X140254011Y-98207375D01*
X137514011Y-98207375D01*
X137514011Y-91667375D01*
%TO.C,R1*%
X97688400Y-86079200D02*
X97688400Y-86849200D01*
X97688400Y-94159200D02*
X97688400Y-93389200D01*
X96318400Y-86849200D02*
X99058400Y-86849200D01*
X99058400Y-93389200D01*
X96318400Y-93389200D01*
X96318400Y-86849200D01*
%TO.C,J6*%
X85996000Y-87274400D02*
X85996000Y-84624400D01*
X88756000Y-84624400D02*
X85996000Y-84624400D01*
X88756000Y-87274400D02*
X85996000Y-87274400D01*
X88756000Y-87274400D02*
X88756000Y-84624400D01*
X88756000Y-88544400D02*
X88756000Y-89924400D01*
X88756000Y-89924400D02*
X87376000Y-89924400D01*
%TO.C,R18*%
X194496274Y-59825763D02*
X194496274Y-60595763D01*
X194496274Y-67905763D02*
X194496274Y-67135763D01*
X193126274Y-60595763D02*
X195866274Y-60595763D01*
X195866274Y-67135763D01*
X193126274Y-67135763D01*
X193126274Y-60595763D01*
%TO.C,J2*%
X184760000Y-93750000D02*
X194800000Y-93750000D01*
X184760000Y-104150000D02*
X184760000Y-93750000D01*
X187780000Y-104150000D02*
X187780000Y-93750000D01*
X192680000Y-104150000D02*
X192680000Y-93750000D01*
X194180000Y-104150000D02*
X194180000Y-93750000D01*
X194800000Y-93750000D02*
X194800000Y-101190000D01*
X194800000Y-101790000D02*
X194800000Y-104150000D01*
X194800000Y-104150000D02*
X184760000Y-104150000D01*
X194800000Y-101490000D02*
X195410000Y-101050000D01*
X195410000Y-101930000D01*
X194800000Y-101490000D01*
G36*
X195410000Y-101930000D02*
G01*
X194800000Y-101490000D01*
X195410000Y-101050000D01*
X195410000Y-101930000D01*
G37*
%TO.C,D3*%
X179740000Y-106280000D02*
X179740000Y-104980000D01*
X179940000Y-86880000D02*
X183540000Y-86880000D01*
X179940000Y-106080000D02*
X179940000Y-86880000D01*
X181040000Y-106280000D02*
X179740000Y-106280000D01*
X183540000Y-86880000D02*
X183540000Y-106080000D01*
X183540000Y-106080000D02*
X179940000Y-106080000D01*
%TO.C,Q4*%
X187566274Y-59525763D02*
X187566274Y-63125763D01*
X187577796Y-59487285D02*
G75*
G02*
X192016275Y-61325763I1838478J-1838478D01*
G01*
X192016274Y-61325763D02*
G75*
G02*
X187577796Y-63164241I-2600000J0D01*
G01*
%TO.C,C3*%
X81540000Y-127709000D02*
X81540000Y-126511000D01*
X81580000Y-127972000D02*
X81580000Y-126248000D01*
X81620000Y-128172000D02*
X81620000Y-126048000D01*
X81660000Y-128340000D02*
X81660000Y-125880000D01*
X81700000Y-128487000D02*
X81700000Y-125733000D01*
X81740000Y-128619000D02*
X81740000Y-125601000D01*
X81780000Y-128740000D02*
X81780000Y-125480000D01*
X81820000Y-128852000D02*
X81820000Y-125368000D01*
X81860000Y-128956000D02*
X81860000Y-125264000D01*
X81900000Y-129054000D02*
X81900000Y-125166000D01*
X81940000Y-129147000D02*
X81940000Y-125073000D01*
X81980000Y-129234000D02*
X81980000Y-124986000D01*
X82020000Y-129318000D02*
X82020000Y-124902000D01*
X82060000Y-129398000D02*
X82060000Y-124822000D01*
X82100000Y-129475000D02*
X82100000Y-124745000D01*
X82140000Y-129549000D02*
X82140000Y-124671000D01*
X82180000Y-129620000D02*
X82180000Y-124600000D01*
X82220000Y-129688000D02*
X82220000Y-124532000D01*
X82260000Y-129754000D02*
X82260000Y-124466000D01*
X82300000Y-129818000D02*
X82300000Y-124402000D01*
X82340000Y-129880000D02*
X82340000Y-124340000D01*
X82380000Y-129940000D02*
X82380000Y-124280000D01*
X82420000Y-129998000D02*
X82420000Y-124222000D01*
X82460000Y-130055000D02*
X82460000Y-124165000D01*
X82500000Y-130110000D02*
X82500000Y-124110000D01*
X82540000Y-130163000D02*
X82540000Y-124057000D01*
X82580000Y-130215000D02*
X82580000Y-124005000D01*
X82620000Y-130266000D02*
X82620000Y-123954000D01*
X82660000Y-130315000D02*
X82660000Y-123905000D01*
X82700000Y-130364000D02*
X82700000Y-123856000D01*
X82740000Y-130411000D02*
X82740000Y-123809000D01*
X82780000Y-130457000D02*
X82780000Y-123763000D01*
X82820000Y-130501000D02*
X82820000Y-123719000D01*
X82860000Y-130545000D02*
X82860000Y-123675000D01*
X82900000Y-125870000D02*
X82900000Y-123632000D01*
X82900000Y-130588000D02*
X82900000Y-128350000D01*
X82940000Y-125870000D02*
X82940000Y-123590000D01*
X82940000Y-130630000D02*
X82940000Y-128350000D01*
X82980000Y-125870000D02*
X82980000Y-123549000D01*
X82980000Y-130671000D02*
X82980000Y-128350000D01*
X83020000Y-125870000D02*
X83020000Y-123509000D01*
X83020000Y-130711000D02*
X83020000Y-128350000D01*
X83060000Y-125870000D02*
X83060000Y-123470000D01*
X83060000Y-130750000D02*
X83060000Y-128350000D01*
X83100000Y-125870000D02*
X83100000Y-123432000D01*
X83100000Y-130788000D02*
X83100000Y-128350000D01*
X83140000Y-125870000D02*
X83140000Y-123394000D01*
X83140000Y-130826000D02*
X83140000Y-128350000D01*
X83180000Y-125870000D02*
X83180000Y-123358000D01*
X83180000Y-130862000D02*
X83180000Y-128350000D01*
X83220000Y-125870000D02*
X83220000Y-123322000D01*
X83220000Y-130898000D02*
X83220000Y-128350000D01*
X83260000Y-125870000D02*
X83260000Y-123287000D01*
X83260000Y-130933000D02*
X83260000Y-128350000D01*
X83300000Y-125870000D02*
X83300000Y-123252000D01*
X83300000Y-130968000D02*
X83300000Y-128350000D01*
X83340000Y-125870000D02*
X83340000Y-123219000D01*
X83340000Y-131001000D02*
X83340000Y-128350000D01*
X83380000Y-125870000D02*
X83380000Y-123186000D01*
X83380000Y-131034000D02*
X83380000Y-128350000D01*
X83420000Y-125870000D02*
X83420000Y-123153000D01*
X83420000Y-131067000D02*
X83420000Y-128350000D01*
X83460000Y-125870000D02*
X83460000Y-123122000D01*
X83460000Y-131098000D02*
X83460000Y-128350000D01*
X83500000Y-125870000D02*
X83500000Y-123090000D01*
X83500000Y-131130000D02*
X83500000Y-128350000D01*
X83540000Y-125870000D02*
X83540000Y-123060000D01*
X83540000Y-131160000D02*
X83540000Y-128350000D01*
X83580000Y-125870000D02*
X83580000Y-123030000D01*
X83580000Y-131190000D02*
X83580000Y-128350000D01*
X83620000Y-125870000D02*
X83620000Y-123001000D01*
X83620000Y-131219000D02*
X83620000Y-128350000D01*
X83660000Y-125870000D02*
X83660000Y-122972000D01*
X83660000Y-131248000D02*
X83660000Y-128350000D01*
X83700000Y-125870000D02*
X83700000Y-122944000D01*
X83700000Y-131276000D02*
X83700000Y-128350000D01*
X83740000Y-125870000D02*
X83740000Y-122917000D01*
X83740000Y-131303000D02*
X83740000Y-128350000D01*
X83780000Y-125870000D02*
X83780000Y-122890000D01*
X83780000Y-131330000D02*
X83780000Y-128350000D01*
X83820000Y-125870000D02*
X83820000Y-122863000D01*
X83820000Y-131357000D02*
X83820000Y-128350000D01*
X83860000Y-125870000D02*
X83860000Y-122838000D01*
X83860000Y-131382000D02*
X83860000Y-128350000D01*
X83900000Y-125870000D02*
X83900000Y-122812000D01*
X83900000Y-131408000D02*
X83900000Y-128350000D01*
X83940000Y-125870000D02*
X83940000Y-122787000D01*
X83940000Y-131433000D02*
X83940000Y-128350000D01*
X83980000Y-125870000D02*
X83980000Y-122763000D01*
X83980000Y-131457000D02*
X83980000Y-128350000D01*
X84020000Y-125870000D02*
X84020000Y-122739000D01*
X84020000Y-131481000D02*
X84020000Y-128350000D01*
X84060000Y-125870000D02*
X84060000Y-122716000D01*
X84060000Y-131504000D02*
X84060000Y-128350000D01*
X84100000Y-125870000D02*
X84100000Y-122693000D01*
X84100000Y-131527000D02*
X84100000Y-128350000D01*
X84140000Y-125870000D02*
X84140000Y-122671000D01*
X84140000Y-131549000D02*
X84140000Y-128350000D01*
X84180000Y-125870000D02*
X84180000Y-122649000D01*
X84180000Y-131571000D02*
X84180000Y-128350000D01*
X84220000Y-125870000D02*
X84220000Y-122627000D01*
X84220000Y-131593000D02*
X84220000Y-128350000D01*
X84260000Y-125870000D02*
X84260000Y-122606000D01*
X84260000Y-131614000D02*
X84260000Y-128350000D01*
X84300000Y-125870000D02*
X84300000Y-122586000D01*
X84300000Y-131634000D02*
X84300000Y-128350000D01*
X84340000Y-125870000D02*
X84340000Y-122566000D01*
X84340000Y-131654000D02*
X84340000Y-128350000D01*
X84380000Y-125870000D02*
X84380000Y-122546000D01*
X84380000Y-131674000D02*
X84380000Y-128350000D01*
X84420000Y-125870000D02*
X84420000Y-122527000D01*
X84420000Y-131693000D02*
X84420000Y-128350000D01*
X84460000Y-125870000D02*
X84460000Y-122508000D01*
X84460000Y-131712000D02*
X84460000Y-128350000D01*
X84500000Y-125870000D02*
X84500000Y-122490000D01*
X84500000Y-131730000D02*
X84500000Y-128350000D01*
X84540000Y-125870000D02*
X84540000Y-122472000D01*
X84540000Y-131748000D02*
X84540000Y-128350000D01*
X84580000Y-125870000D02*
X84580000Y-122454000D01*
X84580000Y-131766000D02*
X84580000Y-128350000D01*
X84620000Y-125870000D02*
X84620000Y-122437000D01*
X84620000Y-131783000D02*
X84620000Y-128350000D01*
X84660000Y-125870000D02*
X84660000Y-122420000D01*
X84660000Y-131800000D02*
X84660000Y-128350000D01*
X84700000Y-125870000D02*
X84700000Y-122404000D01*
X84700000Y-131816000D02*
X84700000Y-128350000D01*
X84740000Y-125870000D02*
X84740000Y-122388000D01*
X84740000Y-131832000D02*
X84740000Y-128350000D01*
X84780000Y-125870000D02*
X84780000Y-122372000D01*
X84780000Y-131848000D02*
X84780000Y-128350000D01*
X84820000Y-125870000D02*
X84820000Y-122357000D01*
X84820000Y-131863000D02*
X84820000Y-128350000D01*
X84860000Y-125870000D02*
X84860000Y-122342000D01*
X84860000Y-131878000D02*
X84860000Y-128350000D01*
X84900000Y-125870000D02*
X84900000Y-122328000D01*
X84900000Y-131892000D02*
X84900000Y-128350000D01*
X84940000Y-125870000D02*
X84940000Y-122313000D01*
X84940000Y-131907000D02*
X84940000Y-128350000D01*
X84980000Y-125870000D02*
X84980000Y-122300000D01*
X84980000Y-131920000D02*
X84980000Y-128350000D01*
X85020000Y-125870000D02*
X85020000Y-122286000D01*
X85020000Y-131934000D02*
X85020000Y-128350000D01*
X85060000Y-125870000D02*
X85060000Y-122273000D01*
X85060000Y-131947000D02*
X85060000Y-128350000D01*
X85100000Y-125870000D02*
X85100000Y-122261000D01*
X85100000Y-131959000D02*
X85100000Y-128350000D01*
X85140000Y-125870000D02*
X85140000Y-122249000D01*
X85140000Y-131971000D02*
X85140000Y-128350000D01*
X85180000Y-125870000D02*
X85180000Y-122237000D01*
X85180000Y-131983000D02*
X85180000Y-128350000D01*
X85220000Y-125870000D02*
X85220000Y-122225000D01*
X85220000Y-131995000D02*
X85220000Y-128350000D01*
X85260000Y-125870000D02*
X85260000Y-122214000D01*
X85260000Y-132006000D02*
X85260000Y-128350000D01*
X85300000Y-125870000D02*
X85300000Y-122203000D01*
X85300000Y-132017000D02*
X85300000Y-128350000D01*
X85340000Y-125870000D02*
X85340000Y-122193000D01*
X85340000Y-132027000D02*
X85340000Y-128350000D01*
X85380000Y-132038000D02*
X85380000Y-122182000D01*
X85420000Y-132047000D02*
X85420000Y-122173000D01*
X85460000Y-132057000D02*
X85460000Y-122163000D01*
X85500000Y-132066000D02*
X85500000Y-122154000D01*
X85540000Y-132075000D02*
X85540000Y-122145000D01*
X85580000Y-132083000D02*
X85580000Y-122137000D01*
X85620000Y-132091000D02*
X85620000Y-122129000D01*
X85660000Y-132099000D02*
X85660000Y-122121000D01*
X85700000Y-132107000D02*
X85700000Y-122113000D01*
X85740000Y-132114000D02*
X85740000Y-122106000D01*
X85780000Y-132121000D02*
X85780000Y-122099000D01*
X85820000Y-132127000D02*
X85820000Y-122093000D01*
X85860000Y-132133000D02*
X85860000Y-122087000D01*
X85900000Y-132139000D02*
X85900000Y-122081000D01*
X85940000Y-132145000D02*
X85940000Y-122075000D01*
X85980000Y-132150000D02*
X85980000Y-122070000D01*
X86020000Y-132155000D02*
X86020000Y-122065000D01*
X86060000Y-132159000D02*
X86060000Y-122061000D01*
X86100000Y-132164000D02*
X86100000Y-122056000D01*
X86140000Y-132167000D02*
X86140000Y-122053000D01*
X86180000Y-132171000D02*
X86180000Y-122049000D01*
X86220000Y-132174000D02*
X86220000Y-122046000D01*
X86260000Y-132177000D02*
X86260000Y-122043000D01*
X86300000Y-132180000D02*
X86300000Y-122040000D01*
X86340000Y-132182000D02*
X86340000Y-122038000D01*
X86380000Y-132184000D02*
X86380000Y-122036000D01*
X86420000Y-132186000D02*
X86420000Y-122034000D01*
X86460000Y-132187000D02*
X86460000Y-122033000D01*
X86500000Y-132189000D02*
X86500000Y-122031000D01*
X86540000Y-132189000D02*
X86540000Y-122031000D01*
X86580000Y-132190000D02*
X86580000Y-122030000D01*
X86620000Y-132190000D02*
X86620000Y-122030000D01*
X91599646Y-130485000D02*
X91599646Y-129485000D01*
X92099646Y-129985000D02*
X91099646Y-129985000D01*
X91740000Y-127110000D02*
G75*
G02*
X81500000Y-127110000I-5120000J0D01*
G01*
X81500000Y-127110000D02*
G75*
G02*
X91740000Y-127110000I5120000J0D01*
G01*
%TO.C,D10*%
X136237677Y-68502677D02*
X137257677Y-68502677D01*
X138037677Y-67032677D02*
X138037677Y-69972677D01*
X138157677Y-67032677D02*
X138157677Y-69972677D01*
X138277677Y-67032677D02*
X138277677Y-69972677D01*
X143717677Y-68502677D02*
X142697677Y-68502677D01*
X137257677Y-67032677D02*
X142697677Y-67032677D01*
X142697677Y-69972677D01*
X137257677Y-69972677D01*
X137257677Y-67032677D01*
%TO.C,K4*%
X68840000Y-40760000D02*
X68840000Y-47360000D01*
X68840000Y-40760000D02*
X88640000Y-40760000D01*
X68840000Y-49760000D02*
X68840000Y-56360000D01*
X72890000Y-48610000D02*
X72090000Y-48610000D01*
X72890000Y-48610000D02*
X72890000Y-52210000D01*
X73790000Y-54610000D02*
X76290000Y-54610000D01*
X74290000Y-46810000D02*
X78290000Y-46810000D01*
X74290000Y-50410000D02*
X74290000Y-46810000D01*
X76290000Y-42610000D02*
X73790000Y-42610000D01*
X76290000Y-42610000D02*
X76290000Y-46810000D01*
X76290000Y-50410000D02*
X76290000Y-54610000D01*
X78290000Y-46810000D02*
X78290000Y-50410000D01*
X78290000Y-50410000D02*
X74290000Y-46810000D01*
X78290000Y-50410000D02*
X74290000Y-50410000D01*
X79690000Y-48610000D02*
X79690000Y-52210000D01*
X79690000Y-48610000D02*
X81190000Y-48610000D01*
X79690000Y-52210000D02*
X72890000Y-52210000D01*
X81190000Y-48610000D02*
X85790000Y-46110000D01*
X84390000Y-44360000D02*
X84390000Y-46860000D01*
X84390000Y-52760000D02*
X84390000Y-50310000D01*
X88640000Y-40760000D02*
X88640000Y-56360000D01*
X88640000Y-56360000D02*
X68840000Y-56360000D01*
%TO.C,J21*%
X118168171Y-85663340D02*
X118168171Y-84283340D01*
X119548171Y-85663340D02*
X118168171Y-85663340D01*
X120818171Y-82903340D02*
X138708171Y-82903340D01*
X120818171Y-85663340D02*
X120818171Y-82903340D01*
X120818171Y-85663340D02*
X138708171Y-85663340D01*
X138708171Y-85663340D02*
X138708171Y-82903340D01*
%TO.C,R16*%
X185291600Y-72186800D02*
X186061600Y-72186800D01*
X193371600Y-72186800D02*
X192601600Y-72186800D01*
X186061600Y-70816800D02*
X192601600Y-70816800D01*
X192601600Y-73556800D01*
X186061600Y-73556800D01*
X186061600Y-70816800D01*
%TO.C,J19*%
X68870000Y-124430800D02*
X70250000Y-124430800D01*
X68870000Y-125810800D02*
X68870000Y-124430800D01*
X68870000Y-127080800D02*
X68870000Y-132270800D01*
X68870000Y-127080800D02*
X71630000Y-127080800D01*
X68870000Y-132270800D02*
X71630000Y-132270800D01*
X71630000Y-127080800D02*
X71630000Y-132270800D01*
%TO.C,Q2*%
X85212800Y-75155200D02*
X85212800Y-71555200D01*
X80762800Y-73355200D02*
G75*
G02*
X85201278Y-71516722I2600000J0D01*
G01*
X85201278Y-75193678D02*
G75*
G02*
X80762799Y-73355200I-1838478J1838478D01*
G01*
%TO.C,R15*%
X114781200Y-76200000D02*
X115551200Y-76200000D01*
X122861200Y-76200000D02*
X122091200Y-76200000D01*
X115551200Y-74830000D02*
X122091200Y-74830000D01*
X122091200Y-77570000D01*
X115551200Y-77570000D01*
X115551200Y-74830000D01*
%TO.C,J4*%
X185366274Y-40885763D02*
X195406274Y-40885763D01*
X185366274Y-56365763D02*
X185366274Y-40885763D01*
X188386274Y-56365763D02*
X188386274Y-40885763D01*
X193286274Y-56365763D02*
X193286274Y-40885763D01*
X194786274Y-56365763D02*
X194786274Y-40885763D01*
X195406274Y-40885763D02*
X195406274Y-53405763D01*
X195406274Y-54005763D02*
X195406274Y-56365763D01*
X195406274Y-56365763D02*
X185366274Y-56365763D01*
X195406274Y-53705763D02*
X196016274Y-53265763D01*
X196016274Y-54145763D01*
X195406274Y-53705763D01*
G36*
X196016274Y-54145763D02*
G01*
X195406274Y-53705763D01*
X196016274Y-53265763D01*
X196016274Y-54145763D01*
G37*
%TO.C,D11*%
X185134400Y-144296400D02*
X186154400Y-144296400D01*
X186934400Y-142826400D02*
X186934400Y-145766400D01*
X187054400Y-142826400D02*
X187054400Y-145766400D01*
X187174400Y-142826400D02*
X187174400Y-145766400D01*
X192614400Y-144296400D02*
X191594400Y-144296400D01*
X186154400Y-142826400D02*
X191594400Y-142826400D01*
X191594400Y-145766400D01*
X186154400Y-145766400D01*
X186154400Y-142826400D01*
%TO.C,R6*%
X74960000Y-107100800D02*
X75730000Y-107100800D01*
X83040000Y-107100800D02*
X82270000Y-107100800D01*
X75730000Y-105730800D02*
X82270000Y-105730800D01*
X82270000Y-108470800D01*
X75730000Y-108470800D01*
X75730000Y-105730800D01*
%TO.C,J17*%
X172791274Y-41538263D02*
X180231274Y-41538263D01*
X172791274Y-51578263D02*
X172791274Y-41538263D01*
X180831274Y-41538263D02*
X183191274Y-41538263D01*
X183191274Y-41538263D02*
X183191274Y-51578263D01*
X183191274Y-42158263D02*
X172791274Y-42158263D01*
X183191274Y-43658263D02*
X172791274Y-43658263D01*
X183191274Y-48558263D02*
X172791274Y-48558263D01*
X183191274Y-51578263D02*
X172791274Y-51578263D01*
X180531274Y-41538263D02*
X180091274Y-40928263D01*
X180971274Y-40928263D01*
X180531274Y-41538263D01*
G36*
X180531274Y-41538263D02*
G01*
X180091274Y-40928263D01*
X180971274Y-40928263D01*
X180531274Y-41538263D01*
G37*
%TO.C,F2*%
X148946274Y-68875763D02*
X148946274Y-46155763D01*
X152106274Y-46155763D02*
X148946274Y-46155763D01*
X152106274Y-68875763D02*
X148946274Y-68875763D01*
X158766274Y-46155763D02*
X155606274Y-46155763D01*
X158766274Y-68875763D02*
X155606274Y-68875763D01*
X158766274Y-68875763D02*
X158766274Y-46155763D01*
%TO.C,R11*%
X74710000Y-119350800D02*
X75480000Y-119350800D01*
X82790000Y-119350800D02*
X82020000Y-119350800D01*
X75480000Y-117980800D02*
X82020000Y-117980800D01*
X82020000Y-120720800D01*
X75480000Y-120720800D01*
X75480000Y-117980800D01*
%TO.C,LEsp32*%
X106721600Y-112055600D02*
X106721600Y-114715600D01*
X152501600Y-112055600D02*
X106721600Y-112055600D01*
X152501600Y-112055600D02*
X152501600Y-114715600D01*
X152501600Y-114715600D02*
X106721600Y-114715600D01*
X155101600Y-113385600D02*
X155101600Y-114715600D01*
X155101600Y-114715600D02*
X153771600Y-114715600D01*
%TO.C,R13*%
X88111200Y-75031600D02*
X88881200Y-75031600D01*
X96191200Y-75031600D02*
X95421200Y-75031600D01*
X88881200Y-73661600D02*
X95421200Y-73661600D01*
X95421200Y-76401600D01*
X88881200Y-76401600D01*
X88881200Y-73661600D01*
%TO.C,J16*%
X129207677Y-41227677D02*
X136647677Y-41227677D01*
X129207677Y-51267677D02*
X129207677Y-41227677D01*
X137247677Y-41227677D02*
X139607677Y-41227677D01*
X139607677Y-41227677D02*
X139607677Y-51267677D01*
X139607677Y-41847677D02*
X129207677Y-41847677D01*
X139607677Y-43347677D02*
X129207677Y-43347677D01*
X139607677Y-48247677D02*
X129207677Y-48247677D01*
X139607677Y-51267677D02*
X129207677Y-51267677D01*
X136947677Y-41227677D02*
X136507677Y-40617677D01*
X137387677Y-40617677D01*
X136947677Y-41227677D01*
G36*
X136947677Y-41227677D02*
G01*
X136507677Y-40617677D01*
X137387677Y-40617677D01*
X136947677Y-41227677D01*
G37*
%TO.C,J9*%
X76376000Y-146622800D02*
X76376000Y-145242800D01*
X77756000Y-146622800D02*
X76376000Y-146622800D01*
X79026000Y-143862800D02*
X84216000Y-143862800D01*
X79026000Y-146622800D02*
X79026000Y-143862800D01*
X79026000Y-146622800D02*
X84216000Y-146622800D01*
X84216000Y-146622800D02*
X84216000Y-143862800D01*
%TO.C,J5*%
X94276400Y-120438400D02*
X95656400Y-120438400D01*
X94276400Y-121818400D02*
X94276400Y-120438400D01*
X94276400Y-123088400D02*
X94276400Y-130818400D01*
X94276400Y-123088400D02*
X97036400Y-123088400D01*
X94276400Y-130818400D02*
X97036400Y-130818400D01*
X97036400Y-123088400D02*
X97036400Y-130818400D01*
%TO.C,R21*%
X176730000Y-137559600D02*
X176730000Y-138329600D01*
X176730000Y-145639600D02*
X176730000Y-144869600D01*
X175360000Y-138329600D02*
X178100000Y-138329600D01*
X178100000Y-144869600D01*
X175360000Y-144869600D01*
X175360000Y-138329600D01*
%TO.C,R4*%
X74960000Y-102100800D02*
X75730000Y-102100800D01*
X83040000Y-102100800D02*
X82270000Y-102100800D01*
X75730000Y-100730800D02*
X82270000Y-100730800D01*
X82270000Y-103470800D01*
X75730000Y-103470800D01*
X75730000Y-100730800D01*
%TO.C,R19*%
X172990000Y-137689600D02*
X172990000Y-138459600D01*
X172990000Y-145769600D02*
X172990000Y-144999600D01*
X171620000Y-138459600D02*
X174360000Y-138459600D01*
X174360000Y-144999600D01*
X171620000Y-144999600D01*
X171620000Y-138459600D01*
%TO.C,R12*%
X74960000Y-114350800D02*
X75730000Y-114350800D01*
X83040000Y-114350800D02*
X82270000Y-114350800D01*
X75730000Y-112980800D02*
X82270000Y-112980800D01*
X82270000Y-115720800D01*
X75730000Y-115720800D01*
X75730000Y-112980800D01*
%TO.C,D1*%
X175140000Y-101010000D02*
X178080000Y-101010000D01*
X175140000Y-101130000D02*
X178080000Y-101130000D01*
X175140000Y-101250000D02*
X178080000Y-101250000D01*
X176610000Y-95570000D02*
X176610000Y-96590000D01*
X176610000Y-103050000D02*
X176610000Y-102030000D01*
X175140000Y-96590000D02*
X178080000Y-96590000D01*
X178080000Y-102030000D01*
X175140000Y-102030000D01*
X175140000Y-96590000D01*
%TO.C,R10*%
X127117370Y-90905200D02*
X127117370Y-91675200D01*
X127117370Y-98985200D02*
X127117370Y-98215200D01*
X125747370Y-91675200D02*
X128487370Y-91675200D01*
X128487370Y-98215200D01*
X125747370Y-98215200D01*
X125747370Y-91675200D01*
%TO.C,R8*%
X88212800Y-71729600D02*
X88982800Y-71729600D01*
X96292800Y-71729600D02*
X95522800Y-71729600D01*
X88982800Y-70359600D02*
X95522800Y-70359600D01*
X95522800Y-73099600D01*
X88982800Y-73099600D01*
X88982800Y-70359600D01*
%TO.C,J20*%
X189620000Y-82750000D02*
X189620000Y-80100000D01*
X192380000Y-80100000D02*
X189620000Y-80100000D01*
X192380000Y-82750000D02*
X189620000Y-82750000D01*
X192380000Y-82750000D02*
X192380000Y-80100000D01*
X192380000Y-84020000D02*
X192380000Y-85400000D01*
X192380000Y-85400000D02*
X191000000Y-85400000D01*
%TO.C,K5*%
X160466274Y-53525763D02*
X160466274Y-60125763D01*
X160466274Y-53525763D02*
X180266274Y-53525763D01*
X160466274Y-62525763D02*
X160466274Y-69125763D01*
X164516274Y-61375763D02*
X163716274Y-61375763D01*
X164516274Y-61375763D02*
X164516274Y-64975763D01*
X165416274Y-67375763D02*
X167916274Y-67375763D01*
X165916274Y-59575763D02*
X169916274Y-59575763D01*
X165916274Y-63175763D02*
X165916274Y-59575763D01*
X167916274Y-55375763D02*
X165416274Y-55375763D01*
X167916274Y-55375763D02*
X167916274Y-59575763D01*
X167916274Y-63175763D02*
X167916274Y-67375763D01*
X169916274Y-59575763D02*
X169916274Y-63175763D01*
X169916274Y-63175763D02*
X165916274Y-59575763D01*
X169916274Y-63175763D02*
X165916274Y-63175763D01*
X171316274Y-61375763D02*
X171316274Y-64975763D01*
X171316274Y-61375763D02*
X172816274Y-61375763D01*
X171316274Y-64975763D02*
X164516274Y-64975763D01*
X172816274Y-61375763D02*
X177416274Y-58875763D01*
X176016274Y-57125763D02*
X176016274Y-59625763D01*
X176016274Y-65525763D02*
X176016274Y-63075763D01*
X180266274Y-53525763D02*
X180266274Y-69125763D01*
X180266274Y-69125763D02*
X160466274Y-69125763D01*
%TO.C,J14*%
X184722800Y-117969000D02*
X194762800Y-117969000D01*
X184722800Y-128369000D02*
X184722800Y-117969000D01*
X187742800Y-128369000D02*
X187742800Y-117969000D01*
X192642800Y-128369000D02*
X192642800Y-117969000D01*
X194142800Y-128369000D02*
X194142800Y-117969000D01*
X194762800Y-117969000D02*
X194762800Y-125409000D01*
X194762800Y-126009000D02*
X194762800Y-128369000D01*
X194762800Y-128369000D02*
X184722800Y-128369000D01*
X194762800Y-125709000D02*
X195372800Y-125269000D01*
X195372800Y-126149000D01*
X194762800Y-125709000D01*
G36*
X195372800Y-126149000D02*
G01*
X194762800Y-125709000D01*
X195372800Y-125269000D01*
X195372800Y-126149000D01*
G37*
%TO.C,C2*%
X92160800Y-60773200D02*
X92497800Y-60773200D01*
X92160800Y-66013200D02*
X92160800Y-60773200D01*
X92497800Y-66013200D02*
X92160800Y-66013200D01*
X94563800Y-60773200D02*
X94900800Y-60773200D01*
X94900800Y-60773200D02*
X94900800Y-66013200D01*
X94900800Y-66013200D02*
X94563800Y-66013200D01*
%TO.C,R7*%
X114675719Y-90911340D02*
X114675719Y-91681340D01*
X114675719Y-98991340D02*
X114675719Y-98221340D01*
X113305719Y-91681340D02*
X116045719Y-91681340D01*
X116045719Y-98221340D01*
X113305719Y-98221340D01*
X113305719Y-91681340D01*
%TO.C,R20*%
X133146800Y-90905200D02*
X133146800Y-91675200D01*
X133146800Y-98985200D02*
X133146800Y-98215200D01*
X131776800Y-91675200D02*
X134516800Y-91675200D01*
X134516800Y-98215200D01*
X131776800Y-98215200D01*
X131776800Y-91675200D01*
%TO.C,D14*%
X181596274Y-65565763D02*
X184536274Y-65565763D01*
X181596274Y-65685763D02*
X184536274Y-65685763D01*
X181596274Y-65805763D02*
X184536274Y-65805763D01*
X183066274Y-60125763D02*
X183066274Y-61145763D01*
X183066274Y-67605763D02*
X183066274Y-66585763D01*
X181596274Y-61145763D02*
X184536274Y-61145763D01*
X184536274Y-66585763D01*
X181596274Y-66585763D01*
X181596274Y-61145763D01*
%TO.C,4.7kom1*%
X75716000Y-139242800D02*
X76486000Y-139242800D01*
X83796000Y-139242800D02*
X83026000Y-139242800D01*
X76486000Y-137872800D02*
X83026000Y-137872800D01*
X83026000Y-140612800D01*
X76486000Y-140612800D01*
X76486000Y-137872800D01*
%TO.C,J8*%
X68664903Y-112890800D02*
X70044903Y-112890800D01*
X68664903Y-114270800D02*
X68664903Y-112890800D01*
X68664903Y-115540800D02*
X68664903Y-120730800D01*
X68664903Y-115540800D02*
X71424903Y-115540800D01*
X68664903Y-120730800D02*
X71424903Y-120730800D01*
X71424903Y-115540800D02*
X71424903Y-120730800D01*
%TO.C,J12*%
X111607677Y-41182677D02*
X124127677Y-41182677D01*
X111607677Y-51222677D02*
X111607677Y-41182677D01*
X124727677Y-41182677D02*
X127087677Y-41182677D01*
X127087677Y-41182677D02*
X127087677Y-51222677D01*
X127087677Y-41802677D02*
X111607677Y-41802677D01*
X127087677Y-43302677D02*
X111607677Y-43302677D01*
X127087677Y-48202677D02*
X111607677Y-48202677D01*
X127087677Y-51222677D02*
X111607677Y-51222677D01*
X124427677Y-41182677D02*
X123987677Y-40572677D01*
X124867677Y-40572677D01*
X124427677Y-41182677D01*
G36*
X124427677Y-41182677D02*
G01*
X123987677Y-40572677D01*
X124867677Y-40572677D01*
X124427677Y-41182677D01*
G37*
%TO.C,J7*%
X68620000Y-106370800D02*
X68620000Y-101180800D01*
X71380000Y-101180800D02*
X68620000Y-101180800D01*
X71380000Y-106370800D02*
X68620000Y-106370800D01*
X71380000Y-106370800D02*
X71380000Y-101180800D01*
X71380000Y-107640800D02*
X71380000Y-109020800D01*
X71380000Y-109020800D02*
X70000000Y-109020800D01*
%TO.C,D9*%
X92780000Y-54610000D02*
X93800000Y-54610000D01*
X94580000Y-53140000D02*
X94580000Y-56080000D01*
X94700000Y-53140000D02*
X94700000Y-56080000D01*
X94820000Y-53140000D02*
X94820000Y-56080000D01*
X100260000Y-54610000D02*
X99240000Y-54610000D01*
X93800000Y-53140000D02*
X99240000Y-53140000D01*
X99240000Y-56080000D01*
X93800000Y-56080000D01*
X93800000Y-53140000D01*
%TO.C,F1*%
X173347200Y-131272400D02*
X173347200Y-108552400D01*
X176507200Y-108552400D02*
X173347200Y-108552400D01*
X176507200Y-131272400D02*
X173347200Y-131272400D01*
X183167200Y-108552400D02*
X180007200Y-108552400D01*
X183167200Y-131272400D02*
X180007200Y-131272400D01*
X183167200Y-131272400D02*
X183167200Y-108552400D01*
%TO.C,C9*%
X175420000Y-84053000D02*
X175420000Y-83487000D01*
X175460000Y-84287000D02*
X175460000Y-83253000D01*
X175500000Y-84447000D02*
X175500000Y-83093000D01*
X175540000Y-84575000D02*
X175540000Y-82965000D01*
X175580000Y-84684000D02*
X175580000Y-82856000D01*
X175620000Y-84781000D02*
X175620000Y-82759000D01*
X175660000Y-84868000D02*
X175660000Y-82672000D01*
X175700000Y-84947000D02*
X175700000Y-82593000D01*
X175740000Y-85021000D02*
X175740000Y-82519000D01*
X175780000Y-85089000D02*
X175780000Y-82451000D01*
X175820000Y-85153000D02*
X175820000Y-82387000D01*
X175860000Y-85213000D02*
X175860000Y-82327000D01*
X175900000Y-85269000D02*
X175900000Y-82271000D01*
X175940000Y-85323000D02*
X175940000Y-82217000D01*
X175980000Y-85374000D02*
X175980000Y-82166000D01*
X176020000Y-82730000D02*
X176020000Y-82118000D01*
X176020000Y-85422000D02*
X176020000Y-84810000D01*
X176060000Y-82730000D02*
X176060000Y-82071000D01*
X176060000Y-85469000D02*
X176060000Y-84810000D01*
X176100000Y-82730000D02*
X176100000Y-82027000D01*
X176100000Y-85513000D02*
X176100000Y-84810000D01*
X176140000Y-82730000D02*
X176140000Y-81985000D01*
X176140000Y-85555000D02*
X176140000Y-84810000D01*
X176180000Y-82730000D02*
X176180000Y-81945000D01*
X176180000Y-85595000D02*
X176180000Y-84810000D01*
X176220000Y-82730000D02*
X176220000Y-81906000D01*
X176220000Y-85634000D02*
X176220000Y-84810000D01*
X176260000Y-82730000D02*
X176260000Y-81869000D01*
X176260000Y-85671000D02*
X176260000Y-84810000D01*
X176300000Y-82730000D02*
X176300000Y-81834000D01*
X176300000Y-85706000D02*
X176300000Y-84810000D01*
X176340000Y-82730000D02*
X176340000Y-81800000D01*
X176340000Y-85740000D02*
X176340000Y-84810000D01*
X176380000Y-82730000D02*
X176380000Y-81767000D01*
X176380000Y-85773000D02*
X176380000Y-84810000D01*
X176420000Y-82730000D02*
X176420000Y-81735000D01*
X176420000Y-85805000D02*
X176420000Y-84810000D01*
X176460000Y-82730000D02*
X176460000Y-81705000D01*
X176460000Y-85835000D02*
X176460000Y-84810000D01*
X176500000Y-82730000D02*
X176500000Y-81676000D01*
X176500000Y-85864000D02*
X176500000Y-84810000D01*
X176540000Y-82730000D02*
X176540000Y-81648000D01*
X176540000Y-85892000D02*
X176540000Y-84810000D01*
X176580000Y-82730000D02*
X176580000Y-81621000D01*
X176580000Y-85919000D02*
X176580000Y-84810000D01*
X176620000Y-82730000D02*
X176620000Y-81595000D01*
X176620000Y-85945000D02*
X176620000Y-84810000D01*
X176660000Y-82730000D02*
X176660000Y-81571000D01*
X176660000Y-85969000D02*
X176660000Y-84810000D01*
X176700000Y-82730000D02*
X176700000Y-81547000D01*
X176700000Y-85993000D02*
X176700000Y-84810000D01*
X176740000Y-82730000D02*
X176740000Y-81524000D01*
X176740000Y-86016000D02*
X176740000Y-84810000D01*
X176780000Y-82730000D02*
X176780000Y-81502000D01*
X176780000Y-86038000D02*
X176780000Y-84810000D01*
X176820000Y-82730000D02*
X176820000Y-81481000D01*
X176820000Y-86059000D02*
X176820000Y-84810000D01*
X176860000Y-82730000D02*
X176860000Y-81461000D01*
X176860000Y-86079000D02*
X176860000Y-84810000D01*
X176900000Y-82730000D02*
X176900000Y-81441000D01*
X176900000Y-86099000D02*
X176900000Y-84810000D01*
X176940000Y-82730000D02*
X176940000Y-81423000D01*
X176940000Y-86117000D02*
X176940000Y-84810000D01*
X176980000Y-82730000D02*
X176980000Y-81405000D01*
X176980000Y-86135000D02*
X176980000Y-84810000D01*
X177020000Y-82730000D02*
X177020000Y-81388000D01*
X177020000Y-86152000D02*
X177020000Y-84810000D01*
X177060000Y-82730000D02*
X177060000Y-81372000D01*
X177060000Y-86168000D02*
X177060000Y-84810000D01*
X177100000Y-82730000D02*
X177100000Y-81357000D01*
X177100000Y-86183000D02*
X177100000Y-84810000D01*
X177140000Y-82730000D02*
X177140000Y-81342000D01*
X177140000Y-86198000D02*
X177140000Y-84810000D01*
X177180000Y-82730000D02*
X177180000Y-81328000D01*
X177180000Y-86212000D02*
X177180000Y-84810000D01*
X177220000Y-82730000D02*
X177220000Y-81315000D01*
X177220000Y-86225000D02*
X177220000Y-84810000D01*
X177260000Y-82730000D02*
X177260000Y-81303000D01*
X177260000Y-86237000D02*
X177260000Y-84810000D01*
X177300000Y-82730000D02*
X177300000Y-81291000D01*
X177300000Y-86249000D02*
X177300000Y-84810000D01*
X177340000Y-82730000D02*
X177340000Y-81280000D01*
X177340000Y-86260000D02*
X177340000Y-84810000D01*
X177380000Y-82730000D02*
X177380000Y-81269000D01*
X177380000Y-86271000D02*
X177380000Y-84810000D01*
X177420000Y-82730000D02*
X177420000Y-81260000D01*
X177420000Y-86280000D02*
X177420000Y-84810000D01*
X177460000Y-82730000D02*
X177460000Y-81251000D01*
X177460000Y-86289000D02*
X177460000Y-84810000D01*
X177500000Y-82730000D02*
X177500000Y-81242000D01*
X177500000Y-86298000D02*
X177500000Y-84810000D01*
X177540000Y-82730000D02*
X177540000Y-81234000D01*
X177540000Y-86306000D02*
X177540000Y-84810000D01*
X177580000Y-82730000D02*
X177580000Y-81227000D01*
X177580000Y-86313000D02*
X177580000Y-84810000D01*
X177620000Y-82730000D02*
X177620000Y-81221000D01*
X177620000Y-86319000D02*
X177620000Y-84810000D01*
X177660000Y-82730000D02*
X177660000Y-81215000D01*
X177660000Y-86325000D02*
X177660000Y-84810000D01*
X177700000Y-82730000D02*
X177700000Y-81210000D01*
X177700000Y-86330000D02*
X177700000Y-84810000D01*
X177740000Y-82730000D02*
X177740000Y-81205000D01*
X177740000Y-86335000D02*
X177740000Y-84810000D01*
X177780000Y-82730000D02*
X177780000Y-81201000D01*
X177780000Y-86339000D02*
X177780000Y-84810000D01*
X177820000Y-82730000D02*
X177820000Y-81198000D01*
X177820000Y-86342000D02*
X177820000Y-84810000D01*
X177860000Y-82730000D02*
X177860000Y-81195000D01*
X177860000Y-86345000D02*
X177860000Y-84810000D01*
X177900000Y-82730000D02*
X177900000Y-81193000D01*
X177900000Y-86347000D02*
X177900000Y-84810000D01*
X177940000Y-82730000D02*
X177940000Y-81191000D01*
X177940000Y-86349000D02*
X177940000Y-84810000D01*
X177980000Y-82730000D02*
X177980000Y-81190000D01*
X177980000Y-86350000D02*
X177980000Y-84810000D01*
X178020000Y-82730000D02*
X178020000Y-81190000D01*
X178020000Y-86350000D02*
X178020000Y-84810000D01*
X180574775Y-85495000D02*
X180574775Y-84995000D01*
X180824775Y-85245000D02*
X180324775Y-85245000D01*
X180640000Y-83770000D02*
G75*
G02*
X175400000Y-83770000I-2620000J0D01*
G01*
X175400000Y-83770000D02*
G75*
G02*
X180640000Y-83770000I2620000J0D01*
G01*
%TO.C,C4*%
X153630000Y-108256400D02*
X158870000Y-108256400D01*
X153630000Y-108593400D02*
X153630000Y-108256400D01*
X153630000Y-110996400D02*
X153630000Y-110659400D01*
X158870000Y-108256400D02*
X158870000Y-108593400D01*
X158870000Y-110659400D02*
X158870000Y-110996400D01*
X158870000Y-110996400D02*
X153630000Y-110996400D01*
%TO.C,SW1*%
X88093600Y-141932400D02*
X88093600Y-143432400D01*
X89343600Y-145932400D02*
X93843600Y-145932400D01*
X93843600Y-139432400D02*
X89343600Y-139432400D01*
X95093600Y-143432400D02*
X95093600Y-141932400D01*
%TO.C,C6*%
X101270000Y-72739000D02*
X101270000Y-71541000D01*
X101310000Y-73002000D02*
X101310000Y-71278000D01*
X101350000Y-73202000D02*
X101350000Y-71078000D01*
X101390000Y-73370000D02*
X101390000Y-70910000D01*
X101430000Y-73517000D02*
X101430000Y-70763000D01*
X101470000Y-73649000D02*
X101470000Y-70631000D01*
X101510000Y-73770000D02*
X101510000Y-70510000D01*
X101550000Y-73882000D02*
X101550000Y-70398000D01*
X101590000Y-73986000D02*
X101590000Y-70294000D01*
X101630000Y-74084000D02*
X101630000Y-70196000D01*
X101670000Y-74177000D02*
X101670000Y-70103000D01*
X101710000Y-74264000D02*
X101710000Y-70016000D01*
X101750000Y-74348000D02*
X101750000Y-69932000D01*
X101790000Y-74428000D02*
X101790000Y-69852000D01*
X101830000Y-74505000D02*
X101830000Y-69775000D01*
X101870000Y-74579000D02*
X101870000Y-69701000D01*
X101910000Y-74650000D02*
X101910000Y-69630000D01*
X101950000Y-74718000D02*
X101950000Y-69562000D01*
X101990000Y-74784000D02*
X101990000Y-69496000D01*
X102030000Y-74848000D02*
X102030000Y-69432000D01*
X102070000Y-74910000D02*
X102070000Y-69370000D01*
X102110000Y-74970000D02*
X102110000Y-69310000D01*
X102150000Y-75028000D02*
X102150000Y-69252000D01*
X102190000Y-75085000D02*
X102190000Y-69195000D01*
X102230000Y-75140000D02*
X102230000Y-69140000D01*
X102270000Y-75193000D02*
X102270000Y-69087000D01*
X102310000Y-75245000D02*
X102310000Y-69035000D01*
X102350000Y-75296000D02*
X102350000Y-68984000D01*
X102390000Y-75345000D02*
X102390000Y-68935000D01*
X102430000Y-75394000D02*
X102430000Y-68886000D01*
X102470000Y-75441000D02*
X102470000Y-68839000D01*
X102510000Y-75487000D02*
X102510000Y-68793000D01*
X102550000Y-75531000D02*
X102550000Y-68749000D01*
X102590000Y-75575000D02*
X102590000Y-68705000D01*
X102630000Y-70900000D02*
X102630000Y-68662000D01*
X102630000Y-75618000D02*
X102630000Y-73380000D01*
X102670000Y-70900000D02*
X102670000Y-68620000D01*
X102670000Y-75660000D02*
X102670000Y-73380000D01*
X102710000Y-70900000D02*
X102710000Y-68579000D01*
X102710000Y-75701000D02*
X102710000Y-73380000D01*
X102750000Y-70900000D02*
X102750000Y-68539000D01*
X102750000Y-75741000D02*
X102750000Y-73380000D01*
X102790000Y-70900000D02*
X102790000Y-68500000D01*
X102790000Y-75780000D02*
X102790000Y-73380000D01*
X102830000Y-70900000D02*
X102830000Y-68462000D01*
X102830000Y-75818000D02*
X102830000Y-73380000D01*
X102870000Y-70900000D02*
X102870000Y-68424000D01*
X102870000Y-75856000D02*
X102870000Y-73380000D01*
X102910000Y-70900000D02*
X102910000Y-68388000D01*
X102910000Y-75892000D02*
X102910000Y-73380000D01*
X102950000Y-70900000D02*
X102950000Y-68352000D01*
X102950000Y-75928000D02*
X102950000Y-73380000D01*
X102990000Y-70900000D02*
X102990000Y-68317000D01*
X102990000Y-75963000D02*
X102990000Y-73380000D01*
X103030000Y-70900000D02*
X103030000Y-68282000D01*
X103030000Y-75998000D02*
X103030000Y-73380000D01*
X103070000Y-70900000D02*
X103070000Y-68249000D01*
X103070000Y-76031000D02*
X103070000Y-73380000D01*
X103110000Y-70900000D02*
X103110000Y-68216000D01*
X103110000Y-76064000D02*
X103110000Y-73380000D01*
X103150000Y-70900000D02*
X103150000Y-68183000D01*
X103150000Y-76097000D02*
X103150000Y-73380000D01*
X103190000Y-70900000D02*
X103190000Y-68152000D01*
X103190000Y-76128000D02*
X103190000Y-73380000D01*
X103230000Y-70900000D02*
X103230000Y-68120000D01*
X103230000Y-76160000D02*
X103230000Y-73380000D01*
X103270000Y-70900000D02*
X103270000Y-68090000D01*
X103270000Y-76190000D02*
X103270000Y-73380000D01*
X103310000Y-70900000D02*
X103310000Y-68060000D01*
X103310000Y-76220000D02*
X103310000Y-73380000D01*
X103350000Y-70900000D02*
X103350000Y-68031000D01*
X103350000Y-76249000D02*
X103350000Y-73380000D01*
X103390000Y-70900000D02*
X103390000Y-68002000D01*
X103390000Y-76278000D02*
X103390000Y-73380000D01*
X103430000Y-70900000D02*
X103430000Y-67974000D01*
X103430000Y-76306000D02*
X103430000Y-73380000D01*
X103470000Y-70900000D02*
X103470000Y-67947000D01*
X103470000Y-76333000D02*
X103470000Y-73380000D01*
X103510000Y-70900000D02*
X103510000Y-67920000D01*
X103510000Y-76360000D02*
X103510000Y-73380000D01*
X103550000Y-70900000D02*
X103550000Y-67893000D01*
X103550000Y-76387000D02*
X103550000Y-73380000D01*
X103590000Y-70900000D02*
X103590000Y-67868000D01*
X103590000Y-76412000D02*
X103590000Y-73380000D01*
X103630000Y-70900000D02*
X103630000Y-67842000D01*
X103630000Y-76438000D02*
X103630000Y-73380000D01*
X103670000Y-70900000D02*
X103670000Y-67817000D01*
X103670000Y-76463000D02*
X103670000Y-73380000D01*
X103710000Y-70900000D02*
X103710000Y-67793000D01*
X103710000Y-76487000D02*
X103710000Y-73380000D01*
X103750000Y-70900000D02*
X103750000Y-67769000D01*
X103750000Y-76511000D02*
X103750000Y-73380000D01*
X103790000Y-70900000D02*
X103790000Y-67746000D01*
X103790000Y-76534000D02*
X103790000Y-73380000D01*
X103830000Y-70900000D02*
X103830000Y-67723000D01*
X103830000Y-76557000D02*
X103830000Y-73380000D01*
X103870000Y-70900000D02*
X103870000Y-67701000D01*
X103870000Y-76579000D02*
X103870000Y-73380000D01*
X103910000Y-70900000D02*
X103910000Y-67679000D01*
X103910000Y-76601000D02*
X103910000Y-73380000D01*
X103950000Y-70900000D02*
X103950000Y-67657000D01*
X103950000Y-76623000D02*
X103950000Y-73380000D01*
X103990000Y-70900000D02*
X103990000Y-67636000D01*
X103990000Y-76644000D02*
X103990000Y-73380000D01*
X104030000Y-70900000D02*
X104030000Y-67616000D01*
X104030000Y-76664000D02*
X104030000Y-73380000D01*
X104070000Y-70900000D02*
X104070000Y-67596000D01*
X104070000Y-76684000D02*
X104070000Y-73380000D01*
X104110000Y-70900000D02*
X104110000Y-67576000D01*
X104110000Y-76704000D02*
X104110000Y-73380000D01*
X104150000Y-70900000D02*
X104150000Y-67557000D01*
X104150000Y-76723000D02*
X104150000Y-73380000D01*
X104190000Y-70900000D02*
X104190000Y-67538000D01*
X104190000Y-76742000D02*
X104190000Y-73380000D01*
X104230000Y-70900000D02*
X104230000Y-67520000D01*
X104230000Y-76760000D02*
X104230000Y-73380000D01*
X104270000Y-70900000D02*
X104270000Y-67502000D01*
X104270000Y-76778000D02*
X104270000Y-73380000D01*
X104310000Y-70900000D02*
X104310000Y-67484000D01*
X104310000Y-76796000D02*
X104310000Y-73380000D01*
X104350000Y-70900000D02*
X104350000Y-67467000D01*
X104350000Y-76813000D02*
X104350000Y-73380000D01*
X104390000Y-70900000D02*
X104390000Y-67450000D01*
X104390000Y-76830000D02*
X104390000Y-73380000D01*
X104430000Y-70900000D02*
X104430000Y-67434000D01*
X104430000Y-76846000D02*
X104430000Y-73380000D01*
X104470000Y-70900000D02*
X104470000Y-67418000D01*
X104470000Y-76862000D02*
X104470000Y-73380000D01*
X104510000Y-70900000D02*
X104510000Y-67402000D01*
X104510000Y-76878000D02*
X104510000Y-73380000D01*
X104550000Y-70900000D02*
X104550000Y-67387000D01*
X104550000Y-76893000D02*
X104550000Y-73380000D01*
X104590000Y-70900000D02*
X104590000Y-67372000D01*
X104590000Y-76908000D02*
X104590000Y-73380000D01*
X104630000Y-70900000D02*
X104630000Y-67358000D01*
X104630000Y-76922000D02*
X104630000Y-73380000D01*
X104670000Y-70900000D02*
X104670000Y-67343000D01*
X104670000Y-76937000D02*
X104670000Y-73380000D01*
X104710000Y-70900000D02*
X104710000Y-67330000D01*
X104710000Y-76950000D02*
X104710000Y-73380000D01*
X104750000Y-70900000D02*
X104750000Y-67316000D01*
X104750000Y-76964000D02*
X104750000Y-73380000D01*
X104790000Y-70900000D02*
X104790000Y-67303000D01*
X104790000Y-76977000D02*
X104790000Y-73380000D01*
X104830000Y-70900000D02*
X104830000Y-67291000D01*
X104830000Y-76989000D02*
X104830000Y-73380000D01*
X104870000Y-70900000D02*
X104870000Y-67279000D01*
X104870000Y-77001000D02*
X104870000Y-73380000D01*
X104910000Y-70900000D02*
X104910000Y-67267000D01*
X104910000Y-77013000D02*
X104910000Y-73380000D01*
X104950000Y-70900000D02*
X104950000Y-67255000D01*
X104950000Y-77025000D02*
X104950000Y-73380000D01*
X104990000Y-70900000D02*
X104990000Y-67244000D01*
X104990000Y-77036000D02*
X104990000Y-73380000D01*
X105030000Y-70900000D02*
X105030000Y-67233000D01*
X105030000Y-77047000D02*
X105030000Y-73380000D01*
X105070000Y-70900000D02*
X105070000Y-67223000D01*
X105070000Y-77057000D02*
X105070000Y-73380000D01*
X105110000Y-77068000D02*
X105110000Y-67212000D01*
X105150000Y-77077000D02*
X105150000Y-67203000D01*
X105190000Y-77087000D02*
X105190000Y-67193000D01*
X105230000Y-77096000D02*
X105230000Y-67184000D01*
X105270000Y-77105000D02*
X105270000Y-67175000D01*
X105310000Y-77113000D02*
X105310000Y-67167000D01*
X105350000Y-77121000D02*
X105350000Y-67159000D01*
X105390000Y-77129000D02*
X105390000Y-67151000D01*
X105430000Y-77137000D02*
X105430000Y-67143000D01*
X105470000Y-77144000D02*
X105470000Y-67136000D01*
X105510000Y-77151000D02*
X105510000Y-67129000D01*
X105550000Y-77157000D02*
X105550000Y-67123000D01*
X105590000Y-77163000D02*
X105590000Y-67117000D01*
X105630000Y-77169000D02*
X105630000Y-67111000D01*
X105670000Y-77175000D02*
X105670000Y-67105000D01*
X105710000Y-77180000D02*
X105710000Y-67100000D01*
X105750000Y-77185000D02*
X105750000Y-67095000D01*
X105790000Y-77189000D02*
X105790000Y-67091000D01*
X105830000Y-77194000D02*
X105830000Y-67086000D01*
X105870000Y-77197000D02*
X105870000Y-67083000D01*
X105910000Y-77201000D02*
X105910000Y-67079000D01*
X105950000Y-77204000D02*
X105950000Y-67076000D01*
X105990000Y-77207000D02*
X105990000Y-67073000D01*
X106030000Y-77210000D02*
X106030000Y-67070000D01*
X106070000Y-77212000D02*
X106070000Y-67068000D01*
X106110000Y-77214000D02*
X106110000Y-67066000D01*
X106150000Y-77216000D02*
X106150000Y-67064000D01*
X106190000Y-77217000D02*
X106190000Y-67063000D01*
X106230000Y-77219000D02*
X106230000Y-67061000D01*
X106270000Y-77219000D02*
X106270000Y-67061000D01*
X106310000Y-77220000D02*
X106310000Y-67060000D01*
X106350000Y-77220000D02*
X106350000Y-67060000D01*
X111329646Y-75515000D02*
X111329646Y-74515000D01*
X111829646Y-75015000D02*
X110829646Y-75015000D01*
X111470000Y-72140000D02*
G75*
G02*
X101230000Y-72140000I-5120000J0D01*
G01*
X101230000Y-72140000D02*
G75*
G02*
X111470000Y-72140000I5120000J0D01*
G01*
%TO.C,J3*%
X91520000Y-107780000D02*
X92900000Y-107780000D01*
X91520000Y-109160000D02*
X91520000Y-107780000D01*
X91520000Y-110430000D02*
X91520000Y-118160000D01*
X91520000Y-110430000D02*
X94280000Y-110430000D01*
X91520000Y-118160000D02*
X94280000Y-118160000D01*
X94280000Y-110430000D02*
X94280000Y-118160000D01*
%TO.C,D2*%
X90020800Y-91768400D02*
X92960800Y-91768400D01*
X90020800Y-91888400D02*
X92960800Y-91888400D01*
X90020800Y-92008400D02*
X92960800Y-92008400D01*
X91490800Y-86328400D02*
X91490800Y-87348400D01*
X91490800Y-93808400D02*
X91490800Y-92788400D01*
X90020800Y-87348400D02*
X92960800Y-87348400D01*
X92960800Y-92788400D01*
X90020800Y-92788400D01*
X90020800Y-87348400D01*
%TO.C,J11*%
X91325000Y-40827500D02*
X98765000Y-40827500D01*
X91325000Y-50867500D02*
X91325000Y-40827500D01*
X99365000Y-40827500D02*
X101725000Y-40827500D01*
X101725000Y-40827500D02*
X101725000Y-50867500D01*
X101725000Y-41447500D02*
X91325000Y-41447500D01*
X101725000Y-42947500D02*
X91325000Y-42947500D01*
X101725000Y-47847500D02*
X91325000Y-47847500D01*
X101725000Y-50867500D02*
X91325000Y-50867500D01*
X99065000Y-40827500D02*
X98625000Y-40217500D01*
X99505000Y-40217500D01*
X99065000Y-40827500D01*
G36*
X99065000Y-40827500D02*
G01*
X98625000Y-40217500D01*
X99505000Y-40217500D01*
X99065000Y-40827500D01*
G37*
%TO.C,Q3*%
X129514400Y-71707600D02*
X129514400Y-75307600D01*
X129525922Y-71669122D02*
G75*
G02*
X133964401Y-73507600I1838478J-1838478D01*
G01*
X133964400Y-73507600D02*
G75*
G02*
X129525922Y-75346078I-2600000J0D01*
G01*
%TO.C,Resp32*%
X106721600Y-137455600D02*
X106721600Y-140115600D01*
X152501600Y-137455600D02*
X106721600Y-137455600D01*
X152501600Y-137455600D02*
X152501600Y-140115600D01*
X152501600Y-140115600D02*
X106721600Y-140115600D01*
X155101600Y-138785600D02*
X155101600Y-140115600D01*
X155101600Y-140115600D02*
X153771600Y-140115600D01*
%TO.C,D13*%
X108407200Y-44062800D02*
X108407200Y-45082800D01*
X108407200Y-51542800D02*
X108407200Y-50522800D01*
X109877200Y-45862800D02*
X106937200Y-45862800D01*
X109877200Y-45982800D02*
X106937200Y-45982800D01*
X109877200Y-46102800D02*
X106937200Y-46102800D01*
X106937200Y-45082800D02*
X109877200Y-45082800D01*
X109877200Y-50522800D01*
X106937200Y-50522800D01*
X106937200Y-45082800D01*
%TO.C,C1*%
X84870800Y-64903200D02*
X81893800Y-64903200D01*
X84870800Y-64943200D02*
X81901800Y-64943200D01*
X84870800Y-64983200D02*
X81908800Y-64983200D01*
X84870800Y-65023200D02*
X81917800Y-65023200D01*
X84870800Y-65063200D02*
X81925800Y-65063200D01*
X84870800Y-65103200D02*
X81934800Y-65103200D01*
X84870800Y-65143200D02*
X81943800Y-65143200D01*
X84870800Y-65183200D02*
X81953800Y-65183200D01*
X84870800Y-65223200D02*
X81963800Y-65223200D01*
X84870800Y-65263200D02*
X81974800Y-65263200D01*
X84870800Y-65303200D02*
X81985800Y-65303200D01*
X84870800Y-65343200D02*
X81997800Y-65343200D01*
X84870800Y-65383200D02*
X82009800Y-65383200D01*
X84870800Y-65423200D02*
X82021800Y-65423200D01*
X84870800Y-65463200D02*
X82034800Y-65463200D01*
X84870800Y-65503200D02*
X82047800Y-65503200D01*
X84870800Y-65543200D02*
X82061800Y-65543200D01*
X84870800Y-65583200D02*
X82075800Y-65583200D01*
X84870800Y-65623200D02*
X82090800Y-65623200D01*
X84870800Y-65663200D02*
X82105800Y-65663200D01*
X84870800Y-65703200D02*
X82121800Y-65703200D01*
X84870800Y-65743200D02*
X82137800Y-65743200D01*
X84870800Y-65783200D02*
X82153800Y-65783200D01*
X84870800Y-65823200D02*
X82170800Y-65823200D01*
X84870800Y-65863200D02*
X82188800Y-65863200D01*
X84870800Y-65903200D02*
X82206800Y-65903200D01*
X84870800Y-65943200D02*
X82225800Y-65943200D01*
X84870800Y-65983200D02*
X82244800Y-65983200D01*
X84870800Y-66023200D02*
X82264800Y-66023200D01*
X84870800Y-66063200D02*
X82284800Y-66063200D01*
X84870800Y-66103200D02*
X82305800Y-66103200D01*
X84870800Y-66143200D02*
X82326800Y-66143200D01*
X84870800Y-66183200D02*
X82348800Y-66183200D01*
X84870800Y-66223200D02*
X82371800Y-66223200D01*
X84870800Y-66263200D02*
X82394800Y-66263200D01*
X84870800Y-66303200D02*
X82417800Y-66303200D01*
X84870800Y-66343200D02*
X82442800Y-66343200D01*
X84870800Y-66383200D02*
X82467800Y-66383200D01*
X84870800Y-66423200D02*
X82492800Y-66423200D01*
X84870800Y-66463200D02*
X82518800Y-66463200D01*
X84870800Y-66503200D02*
X82545800Y-66503200D01*
X84870800Y-66543200D02*
X82573800Y-66543200D01*
X84870800Y-66583200D02*
X82601800Y-66583200D01*
X84870800Y-66623200D02*
X82630800Y-66623200D01*
X84870800Y-66663200D02*
X82660800Y-66663200D01*
X84870800Y-66703200D02*
X82691800Y-66703200D01*
X84870800Y-66743200D02*
X82722800Y-66743200D01*
X84870800Y-66783200D02*
X82754800Y-66783200D01*
X84870800Y-66823200D02*
X82787800Y-66823200D01*
X84870800Y-66863200D02*
X82821800Y-66863200D01*
X84870800Y-66903200D02*
X82855800Y-66903200D01*
X84870800Y-66943200D02*
X82891800Y-66943200D01*
X86443800Y-68263200D02*
X85377800Y-68263200D01*
X86678800Y-68223200D02*
X85142800Y-68223200D01*
X86857800Y-68183200D02*
X84963800Y-68183200D01*
X87007800Y-68143200D02*
X84813800Y-68143200D01*
X87138800Y-68103200D02*
X84682800Y-68103200D01*
X87256800Y-68063200D02*
X84564800Y-68063200D01*
X87363800Y-68023200D02*
X84457800Y-68023200D01*
X87462800Y-67983200D02*
X84358800Y-67983200D01*
X87554800Y-67943200D02*
X84266800Y-67943200D01*
X87641800Y-67903200D02*
X84179800Y-67903200D01*
X87723800Y-67863200D02*
X84097800Y-67863200D01*
X87800800Y-67823200D02*
X84020800Y-67823200D01*
X87874800Y-67783200D02*
X83946800Y-67783200D01*
X87944800Y-67743200D02*
X83876800Y-67743200D01*
X88011800Y-67703200D02*
X83809800Y-67703200D01*
X88075800Y-67663200D02*
X83745800Y-67663200D01*
X88137800Y-67623200D02*
X83683800Y-67623200D01*
X88197800Y-67583200D02*
X83623800Y-67583200D01*
X88225800Y-59773502D02*
X88225800Y-60573502D01*
X88254800Y-67543200D02*
X83566800Y-67543200D01*
X88310800Y-67503200D02*
X83510800Y-67503200D01*
X88363800Y-67463200D02*
X83457800Y-67463200D01*
X88415800Y-67423200D02*
X83405800Y-67423200D01*
X88465800Y-67383200D02*
X83355800Y-67383200D01*
X88514800Y-67343200D02*
X83306800Y-67343200D01*
X88561800Y-67303200D02*
X83259800Y-67303200D01*
X88606800Y-67263200D02*
X83214800Y-67263200D01*
X88625800Y-60173502D02*
X87825800Y-60173502D01*
X88651800Y-67223200D02*
X83169800Y-67223200D01*
X88694800Y-67183200D02*
X83126800Y-67183200D01*
X88736800Y-67143200D02*
X83084800Y-67143200D01*
X88777800Y-67103200D02*
X83043800Y-67103200D01*
X88816800Y-67063200D02*
X83004800Y-67063200D01*
X88855800Y-67023200D02*
X82965800Y-67023200D01*
X88892800Y-66983200D02*
X82928800Y-66983200D01*
X88929800Y-66943200D02*
X86950800Y-66943200D01*
X88965800Y-66903200D02*
X86950800Y-66903200D01*
X88999800Y-66863200D02*
X86950800Y-66863200D01*
X89033800Y-66823200D02*
X86950800Y-66823200D01*
X89066800Y-66783200D02*
X86950800Y-66783200D01*
X89098800Y-66743200D02*
X86950800Y-66743200D01*
X89129800Y-66703200D02*
X86950800Y-66703200D01*
X89160800Y-66663200D02*
X86950800Y-66663200D01*
X89190800Y-66623200D02*
X86950800Y-66623200D01*
X89219800Y-66583200D02*
X86950800Y-66583200D01*
X89247800Y-66543200D02*
X86950800Y-66543200D01*
X89275800Y-66503200D02*
X86950800Y-66503200D01*
X89302800Y-66463200D02*
X86950800Y-66463200D01*
X89328800Y-66423200D02*
X86950800Y-66423200D01*
X89353800Y-66383200D02*
X86950800Y-66383200D01*
X89378800Y-66343200D02*
X86950800Y-66343200D01*
X89403800Y-66303200D02*
X86950800Y-66303200D01*
X89426800Y-66263200D02*
X86950800Y-66263200D01*
X89449800Y-66223200D02*
X86950800Y-66223200D01*
X89472800Y-66183200D02*
X86950800Y-66183200D01*
X89494800Y-66143200D02*
X86950800Y-66143200D01*
X89515800Y-66103200D02*
X86950800Y-66103200D01*
X89536800Y-66063200D02*
X86950800Y-66063200D01*
X89556800Y-66023200D02*
X86950800Y-66023200D01*
X89576800Y-65983200D02*
X86950800Y-65983200D01*
X89595800Y-65943200D02*
X86950800Y-65943200D01*
X89614800Y-65903200D02*
X86950800Y-65903200D01*
X89632800Y-65863200D02*
X86950800Y-65863200D01*
X89650800Y-65823200D02*
X86950800Y-65823200D01*
X89667800Y-65783200D02*
X86950800Y-65783200D01*
X89683800Y-65743200D02*
X86950800Y-65743200D01*
X89699800Y-65703200D02*
X86950800Y-65703200D01*
X89715800Y-65663200D02*
X86950800Y-65663200D01*
X89730800Y-65623200D02*
X86950800Y-65623200D01*
X89745800Y-65583200D02*
X86950800Y-65583200D01*
X89759800Y-65543200D02*
X86950800Y-65543200D01*
X89773800Y-65503200D02*
X86950800Y-65503200D01*
X89786800Y-65463200D02*
X86950800Y-65463200D01*
X89799800Y-65423200D02*
X86950800Y-65423200D01*
X89811800Y-65383200D02*
X86950800Y-65383200D01*
X89823800Y-65343200D02*
X86950800Y-65343200D01*
X89835800Y-65303200D02*
X86950800Y-65303200D01*
X89846800Y-65263200D02*
X86950800Y-65263200D01*
X89857800Y-65223200D02*
X86950800Y-65223200D01*
X89867800Y-65183200D02*
X86950800Y-65183200D01*
X89877800Y-65143200D02*
X86950800Y-65143200D01*
X89886800Y-65103200D02*
X86950800Y-65103200D01*
X89895800Y-65063200D02*
X86950800Y-65063200D01*
X89903800Y-65023200D02*
X86950800Y-65023200D01*
X89912800Y-64983200D02*
X86950800Y-64983200D01*
X89919800Y-64943200D02*
X86950800Y-64943200D01*
X89927800Y-64903200D02*
X86950800Y-64903200D01*
X89933800Y-64863200D02*
X81887800Y-64863200D01*
X89940800Y-64823200D02*
X81880800Y-64823200D01*
X89946800Y-64783200D02*
X81874800Y-64783200D01*
X89952800Y-64743200D02*
X81868800Y-64743200D01*
X89957800Y-64703200D02*
X81863800Y-64703200D01*
X89962800Y-64663200D02*
X81858800Y-64663200D01*
X89966800Y-64623200D02*
X81854800Y-64623200D01*
X89971800Y-64583200D02*
X81849800Y-64583200D01*
X89974800Y-64543200D02*
X81846800Y-64543200D01*
X89978800Y-64503200D02*
X81842800Y-64503200D01*
X89980800Y-64463200D02*
X81840800Y-64463200D01*
X89983800Y-64423200D02*
X81837800Y-64423200D01*
X89985800Y-64383200D02*
X81835800Y-64383200D01*
X89987800Y-64343200D02*
X81833800Y-64343200D01*
X89988800Y-64303200D02*
X81832800Y-64303200D01*
X89989800Y-64263200D02*
X81831800Y-64263200D01*
X89990800Y-64183200D02*
X81830800Y-64183200D01*
X89990800Y-64223200D02*
X81830800Y-64223200D01*
X90030800Y-64183200D02*
G75*
G02*
X81790800Y-64183200I-4120000J0D01*
G01*
X81790800Y-64183200D02*
G75*
G02*
X90030800Y-64183200I4120000J0D01*
G01*
%TO.C,J15*%
X184722800Y-130059000D02*
X194762800Y-130059000D01*
X184722800Y-140459000D02*
X184722800Y-130059000D01*
X187742800Y-140459000D02*
X187742800Y-130059000D01*
X192642800Y-140459000D02*
X192642800Y-130059000D01*
X194142800Y-140459000D02*
X194142800Y-130059000D01*
X194762800Y-130059000D02*
X194762800Y-137499000D01*
X194762800Y-138099000D02*
X194762800Y-140459000D01*
X194762800Y-140459000D02*
X184722800Y-140459000D01*
X194762800Y-137799000D02*
X195372800Y-137359000D01*
X195372800Y-138239000D01*
X194762800Y-137799000D01*
G36*
X195372800Y-138239000D02*
G01*
X194762800Y-137799000D01*
X195372800Y-137359000D01*
X195372800Y-138239000D01*
G37*
%TO.C,R5*%
X108676971Y-90962140D02*
X108676971Y-91732140D01*
X108676971Y-99042140D02*
X108676971Y-98272140D01*
X107306971Y-91732140D02*
X110046971Y-91732140D01*
X110046971Y-98272140D01*
X107306971Y-98272140D01*
X107306971Y-91732140D01*
%TO.C,R9*%
X121119539Y-90854776D02*
X121119539Y-91624776D01*
X121119539Y-98934776D02*
X121119539Y-98164776D01*
X119749539Y-91624776D02*
X122489539Y-91624776D01*
X122489539Y-98164776D01*
X119749539Y-98164776D01*
X119749539Y-91624776D01*
%TO.C,C8*%
X181760000Y-82460000D02*
X187000000Y-82460000D01*
X181760000Y-82797000D02*
X181760000Y-82460000D01*
X181760000Y-85200000D02*
X181760000Y-84863000D01*
X187000000Y-82460000D02*
X187000000Y-82797000D01*
X187000000Y-84863000D02*
X187000000Y-85200000D01*
X187000000Y-85200000D02*
X181760000Y-85200000D01*
%TO.C,R17*%
X114827677Y-72644000D02*
X115597677Y-72644000D01*
X122907677Y-72644000D02*
X122137677Y-72644000D01*
X115597677Y-71274000D02*
X122137677Y-71274000D01*
X122137677Y-74014000D01*
X115597677Y-74014000D01*
X115597677Y-71274000D01*
%TO.C,D12*%
X71393200Y-58724800D02*
X72413200Y-58724800D01*
X76833200Y-60194800D02*
X76833200Y-57254800D01*
X76953200Y-60194800D02*
X76953200Y-57254800D01*
X77073200Y-60194800D02*
X77073200Y-57254800D01*
X78873200Y-58724800D02*
X77853200Y-58724800D01*
X72413200Y-57254800D02*
X77853200Y-57254800D01*
X77853200Y-60194800D01*
X72413200Y-60194800D01*
X72413200Y-57254800D01*
%TO.C,J10*%
X68769200Y-140856000D02*
X68769200Y-135666000D01*
X71529200Y-135666000D02*
X68769200Y-135666000D01*
X71529200Y-140856000D02*
X68769200Y-140856000D01*
X71529200Y-140856000D02*
X71529200Y-135666000D01*
X71529200Y-142126000D02*
X71529200Y-143506000D01*
X71529200Y-143506000D02*
X70149200Y-143506000D01*
%TO.C,Q1*%
X96342400Y-82673600D02*
X96342400Y-79073600D01*
X91892400Y-80873600D02*
G75*
G02*
X96330878Y-79035122I2600000J0D01*
G01*
X96330878Y-82712078D02*
G75*
G02*
X91892399Y-80873600I-1838478J1838478D01*
G01*
%TO.C,J13*%
X69244800Y-80804400D02*
X79284800Y-80804400D01*
X69244800Y-83164400D02*
X69244800Y-80804400D01*
X69244800Y-96284400D02*
X69244800Y-83764400D01*
X69864800Y-80804400D02*
X69864800Y-96284400D01*
X71364800Y-80804400D02*
X71364800Y-96284400D01*
X76264800Y-80804400D02*
X76264800Y-96284400D01*
X79284800Y-80804400D02*
X79284800Y-96284400D01*
X79284800Y-96284400D02*
X69244800Y-96284400D01*
X69244800Y-83464400D02*
X68634800Y-83904400D01*
X68634800Y-83024400D01*
X69244800Y-83464400D01*
G36*
X69244800Y-83464400D02*
G01*
X68634800Y-83904400D01*
X68634800Y-83024400D01*
X69244800Y-83464400D01*
G37*
%TO.C,C5*%
X101937677Y-61535677D02*
X101937677Y-60469677D01*
X101977677Y-61770677D02*
X101977677Y-60234677D01*
X102017677Y-61949677D02*
X102017677Y-60055677D01*
X102057677Y-62099677D02*
X102057677Y-59905677D01*
X102097677Y-62230677D02*
X102097677Y-59774677D01*
X102137677Y-62348677D02*
X102137677Y-59656677D01*
X102177677Y-62455677D02*
X102177677Y-59549677D01*
X102217677Y-62554677D02*
X102217677Y-59450677D01*
X102257677Y-62646677D02*
X102257677Y-59358677D01*
X102297677Y-62733677D02*
X102297677Y-59271677D01*
X102337677Y-62815677D02*
X102337677Y-59189677D01*
X102377677Y-62892677D02*
X102377677Y-59112677D01*
X102417677Y-62966677D02*
X102417677Y-59038677D01*
X102457677Y-63036677D02*
X102457677Y-58968677D01*
X102497677Y-63103677D02*
X102497677Y-58901677D01*
X102537677Y-63167677D02*
X102537677Y-58837677D01*
X102577677Y-63229677D02*
X102577677Y-58775677D01*
X102617677Y-63289677D02*
X102617677Y-58715677D01*
X102657677Y-63346677D02*
X102657677Y-58658677D01*
X102697677Y-63402677D02*
X102697677Y-58602677D01*
X102737677Y-63455677D02*
X102737677Y-58549677D01*
X102777677Y-63507677D02*
X102777677Y-58497677D01*
X102817677Y-63557677D02*
X102817677Y-58447677D01*
X102857677Y-63606677D02*
X102857677Y-58398677D01*
X102897677Y-63653677D02*
X102897677Y-58351677D01*
X102937677Y-63698677D02*
X102937677Y-58306677D01*
X102977677Y-63743677D02*
X102977677Y-58261677D01*
X103017677Y-63786677D02*
X103017677Y-58218677D01*
X103057677Y-63828677D02*
X103057677Y-58176677D01*
X103097677Y-63869677D02*
X103097677Y-58135677D01*
X103137677Y-63908677D02*
X103137677Y-58096677D01*
X103177677Y-63947677D02*
X103177677Y-58057677D01*
X103217677Y-63984677D02*
X103217677Y-58020677D01*
X103257677Y-59962677D02*
X103257677Y-57983677D01*
X103257677Y-64021677D02*
X103257677Y-62042677D01*
X103297677Y-59962677D02*
X103297677Y-57947677D01*
X103297677Y-64057677D02*
X103297677Y-62042677D01*
X103337677Y-59962677D02*
X103337677Y-57913677D01*
X103337677Y-64091677D02*
X103337677Y-62042677D01*
X103377677Y-59962677D02*
X103377677Y-57879677D01*
X103377677Y-64125677D02*
X103377677Y-62042677D01*
X103417677Y-59962677D02*
X103417677Y-57846677D01*
X103417677Y-64158677D02*
X103417677Y-62042677D01*
X103457677Y-59962677D02*
X103457677Y-57814677D01*
X103457677Y-64190677D02*
X103457677Y-62042677D01*
X103497677Y-59962677D02*
X103497677Y-57783677D01*
X103497677Y-64221677D02*
X103497677Y-62042677D01*
X103537677Y-59962677D02*
X103537677Y-57752677D01*
X103537677Y-64252677D02*
X103537677Y-62042677D01*
X103577677Y-59962677D02*
X103577677Y-57722677D01*
X103577677Y-64282677D02*
X103577677Y-62042677D01*
X103617677Y-59962677D02*
X103617677Y-57693677D01*
X103617677Y-64311677D02*
X103617677Y-62042677D01*
X103657677Y-59962677D02*
X103657677Y-57665677D01*
X103657677Y-64339677D02*
X103657677Y-62042677D01*
X103697677Y-59962677D02*
X103697677Y-57637677D01*
X103697677Y-64367677D02*
X103697677Y-62042677D01*
X103737677Y-59962677D02*
X103737677Y-57610677D01*
X103737677Y-64394677D02*
X103737677Y-62042677D01*
X103777677Y-59962677D02*
X103777677Y-57584677D01*
X103777677Y-64420677D02*
X103777677Y-62042677D01*
X103817677Y-59962677D02*
X103817677Y-57559677D01*
X103817677Y-64445677D02*
X103817677Y-62042677D01*
X103857677Y-59962677D02*
X103857677Y-57534677D01*
X103857677Y-64470677D02*
X103857677Y-62042677D01*
X103897677Y-59962677D02*
X103897677Y-57509677D01*
X103897677Y-64495677D02*
X103897677Y-62042677D01*
X103937677Y-59962677D02*
X103937677Y-57486677D01*
X103937677Y-64518677D02*
X103937677Y-62042677D01*
X103977677Y-59962677D02*
X103977677Y-57463677D01*
X103977677Y-64541677D02*
X103977677Y-62042677D01*
X104017677Y-59962677D02*
X104017677Y-57440677D01*
X104017677Y-64564677D02*
X104017677Y-62042677D01*
X104057677Y-59962677D02*
X104057677Y-57418677D01*
X104057677Y-64586677D02*
X104057677Y-62042677D01*
X104097677Y-59962677D02*
X104097677Y-57397677D01*
X104097677Y-64607677D02*
X104097677Y-62042677D01*
X104137677Y-59962677D02*
X104137677Y-57376677D01*
X104137677Y-64628677D02*
X104137677Y-62042677D01*
X104177677Y-59962677D02*
X104177677Y-57356677D01*
X104177677Y-64648677D02*
X104177677Y-62042677D01*
X104217677Y-59962677D02*
X104217677Y-57336677D01*
X104217677Y-64668677D02*
X104217677Y-62042677D01*
X104257677Y-59962677D02*
X104257677Y-57317677D01*
X104257677Y-64687677D02*
X104257677Y-62042677D01*
X104297677Y-59962677D02*
X104297677Y-57298677D01*
X104297677Y-64706677D02*
X104297677Y-62042677D01*
X104337677Y-59962677D02*
X104337677Y-57280677D01*
X104337677Y-64724677D02*
X104337677Y-62042677D01*
X104377677Y-59962677D02*
X104377677Y-57262677D01*
X104377677Y-64742677D02*
X104377677Y-62042677D01*
X104417677Y-59962677D02*
X104417677Y-57245677D01*
X104417677Y-64759677D02*
X104417677Y-62042677D01*
X104457677Y-59962677D02*
X104457677Y-57229677D01*
X104457677Y-64775677D02*
X104457677Y-62042677D01*
X104497677Y-59962677D02*
X104497677Y-57213677D01*
X104497677Y-64791677D02*
X104497677Y-62042677D01*
X104537677Y-59962677D02*
X104537677Y-57197677D01*
X104537677Y-64807677D02*
X104537677Y-62042677D01*
X104577677Y-59962677D02*
X104577677Y-57182677D01*
X104577677Y-64822677D02*
X104577677Y-62042677D01*
X104617677Y-59962677D02*
X104617677Y-57167677D01*
X104617677Y-64837677D02*
X104617677Y-62042677D01*
X104657677Y-59962677D02*
X104657677Y-57153677D01*
X104657677Y-64851677D02*
X104657677Y-62042677D01*
X104697677Y-59962677D02*
X104697677Y-57139677D01*
X104697677Y-64865677D02*
X104697677Y-62042677D01*
X104737677Y-59962677D02*
X104737677Y-57126677D01*
X104737677Y-64878677D02*
X104737677Y-62042677D01*
X104777677Y-59962677D02*
X104777677Y-57113677D01*
X104777677Y-64891677D02*
X104777677Y-62042677D01*
X104817677Y-59962677D02*
X104817677Y-57101677D01*
X104817677Y-64903677D02*
X104817677Y-62042677D01*
X104857677Y-59962677D02*
X104857677Y-57089677D01*
X104857677Y-64915677D02*
X104857677Y-62042677D01*
X104897677Y-59962677D02*
X104897677Y-57077677D01*
X104897677Y-64927677D02*
X104897677Y-62042677D01*
X104937677Y-59962677D02*
X104937677Y-57066677D01*
X104937677Y-64938677D02*
X104937677Y-62042677D01*
X104977677Y-59962677D02*
X104977677Y-57055677D01*
X104977677Y-64949677D02*
X104977677Y-62042677D01*
X105017677Y-59962677D02*
X105017677Y-57045677D01*
X105017677Y-64959677D02*
X105017677Y-62042677D01*
X105057677Y-59962677D02*
X105057677Y-57035677D01*
X105057677Y-64969677D02*
X105057677Y-62042677D01*
X105097677Y-59962677D02*
X105097677Y-57026677D01*
X105097677Y-64978677D02*
X105097677Y-62042677D01*
X105137677Y-59962677D02*
X105137677Y-57017677D01*
X105137677Y-64987677D02*
X105137677Y-62042677D01*
X105177677Y-59962677D02*
X105177677Y-57009677D01*
X105177677Y-64995677D02*
X105177677Y-62042677D01*
X105217677Y-59962677D02*
X105217677Y-57000677D01*
X105217677Y-65004677D02*
X105217677Y-62042677D01*
X105257677Y-59962677D02*
X105257677Y-56993677D01*
X105257677Y-65011677D02*
X105257677Y-62042677D01*
X105297677Y-59962677D02*
X105297677Y-56985677D01*
X105297677Y-65019677D02*
X105297677Y-62042677D01*
X105337677Y-65025677D02*
X105337677Y-56979677D01*
X105377677Y-65032677D02*
X105377677Y-56972677D01*
X105417677Y-65038677D02*
X105417677Y-56966677D01*
X105457677Y-65044677D02*
X105457677Y-56960677D01*
X105497677Y-65049677D02*
X105497677Y-56955677D01*
X105537677Y-65054677D02*
X105537677Y-56950677D01*
X105577677Y-65058677D02*
X105577677Y-56946677D01*
X105617677Y-65063677D02*
X105617677Y-56941677D01*
X105657677Y-65066677D02*
X105657677Y-56938677D01*
X105697677Y-65070677D02*
X105697677Y-56934677D01*
X105737677Y-65072677D02*
X105737677Y-56932677D01*
X105777677Y-65075677D02*
X105777677Y-56929677D01*
X105817677Y-65077677D02*
X105817677Y-56927677D01*
X105857677Y-65079677D02*
X105857677Y-56925677D01*
X105897677Y-65080677D02*
X105897677Y-56924677D01*
X105937677Y-65081677D02*
X105937677Y-56923677D01*
X105977677Y-65082677D02*
X105977677Y-56922677D01*
X106017677Y-65082677D02*
X106017677Y-56922677D01*
X110027375Y-63717677D02*
X110027375Y-62917677D01*
X110427375Y-63317677D02*
X109627375Y-63317677D01*
X110137677Y-61002677D02*
G75*
G02*
X101897677Y-61002677I-4120000J0D01*
G01*
X101897677Y-61002677D02*
G75*
G02*
X110137677Y-61002677I4120000J0D01*
G01*
%TO.C,J13PSW1*%
X184722800Y-105924000D02*
X194762800Y-105924000D01*
X184722800Y-116324000D02*
X184722800Y-105924000D01*
X187742800Y-116324000D02*
X187742800Y-105924000D01*
X192642800Y-116324000D02*
X192642800Y-105924000D01*
X194142800Y-116324000D02*
X194142800Y-105924000D01*
X194762800Y-105924000D02*
X194762800Y-113364000D01*
X194762800Y-113964000D02*
X194762800Y-116324000D01*
X194762800Y-116324000D02*
X184722800Y-116324000D01*
X194762800Y-113664000D02*
X195372800Y-113224000D01*
X195372800Y-114104000D01*
X194762800Y-113664000D01*
G36*
X195372800Y-114104000D02*
G01*
X194762800Y-113664000D01*
X195372800Y-113224000D01*
X195372800Y-114104000D01*
G37*
%TO.C,C7*%
X134020354Y-56827677D02*
X135020354Y-56827677D01*
X134520354Y-56327677D02*
X134520354Y-57327677D01*
X139500000Y-54622677D02*
X139500000Y-64782677D01*
X139540000Y-54622677D02*
X139540000Y-64782677D01*
X139580000Y-54623677D02*
X139580000Y-64781677D01*
X139620000Y-54623677D02*
X139620000Y-64781677D01*
X139660000Y-54625677D02*
X139660000Y-64779677D01*
X139700000Y-54626677D02*
X139700000Y-64778677D01*
X139740000Y-54628677D02*
X139740000Y-64776677D01*
X139780000Y-54630677D02*
X139780000Y-64774677D01*
X139820000Y-54632677D02*
X139820000Y-64772677D01*
X139860000Y-54635677D02*
X139860000Y-64769677D01*
X139900000Y-54638677D02*
X139900000Y-64766677D01*
X139940000Y-54641677D02*
X139940000Y-64763677D01*
X139980000Y-54645677D02*
X139980000Y-64759677D01*
X140020000Y-54648677D02*
X140020000Y-64756677D01*
X140060000Y-54653677D02*
X140060000Y-64751677D01*
X140100000Y-54657677D02*
X140100000Y-64747677D01*
X140140000Y-54662677D02*
X140140000Y-64742677D01*
X140180000Y-54667677D02*
X140180000Y-64737677D01*
X140220000Y-54673677D02*
X140220000Y-64731677D01*
X140260000Y-54679677D02*
X140260000Y-64725677D01*
X140300000Y-54685677D02*
X140300000Y-64719677D01*
X140340000Y-54691677D02*
X140340000Y-64713677D01*
X140380000Y-54698677D02*
X140380000Y-64706677D01*
X140420000Y-54705677D02*
X140420000Y-64699677D01*
X140460000Y-54713677D02*
X140460000Y-64691677D01*
X140500000Y-54721677D02*
X140500000Y-64683677D01*
X140540000Y-54729677D02*
X140540000Y-64675677D01*
X140580000Y-54737677D02*
X140580000Y-64667677D01*
X140620000Y-54746677D02*
X140620000Y-64658677D01*
X140660000Y-54755677D02*
X140660000Y-64649677D01*
X140700000Y-54765677D02*
X140700000Y-64639677D01*
X140740000Y-54774677D02*
X140740000Y-64630677D01*
X140780000Y-54785677D02*
X140780000Y-58462677D01*
X140780000Y-60942677D02*
X140780000Y-64619677D01*
X140820000Y-54795677D02*
X140820000Y-58462677D01*
X140820000Y-60942677D02*
X140820000Y-64609677D01*
X140860000Y-54806677D02*
X140860000Y-58462677D01*
X140860000Y-60942677D02*
X140860000Y-64598677D01*
X140900000Y-54817677D02*
X140900000Y-58462677D01*
X140900000Y-60942677D02*
X140900000Y-64587677D01*
X140940000Y-54829677D02*
X140940000Y-58462677D01*
X140940000Y-60942677D02*
X140940000Y-64575677D01*
X140980000Y-54841677D02*
X140980000Y-58462677D01*
X140980000Y-60942677D02*
X140980000Y-64563677D01*
X141020000Y-54853677D02*
X141020000Y-58462677D01*
X141020000Y-60942677D02*
X141020000Y-64551677D01*
X141060000Y-54865677D02*
X141060000Y-58462677D01*
X141060000Y-60942677D02*
X141060000Y-64539677D01*
X141100000Y-54878677D02*
X141100000Y-58462677D01*
X141100000Y-60942677D02*
X141100000Y-64526677D01*
X141140000Y-54892677D02*
X141140000Y-58462677D01*
X141140000Y-60942677D02*
X141140000Y-64512677D01*
X141180000Y-54905677D02*
X141180000Y-58462677D01*
X141180000Y-60942677D02*
X141180000Y-64499677D01*
X141220000Y-54920677D02*
X141220000Y-58462677D01*
X141220000Y-60942677D02*
X141220000Y-64484677D01*
X141260000Y-54934677D02*
X141260000Y-58462677D01*
X141260000Y-60942677D02*
X141260000Y-64470677D01*
X141300000Y-54949677D02*
X141300000Y-58462677D01*
X141300000Y-60942677D02*
X141300000Y-64455677D01*
X141340000Y-54964677D02*
X141340000Y-58462677D01*
X141340000Y-60942677D02*
X141340000Y-64440677D01*
X141380000Y-54980677D02*
X141380000Y-58462677D01*
X141380000Y-60942677D02*
X141380000Y-64424677D01*
X141420000Y-54996677D02*
X141420000Y-58462677D01*
X141420000Y-60942677D02*
X141420000Y-64408677D01*
X141460000Y-55012677D02*
X141460000Y-58462677D01*
X141460000Y-60942677D02*
X141460000Y-64392677D01*
X141500000Y-55029677D02*
X141500000Y-58462677D01*
X141500000Y-60942677D02*
X141500000Y-64375677D01*
X141540000Y-55046677D02*
X141540000Y-58462677D01*
X141540000Y-60942677D02*
X141540000Y-64358677D01*
X141580000Y-55064677D02*
X141580000Y-58462677D01*
X141580000Y-60942677D02*
X141580000Y-64340677D01*
X141620000Y-55082677D02*
X141620000Y-58462677D01*
X141620000Y-60942677D02*
X141620000Y-64322677D01*
X141660000Y-55100677D02*
X141660000Y-58462677D01*
X141660000Y-60942677D02*
X141660000Y-64304677D01*
X141700000Y-55119677D02*
X141700000Y-58462677D01*
X141700000Y-60942677D02*
X141700000Y-64285677D01*
X141740000Y-55138677D02*
X141740000Y-58462677D01*
X141740000Y-60942677D02*
X141740000Y-64266677D01*
X141780000Y-55158677D02*
X141780000Y-58462677D01*
X141780000Y-60942677D02*
X141780000Y-64246677D01*
X141820000Y-55178677D02*
X141820000Y-58462677D01*
X141820000Y-60942677D02*
X141820000Y-64226677D01*
X141860000Y-55198677D02*
X141860000Y-58462677D01*
X141860000Y-60942677D02*
X141860000Y-64206677D01*
X141900000Y-55219677D02*
X141900000Y-58462677D01*
X141900000Y-60942677D02*
X141900000Y-64185677D01*
X141940000Y-55241677D02*
X141940000Y-58462677D01*
X141940000Y-60942677D02*
X141940000Y-64163677D01*
X141980000Y-55263677D02*
X141980000Y-58462677D01*
X141980000Y-60942677D02*
X141980000Y-64141677D01*
X142020000Y-55285677D02*
X142020000Y-58462677D01*
X142020000Y-60942677D02*
X142020000Y-64119677D01*
X142060000Y-55308677D02*
X142060000Y-58462677D01*
X142060000Y-60942677D02*
X142060000Y-64096677D01*
X142100000Y-55331677D02*
X142100000Y-58462677D01*
X142100000Y-60942677D02*
X142100000Y-64073677D01*
X142140000Y-55355677D02*
X142140000Y-58462677D01*
X142140000Y-60942677D02*
X142140000Y-64049677D01*
X142180000Y-55379677D02*
X142180000Y-58462677D01*
X142180000Y-60942677D02*
X142180000Y-64025677D01*
X142220000Y-55404677D02*
X142220000Y-58462677D01*
X142220000Y-60942677D02*
X142220000Y-64000677D01*
X142260000Y-55430677D02*
X142260000Y-58462677D01*
X142260000Y-60942677D02*
X142260000Y-63974677D01*
X142300000Y-55455677D02*
X142300000Y-58462677D01*
X142300000Y-60942677D02*
X142300000Y-63949677D01*
X142340000Y-55482677D02*
X142340000Y-58462677D01*
X142340000Y-60942677D02*
X142340000Y-63922677D01*
X142380000Y-55509677D02*
X142380000Y-58462677D01*
X142380000Y-60942677D02*
X142380000Y-63895677D01*
X142420000Y-55536677D02*
X142420000Y-58462677D01*
X142420000Y-60942677D02*
X142420000Y-63868677D01*
X142460000Y-55564677D02*
X142460000Y-58462677D01*
X142460000Y-60942677D02*
X142460000Y-63840677D01*
X142500000Y-55593677D02*
X142500000Y-58462677D01*
X142500000Y-60942677D02*
X142500000Y-63811677D01*
X142540000Y-55622677D02*
X142540000Y-58462677D01*
X142540000Y-60942677D02*
X142540000Y-63782677D01*
X142580000Y-55652677D02*
X142580000Y-58462677D01*
X142580000Y-60942677D02*
X142580000Y-63752677D01*
X142620000Y-55682677D02*
X142620000Y-58462677D01*
X142620000Y-60942677D02*
X142620000Y-63722677D01*
X142660000Y-55714677D02*
X142660000Y-58462677D01*
X142660000Y-60942677D02*
X142660000Y-63690677D01*
X142700000Y-55745677D02*
X142700000Y-58462677D01*
X142700000Y-60942677D02*
X142700000Y-63659677D01*
X142740000Y-55778677D02*
X142740000Y-58462677D01*
X142740000Y-60942677D02*
X142740000Y-63626677D01*
X142780000Y-55811677D02*
X142780000Y-58462677D01*
X142780000Y-60942677D02*
X142780000Y-63593677D01*
X142820000Y-55844677D02*
X142820000Y-58462677D01*
X142820000Y-60942677D02*
X142820000Y-63560677D01*
X142860000Y-55879677D02*
X142860000Y-58462677D01*
X142860000Y-60942677D02*
X142860000Y-63525677D01*
X142900000Y-55914677D02*
X142900000Y-58462677D01*
X142900000Y-60942677D02*
X142900000Y-63490677D01*
X142940000Y-55950677D02*
X142940000Y-58462677D01*
X142940000Y-60942677D02*
X142940000Y-63454677D01*
X142980000Y-55986677D02*
X142980000Y-58462677D01*
X142980000Y-60942677D02*
X142980000Y-63418677D01*
X143020000Y-56024677D02*
X143020000Y-58462677D01*
X143020000Y-60942677D02*
X143020000Y-63380677D01*
X143060000Y-56062677D02*
X143060000Y-58462677D01*
X143060000Y-60942677D02*
X143060000Y-63342677D01*
X143100000Y-56101677D02*
X143100000Y-58462677D01*
X143100000Y-60942677D02*
X143100000Y-63303677D01*
X143140000Y-56141677D02*
X143140000Y-58462677D01*
X143140000Y-60942677D02*
X143140000Y-63263677D01*
X143180000Y-56182677D02*
X143180000Y-58462677D01*
X143180000Y-60942677D02*
X143180000Y-63222677D01*
X143220000Y-56224677D02*
X143220000Y-58462677D01*
X143220000Y-60942677D02*
X143220000Y-63180677D01*
X143260000Y-56267677D02*
X143260000Y-63137677D01*
X143300000Y-56311677D02*
X143300000Y-63093677D01*
X143340000Y-56355677D02*
X143340000Y-63049677D01*
X143380000Y-56401677D02*
X143380000Y-63003677D01*
X143420000Y-56448677D02*
X143420000Y-62956677D01*
X143460000Y-56497677D02*
X143460000Y-62907677D01*
X143500000Y-56546677D02*
X143500000Y-62858677D01*
X143540000Y-56597677D02*
X143540000Y-62807677D01*
X143580000Y-56649677D02*
X143580000Y-62755677D01*
X143620000Y-56702677D02*
X143620000Y-62702677D01*
X143660000Y-56757677D02*
X143660000Y-62647677D01*
X143700000Y-56814677D02*
X143700000Y-62590677D01*
X143740000Y-56872677D02*
X143740000Y-62532677D01*
X143780000Y-56932677D02*
X143780000Y-62472677D01*
X143820000Y-56994677D02*
X143820000Y-62410677D01*
X143860000Y-57058677D02*
X143860000Y-62346677D01*
X143900000Y-57124677D02*
X143900000Y-62280677D01*
X143940000Y-57192677D02*
X143940000Y-62212677D01*
X143980000Y-57263677D02*
X143980000Y-62141677D01*
X144020000Y-57337677D02*
X144020000Y-62067677D01*
X144060000Y-57414677D02*
X144060000Y-61990677D01*
X144100000Y-57494677D02*
X144100000Y-61910677D01*
X144140000Y-57578677D02*
X144140000Y-61826677D01*
X144180000Y-57665677D02*
X144180000Y-61739677D01*
X144220000Y-57758677D02*
X144220000Y-61646677D01*
X144260000Y-57856677D02*
X144260000Y-61548677D01*
X144300000Y-57960677D02*
X144300000Y-61444677D01*
X144340000Y-58072677D02*
X144340000Y-61332677D01*
X144380000Y-58193677D02*
X144380000Y-61211677D01*
X144420000Y-58325677D02*
X144420000Y-61079677D01*
X144460000Y-58472677D02*
X144460000Y-60932677D01*
X144500000Y-58640677D02*
X144500000Y-60764677D01*
X144540000Y-58840677D02*
X144540000Y-60564677D01*
X144580000Y-59103677D02*
X144580000Y-60301677D01*
X144620000Y-59702677D02*
G75*
G02*
X134380000Y-59702677I-5120000J0D01*
G01*
X134380000Y-59702677D02*
G75*
G02*
X144620000Y-59702677I5120000J0D01*
G01*
%TO.C,K6*%
X111667677Y-54402677D02*
X111667677Y-61002677D01*
X111667677Y-54402677D02*
X131467677Y-54402677D01*
X111667677Y-63402677D02*
X111667677Y-70002677D01*
X115717677Y-62252677D02*
X114917677Y-62252677D01*
X115717677Y-62252677D02*
X115717677Y-65852677D01*
X116617677Y-68252677D02*
X119117677Y-68252677D01*
X117117677Y-60452677D02*
X121117677Y-60452677D01*
X117117677Y-64052677D02*
X117117677Y-60452677D01*
X119117677Y-56252677D02*
X116617677Y-56252677D01*
X119117677Y-56252677D02*
X119117677Y-60452677D01*
X119117677Y-64052677D02*
X119117677Y-68252677D01*
X121117677Y-60452677D02*
X121117677Y-64052677D01*
X121117677Y-64052677D02*
X117117677Y-60452677D01*
X121117677Y-64052677D02*
X117117677Y-64052677D01*
X122517677Y-62252677D02*
X122517677Y-65852677D01*
X122517677Y-62252677D02*
X124017677Y-62252677D01*
X122517677Y-65852677D02*
X115717677Y-65852677D01*
X124017677Y-62252677D02*
X128617677Y-59752677D01*
X127217677Y-58002677D02*
X127217677Y-60502677D01*
X127217677Y-66402677D02*
X127217677Y-63952677D01*
X131467677Y-54402677D02*
X131467677Y-70002677D01*
X131467677Y-70002677D02*
X111667677Y-70002677D01*
%TO.C,J22*%
X153040000Y-81240000D02*
X153040000Y-83900000D01*
X165800000Y-81240000D02*
X153040000Y-81240000D01*
X165800000Y-81240000D02*
X165800000Y-83900000D01*
X165800000Y-83900000D02*
X153040000Y-83900000D01*
X168400000Y-82570000D02*
X168400000Y-83900000D01*
X168400000Y-83900000D02*
X167070000Y-83900000D01*
%TO.C,J1*%
X69112500Y-61332650D02*
X79152500Y-61332650D01*
X69112500Y-63692650D02*
X69112500Y-61332650D01*
X69112500Y-76812650D02*
X69112500Y-64292650D01*
X69732500Y-61332650D02*
X69732500Y-76812650D01*
X71232500Y-61332650D02*
X71232500Y-76812650D01*
X76132500Y-61332650D02*
X76132500Y-76812650D01*
X79152500Y-61332650D02*
X79152500Y-76812650D01*
X79152500Y-76812650D02*
X69112500Y-76812650D01*
X69112500Y-63992650D02*
X68502500Y-64432650D01*
X68502500Y-63552650D01*
X69112500Y-63992650D01*
G36*
X69112500Y-63992650D02*
G01*
X68502500Y-64432650D01*
X68502500Y-63552650D01*
X69112500Y-63992650D01*
G37*
%TO.C,J18*%
X160086274Y-41365763D02*
X167526274Y-41365763D01*
X160086274Y-51405763D02*
X160086274Y-41365763D01*
X168126274Y-41365763D02*
X170486274Y-41365763D01*
X170486274Y-41365763D02*
X170486274Y-51405763D01*
X170486274Y-41985763D02*
X160086274Y-41985763D01*
X170486274Y-43485763D02*
X160086274Y-43485763D01*
X170486274Y-48385763D02*
X160086274Y-48385763D01*
X170486274Y-51405763D02*
X160086274Y-51405763D01*
X167826274Y-41365763D02*
X167386274Y-40755763D01*
X168266274Y-40755763D01*
X167826274Y-41365763D01*
G36*
X167826274Y-41365763D02*
G01*
X167386274Y-40755763D01*
X168266274Y-40755763D01*
X167826274Y-41365763D01*
G37*
%TD*%
M02*
