%TF.GenerationSoftware,KiCad,Pcbnew,10.0.3*%
%TF.CreationDate,2026-08-12T17:55:37+05:30*%
%TF.ProjectId,IoT-Based-Smart-Aquarium-Monitor-&-Control-System,496f542d-4261-4736-9564-2d536d617274,1.0*%
%TF.SameCoordinates,Original*%
%TF.FileFunction,Copper,L1,Top*%
%TF.FilePolarity,Positive*%
%FSLAX46Y46*%
G04 Gerber Fmt 4.6, Leading zero omitted, Abs format (unit mm)*
G04 Created by KiCad (PCBNEW 10.0.3) date 2026-08-12 17:55:37*
%MOMM*%
%LPD*%
G01*
G04 APERTURE LIST*
G04 Aperture macros list*
%AMRoundRect*
0 Rectangle with rounded corners*
0 $1 Rounding radius*
0 $2 $3 $4 $5 $6 $7 $8 $9 X,Y pos of 4 corners*
0 Add a 4 corners polygon primitive as box body*
4,1,4,$2,$3,$4,$5,$6,$7,$8,$9,$2,$3,0*
0 Add four circle primitives for the rounded corners*
1,1,$1+$1,$2,$3*
1,1,$1+$1,$4,$5*
1,1,$1+$1,$6,$7*
1,1,$1+$1,$8,$9*
0 Add four rect primitives between the rounded corners*
20,1,$1+$1,$2,$3,$4,$5,0*
20,1,$1+$1,$4,$5,$6,$7,0*
20,1,$1+$1,$6,$7,$8,$9,0*
20,1,$1+$1,$8,$9,$2,$3,0*%
G04 Aperture macros list end*
%TA.AperFunction,NonConductor*%
%ADD10C,0.200000*%
%TD*%
%ADD11C,0.200000*%
%TA.AperFunction,ComponentPad*%
%ADD12C,1.600000*%
%TD*%
%TA.AperFunction,ComponentPad*%
%ADD13R,1.700000X1.700000*%
%TD*%
%TA.AperFunction,ComponentPad*%
%ADD14C,1.700000*%
%TD*%
%TA.AperFunction,ComponentPad*%
%ADD15RoundRect,0.250000X1.050000X-1.050000X1.050000X1.050000X-1.050000X1.050000X-1.050000X-1.050000X0*%
%TD*%
%TA.AperFunction,ComponentPad*%
%ADD16C,2.600000*%
%TD*%
%TA.AperFunction,ComponentPad*%
%ADD17R,2.000000X2.000000*%
%TD*%
%TA.AperFunction,ComponentPad*%
%ADD18C,2.000000*%
%TD*%
%TA.AperFunction,ComponentPad*%
%ADD19R,1.500000X1.050000*%
%TD*%
%TA.AperFunction,ComponentPad*%
%ADD20O,1.500000X1.050000*%
%TD*%
%TA.AperFunction,ComponentPad*%
%ADD21RoundRect,0.250000X0.750000X0.750000X-0.750000X0.750000X-0.750000X-0.750000X0.750000X-0.750000X0*%
%TD*%
%TA.AperFunction,ComponentPad*%
%ADD22RoundRect,0.249999X-0.850001X-0.850001X0.850001X-0.850001X0.850001X0.850001X-0.850001X0.850001X0*%
%TD*%
%TA.AperFunction,ComponentPad*%
%ADD23C,2.200000*%
%TD*%
%TA.AperFunction,ComponentPad*%
%ADD24C,3.000000*%
%TD*%
%TA.AperFunction,ComponentPad*%
%ADD25C,2.500000*%
%TD*%
%TA.AperFunction,ComponentPad*%
%ADD26RoundRect,0.250000X1.050000X1.050000X-1.050000X1.050000X-1.050000X-1.050000X1.050000X-1.050000X0*%
%TD*%
%TA.AperFunction,ComponentPad*%
%ADD27RoundRect,0.249999X0.850001X-0.850001X0.850001X0.850001X-0.850001X0.850001X-0.850001X-0.850001X0*%
%TD*%
%TA.AperFunction,ComponentPad*%
%ADD28RoundRect,0.250000X0.550000X0.550000X-0.550000X0.550000X-0.550000X-0.550000X0.550000X-0.550000X0*%
%TD*%
%TA.AperFunction,ComponentPad*%
%ADD29RoundRect,0.249999X-0.850001X0.850001X-0.850001X-0.850001X0.850001X-0.850001X0.850001X0.850001X0*%
%TD*%
%TA.AperFunction,ComponentPad*%
%ADD30RoundRect,0.250000X-0.550000X0.550000X-0.550000X-0.550000X0.550000X-0.550000X0.550000X0.550000X0*%
%TD*%
%TA.AperFunction,ComponentPad*%
%ADD31RoundRect,0.249999X0.850001X0.850001X-0.850001X0.850001X-0.850001X-0.850001X0.850001X-0.850001X0*%
%TD*%
%TA.AperFunction,ComponentPad*%
%ADD32RoundRect,0.250000X-1.050000X1.050000X-1.050000X-1.050000X1.050000X-1.050000X1.050000X1.050000X0*%
%TD*%
%TA.AperFunction,ComponentPad*%
%ADD33RoundRect,0.250000X-0.750000X-0.750000X0.750000X-0.750000X0.750000X0.750000X-0.750000X0.750000X0*%
%TD*%
%TA.AperFunction,ViaPad*%
%ADD34C,2.000000*%
%TD*%
%TA.AperFunction,Conductor*%
%ADD35C,1.000000*%
%TD*%
%TA.AperFunction,Conductor*%
%ADD36C,0.500000*%
%TD*%
%TA.AperFunction,Conductor*%
%ADD37C,0.800000*%
%TD*%
G04 APERTURE END LIST*
D10*
X65120000Y-37110000D02*
X198810000Y-37110000D01*
X198810000Y-150180000D01*
X65120000Y-150180000D01*
X65120000Y-37110000D01*
D11*
D10*
X154604911Y-73248361D02*
X154604911Y-73895980D01*
X154604911Y-73895980D02*
X154566816Y-73972171D01*
X154566816Y-73972171D02*
X154528720Y-74010266D01*
X154528720Y-74010266D02*
X154452530Y-74048361D01*
X154452530Y-74048361D02*
X154338244Y-74048361D01*
X154338244Y-74048361D02*
X154262054Y-74010266D01*
X154604911Y-73743600D02*
X154528720Y-73781695D01*
X154528720Y-73781695D02*
X154376339Y-73781695D01*
X154376339Y-73781695D02*
X154300149Y-73743600D01*
X154300149Y-73743600D02*
X154262054Y-73705504D01*
X154262054Y-73705504D02*
X154223958Y-73629314D01*
X154223958Y-73629314D02*
X154223958Y-73400742D01*
X154223958Y-73400742D02*
X154262054Y-73324552D01*
X154262054Y-73324552D02*
X154300149Y-73286457D01*
X154300149Y-73286457D02*
X154376339Y-73248361D01*
X154376339Y-73248361D02*
X154528720Y-73248361D01*
X154528720Y-73248361D02*
X154604911Y-73286457D01*
X154985864Y-73781695D02*
X154985864Y-73248361D01*
X154985864Y-72981695D02*
X154947768Y-73019790D01*
X154947768Y-73019790D02*
X154985864Y-73057885D01*
X154985864Y-73057885D02*
X155023959Y-73019790D01*
X155023959Y-73019790D02*
X154985864Y-72981695D01*
X154985864Y-72981695D02*
X154985864Y-73057885D01*
X155252530Y-73248361D02*
X155557292Y-73248361D01*
X155366816Y-72981695D02*
X155366816Y-73667409D01*
X155366816Y-73667409D02*
X155404911Y-73743600D01*
X155404911Y-73743600D02*
X155481101Y-73781695D01*
X155481101Y-73781695D02*
X155557292Y-73781695D01*
X155823959Y-73781695D02*
X155823959Y-72981695D01*
X156166816Y-73781695D02*
X156166816Y-73362647D01*
X156166816Y-73362647D02*
X156128721Y-73286457D01*
X156128721Y-73286457D02*
X156052530Y-73248361D01*
X156052530Y-73248361D02*
X155938244Y-73248361D01*
X155938244Y-73248361D02*
X155862054Y-73286457D01*
X155862054Y-73286457D02*
X155823959Y-73324552D01*
X156890626Y-73248361D02*
X156890626Y-73781695D01*
X156547769Y-73248361D02*
X156547769Y-73667409D01*
X156547769Y-73667409D02*
X156585864Y-73743600D01*
X156585864Y-73743600D02*
X156662054Y-73781695D01*
X156662054Y-73781695D02*
X156776340Y-73781695D01*
X156776340Y-73781695D02*
X156852531Y-73743600D01*
X156852531Y-73743600D02*
X156890626Y-73705504D01*
X157271579Y-73781695D02*
X157271579Y-72981695D01*
X157271579Y-73286457D02*
X157347769Y-73248361D01*
X157347769Y-73248361D02*
X157500150Y-73248361D01*
X157500150Y-73248361D02*
X157576341Y-73286457D01*
X157576341Y-73286457D02*
X157614436Y-73324552D01*
X157614436Y-73324552D02*
X157652531Y-73400742D01*
X157652531Y-73400742D02*
X157652531Y-73629314D01*
X157652531Y-73629314D02*
X157614436Y-73705504D01*
X157614436Y-73705504D02*
X157576341Y-73743600D01*
X157576341Y-73743600D02*
X157500150Y-73781695D01*
X157500150Y-73781695D02*
X157347769Y-73781695D01*
X157347769Y-73781695D02*
X157271579Y-73743600D01*
X157995389Y-73705504D02*
X158033484Y-73743600D01*
X158033484Y-73743600D02*
X157995389Y-73781695D01*
X157995389Y-73781695D02*
X157957293Y-73743600D01*
X157957293Y-73743600D02*
X157995389Y-73705504D01*
X157995389Y-73705504D02*
X157995389Y-73781695D01*
X158719198Y-73743600D02*
X158643007Y-73781695D01*
X158643007Y-73781695D02*
X158490626Y-73781695D01*
X158490626Y-73781695D02*
X158414436Y-73743600D01*
X158414436Y-73743600D02*
X158376341Y-73705504D01*
X158376341Y-73705504D02*
X158338245Y-73629314D01*
X158338245Y-73629314D02*
X158338245Y-73400742D01*
X158338245Y-73400742D02*
X158376341Y-73324552D01*
X158376341Y-73324552D02*
X158414436Y-73286457D01*
X158414436Y-73286457D02*
X158490626Y-73248361D01*
X158490626Y-73248361D02*
X158643007Y-73248361D01*
X158643007Y-73248361D02*
X158719198Y-73286457D01*
X159176340Y-73781695D02*
X159100150Y-73743600D01*
X159100150Y-73743600D02*
X159062055Y-73705504D01*
X159062055Y-73705504D02*
X159023959Y-73629314D01*
X159023959Y-73629314D02*
X159023959Y-73400742D01*
X159023959Y-73400742D02*
X159062055Y-73324552D01*
X159062055Y-73324552D02*
X159100150Y-73286457D01*
X159100150Y-73286457D02*
X159176340Y-73248361D01*
X159176340Y-73248361D02*
X159290626Y-73248361D01*
X159290626Y-73248361D02*
X159366817Y-73286457D01*
X159366817Y-73286457D02*
X159404912Y-73324552D01*
X159404912Y-73324552D02*
X159443007Y-73400742D01*
X159443007Y-73400742D02*
X159443007Y-73629314D01*
X159443007Y-73629314D02*
X159404912Y-73705504D01*
X159404912Y-73705504D02*
X159366817Y-73743600D01*
X159366817Y-73743600D02*
X159290626Y-73781695D01*
X159290626Y-73781695D02*
X159176340Y-73781695D01*
X159785865Y-73781695D02*
X159785865Y-73248361D01*
X159785865Y-73324552D02*
X159823960Y-73286457D01*
X159823960Y-73286457D02*
X159900150Y-73248361D01*
X159900150Y-73248361D02*
X160014436Y-73248361D01*
X160014436Y-73248361D02*
X160090627Y-73286457D01*
X160090627Y-73286457D02*
X160128722Y-73362647D01*
X160128722Y-73362647D02*
X160128722Y-73781695D01*
X160128722Y-73362647D02*
X160166817Y-73286457D01*
X160166817Y-73286457D02*
X160243008Y-73248361D01*
X160243008Y-73248361D02*
X160357293Y-73248361D01*
X160357293Y-73248361D02*
X160433484Y-73286457D01*
X160433484Y-73286457D02*
X160471579Y-73362647D01*
X160471579Y-73362647D02*
X160471579Y-73781695D01*
X161423960Y-72943600D02*
X160738246Y-73972171D01*
X161652531Y-73743600D02*
X161766817Y-73781695D01*
X161766817Y-73781695D02*
X161957293Y-73781695D01*
X161957293Y-73781695D02*
X162033484Y-73743600D01*
X162033484Y-73743600D02*
X162071579Y-73705504D01*
X162071579Y-73705504D02*
X162109674Y-73629314D01*
X162109674Y-73629314D02*
X162109674Y-73553123D01*
X162109674Y-73553123D02*
X162071579Y-73476933D01*
X162071579Y-73476933D02*
X162033484Y-73438838D01*
X162033484Y-73438838D02*
X161957293Y-73400742D01*
X161957293Y-73400742D02*
X161804912Y-73362647D01*
X161804912Y-73362647D02*
X161728722Y-73324552D01*
X161728722Y-73324552D02*
X161690627Y-73286457D01*
X161690627Y-73286457D02*
X161652531Y-73210266D01*
X161652531Y-73210266D02*
X161652531Y-73134076D01*
X161652531Y-73134076D02*
X161690627Y-73057885D01*
X161690627Y-73057885D02*
X161728722Y-73019790D01*
X161728722Y-73019790D02*
X161804912Y-72981695D01*
X161804912Y-72981695D02*
X161995389Y-72981695D01*
X161995389Y-72981695D02*
X162109674Y-73019790D01*
X162795389Y-73781695D02*
X162795389Y-73362647D01*
X162795389Y-73362647D02*
X162757294Y-73286457D01*
X162757294Y-73286457D02*
X162681103Y-73248361D01*
X162681103Y-73248361D02*
X162528722Y-73248361D01*
X162528722Y-73248361D02*
X162452532Y-73286457D01*
X162795389Y-73743600D02*
X162719198Y-73781695D01*
X162719198Y-73781695D02*
X162528722Y-73781695D01*
X162528722Y-73781695D02*
X162452532Y-73743600D01*
X162452532Y-73743600D02*
X162414436Y-73667409D01*
X162414436Y-73667409D02*
X162414436Y-73591219D01*
X162414436Y-73591219D02*
X162452532Y-73515028D01*
X162452532Y-73515028D02*
X162528722Y-73476933D01*
X162528722Y-73476933D02*
X162719198Y-73476933D01*
X162719198Y-73476933D02*
X162795389Y-73438838D01*
X163519199Y-73743600D02*
X163443008Y-73781695D01*
X163443008Y-73781695D02*
X163290627Y-73781695D01*
X163290627Y-73781695D02*
X163214437Y-73743600D01*
X163214437Y-73743600D02*
X163176342Y-73705504D01*
X163176342Y-73705504D02*
X163138246Y-73629314D01*
X163138246Y-73629314D02*
X163138246Y-73400742D01*
X163138246Y-73400742D02*
X163176342Y-73324552D01*
X163176342Y-73324552D02*
X163214437Y-73286457D01*
X163214437Y-73286457D02*
X163290627Y-73248361D01*
X163290627Y-73248361D02*
X163443008Y-73248361D01*
X163443008Y-73248361D02*
X163519199Y-73286457D01*
X163862056Y-73781695D02*
X163862056Y-72981695D01*
X164204913Y-73781695D02*
X164204913Y-73362647D01*
X164204913Y-73362647D02*
X164166818Y-73286457D01*
X164166818Y-73286457D02*
X164090627Y-73248361D01*
X164090627Y-73248361D02*
X163976341Y-73248361D01*
X163976341Y-73248361D02*
X163900151Y-73286457D01*
X163900151Y-73286457D02*
X163862056Y-73324552D01*
X164585866Y-73781695D02*
X164585866Y-73248361D01*
X164585866Y-72981695D02*
X164547770Y-73019790D01*
X164547770Y-73019790D02*
X164585866Y-73057885D01*
X164585866Y-73057885D02*
X164623961Y-73019790D01*
X164623961Y-73019790D02*
X164585866Y-72981695D01*
X164585866Y-72981695D02*
X164585866Y-73057885D01*
X164966818Y-73248361D02*
X164966818Y-73781695D01*
X164966818Y-73324552D02*
X165004913Y-73286457D01*
X165004913Y-73286457D02*
X165081103Y-73248361D01*
X165081103Y-73248361D02*
X165195389Y-73248361D01*
X165195389Y-73248361D02*
X165271580Y-73286457D01*
X165271580Y-73286457D02*
X165309675Y-73362647D01*
X165309675Y-73362647D02*
X165309675Y-73781695D01*
X166147771Y-73781695D02*
X165881104Y-73400742D01*
X165690628Y-73781695D02*
X165690628Y-72981695D01*
X165690628Y-72981695D02*
X165995390Y-72981695D01*
X165995390Y-72981695D02*
X166071580Y-73019790D01*
X166071580Y-73019790D02*
X166109675Y-73057885D01*
X166109675Y-73057885D02*
X166147771Y-73134076D01*
X166147771Y-73134076D02*
X166147771Y-73248361D01*
X166147771Y-73248361D02*
X166109675Y-73324552D01*
X166109675Y-73324552D02*
X166071580Y-73362647D01*
X166071580Y-73362647D02*
X165995390Y-73400742D01*
X165995390Y-73400742D02*
X165690628Y-73400742D01*
X166833485Y-73781695D02*
X166833485Y-73362647D01*
X166833485Y-73362647D02*
X166795390Y-73286457D01*
X166795390Y-73286457D02*
X166719199Y-73248361D01*
X166719199Y-73248361D02*
X166566818Y-73248361D01*
X166566818Y-73248361D02*
X166490628Y-73286457D01*
X166833485Y-73743600D02*
X166757294Y-73781695D01*
X166757294Y-73781695D02*
X166566818Y-73781695D01*
X166566818Y-73781695D02*
X166490628Y-73743600D01*
X166490628Y-73743600D02*
X166452532Y-73667409D01*
X166452532Y-73667409D02*
X166452532Y-73591219D01*
X166452532Y-73591219D02*
X166490628Y-73515028D01*
X166490628Y-73515028D02*
X166566818Y-73476933D01*
X166566818Y-73476933D02*
X166757294Y-73476933D01*
X166757294Y-73476933D02*
X166833485Y-73438838D01*
X167100152Y-73248361D02*
X167404914Y-73248361D01*
X167214438Y-72981695D02*
X167214438Y-73667409D01*
X167214438Y-73667409D02*
X167252533Y-73743600D01*
X167252533Y-73743600D02*
X167328723Y-73781695D01*
X167328723Y-73781695D02*
X167404914Y-73781695D01*
X167671581Y-73781695D02*
X167671581Y-72981695D01*
X168014438Y-73781695D02*
X168014438Y-73362647D01*
X168014438Y-73362647D02*
X167976343Y-73286457D01*
X167976343Y-73286457D02*
X167900152Y-73248361D01*
X167900152Y-73248361D02*
X167785866Y-73248361D01*
X167785866Y-73248361D02*
X167709676Y-73286457D01*
X167709676Y-73286457D02*
X167671581Y-73324552D01*
X168395391Y-73248361D02*
X168395391Y-73781695D01*
X168395391Y-73324552D02*
X168433486Y-73286457D01*
X168433486Y-73286457D02*
X168509676Y-73248361D01*
X168509676Y-73248361D02*
X168623962Y-73248361D01*
X168623962Y-73248361D02*
X168700153Y-73286457D01*
X168700153Y-73286457D02*
X168738248Y-73362647D01*
X168738248Y-73362647D02*
X168738248Y-73781695D01*
X169462058Y-73781695D02*
X169462058Y-73362647D01*
X169462058Y-73362647D02*
X169423963Y-73286457D01*
X169423963Y-73286457D02*
X169347772Y-73248361D01*
X169347772Y-73248361D02*
X169195391Y-73248361D01*
X169195391Y-73248361D02*
X169119201Y-73286457D01*
X169462058Y-73743600D02*
X169385867Y-73781695D01*
X169385867Y-73781695D02*
X169195391Y-73781695D01*
X169195391Y-73781695D02*
X169119201Y-73743600D01*
X169119201Y-73743600D02*
X169081105Y-73667409D01*
X169081105Y-73667409D02*
X169081105Y-73591219D01*
X169081105Y-73591219D02*
X169119201Y-73515028D01*
X169119201Y-73515028D02*
X169195391Y-73476933D01*
X169195391Y-73476933D02*
X169385867Y-73476933D01*
X169385867Y-73476933D02*
X169462058Y-73438838D01*
X169766820Y-73248361D02*
X169957296Y-73781695D01*
X170147773Y-73248361D02*
X169957296Y-73781695D01*
X169957296Y-73781695D02*
X169881106Y-73972171D01*
X169881106Y-73972171D02*
X169843011Y-74010266D01*
X169843011Y-74010266D02*
X169766820Y-74048361D01*
X170795392Y-73781695D02*
X170795392Y-73362647D01*
X170795392Y-73362647D02*
X170757297Y-73286457D01*
X170757297Y-73286457D02*
X170681106Y-73248361D01*
X170681106Y-73248361D02*
X170528725Y-73248361D01*
X170528725Y-73248361D02*
X170452535Y-73286457D01*
X170795392Y-73743600D02*
X170719201Y-73781695D01*
X170719201Y-73781695D02*
X170528725Y-73781695D01*
X170528725Y-73781695D02*
X170452535Y-73743600D01*
X170452535Y-73743600D02*
X170414439Y-73667409D01*
X170414439Y-73667409D02*
X170414439Y-73591219D01*
X170414439Y-73591219D02*
X170452535Y-73515028D01*
X170452535Y-73515028D02*
X170528725Y-73476933D01*
X170528725Y-73476933D02*
X170719201Y-73476933D01*
X170719201Y-73476933D02*
X170795392Y-73438838D01*
X171176345Y-73781695D02*
X171176345Y-72981695D01*
X171252535Y-73476933D02*
X171481107Y-73781695D01*
X171481107Y-73248361D02*
X171176345Y-73553123D01*
X172166821Y-73781695D02*
X172166821Y-73362647D01*
X172166821Y-73362647D02*
X172128726Y-73286457D01*
X172128726Y-73286457D02*
X172052535Y-73248361D01*
X172052535Y-73248361D02*
X171900154Y-73248361D01*
X171900154Y-73248361D02*
X171823964Y-73286457D01*
X172166821Y-73743600D02*
X172090630Y-73781695D01*
X172090630Y-73781695D02*
X171900154Y-73781695D01*
X171900154Y-73781695D02*
X171823964Y-73743600D01*
X171823964Y-73743600D02*
X171785868Y-73667409D01*
X171785868Y-73667409D02*
X171785868Y-73591219D01*
X171785868Y-73591219D02*
X171823964Y-73515028D01*
X171823964Y-73515028D02*
X171900154Y-73476933D01*
X171900154Y-73476933D02*
X172090630Y-73476933D01*
X172090630Y-73476933D02*
X172166821Y-73438838D01*
D11*
D10*
X155075715Y-76841695D02*
X154694763Y-76841695D01*
X154694763Y-76841695D02*
X154694763Y-76041695D01*
X155342382Y-76841695D02*
X155342382Y-76308361D01*
X155342382Y-76041695D02*
X155304286Y-76079790D01*
X155304286Y-76079790D02*
X155342382Y-76117885D01*
X155342382Y-76117885D02*
X155380477Y-76079790D01*
X155380477Y-76079790D02*
X155342382Y-76041695D01*
X155342382Y-76041695D02*
X155342382Y-76117885D01*
X156066191Y-76803600D02*
X155990000Y-76841695D01*
X155990000Y-76841695D02*
X155837619Y-76841695D01*
X155837619Y-76841695D02*
X155761429Y-76803600D01*
X155761429Y-76803600D02*
X155723334Y-76765504D01*
X155723334Y-76765504D02*
X155685238Y-76689314D01*
X155685238Y-76689314D02*
X155685238Y-76460742D01*
X155685238Y-76460742D02*
X155723334Y-76384552D01*
X155723334Y-76384552D02*
X155761429Y-76346457D01*
X155761429Y-76346457D02*
X155837619Y-76308361D01*
X155837619Y-76308361D02*
X155990000Y-76308361D01*
X155990000Y-76308361D02*
X156066191Y-76346457D01*
X156713810Y-76803600D02*
X156637619Y-76841695D01*
X156637619Y-76841695D02*
X156485238Y-76841695D01*
X156485238Y-76841695D02*
X156409048Y-76803600D01*
X156409048Y-76803600D02*
X156370952Y-76727409D01*
X156370952Y-76727409D02*
X156370952Y-76422647D01*
X156370952Y-76422647D02*
X156409048Y-76346457D01*
X156409048Y-76346457D02*
X156485238Y-76308361D01*
X156485238Y-76308361D02*
X156637619Y-76308361D01*
X156637619Y-76308361D02*
X156713810Y-76346457D01*
X156713810Y-76346457D02*
X156751905Y-76422647D01*
X156751905Y-76422647D02*
X156751905Y-76498838D01*
X156751905Y-76498838D02*
X156370952Y-76575028D01*
X157094762Y-76308361D02*
X157094762Y-76841695D01*
X157094762Y-76384552D02*
X157132857Y-76346457D01*
X157132857Y-76346457D02*
X157209047Y-76308361D01*
X157209047Y-76308361D02*
X157323333Y-76308361D01*
X157323333Y-76308361D02*
X157399524Y-76346457D01*
X157399524Y-76346457D02*
X157437619Y-76422647D01*
X157437619Y-76422647D02*
X157437619Y-76841695D01*
X157780476Y-76803600D02*
X157856667Y-76841695D01*
X157856667Y-76841695D02*
X158009048Y-76841695D01*
X158009048Y-76841695D02*
X158085238Y-76803600D01*
X158085238Y-76803600D02*
X158123334Y-76727409D01*
X158123334Y-76727409D02*
X158123334Y-76689314D01*
X158123334Y-76689314D02*
X158085238Y-76613123D01*
X158085238Y-76613123D02*
X158009048Y-76575028D01*
X158009048Y-76575028D02*
X157894762Y-76575028D01*
X157894762Y-76575028D02*
X157818572Y-76536933D01*
X157818572Y-76536933D02*
X157780476Y-76460742D01*
X157780476Y-76460742D02*
X157780476Y-76422647D01*
X157780476Y-76422647D02*
X157818572Y-76346457D01*
X157818572Y-76346457D02*
X157894762Y-76308361D01*
X157894762Y-76308361D02*
X158009048Y-76308361D01*
X158009048Y-76308361D02*
X158085238Y-76346457D01*
X158770953Y-76803600D02*
X158694762Y-76841695D01*
X158694762Y-76841695D02*
X158542381Y-76841695D01*
X158542381Y-76841695D02*
X158466191Y-76803600D01*
X158466191Y-76803600D02*
X158428095Y-76727409D01*
X158428095Y-76727409D02*
X158428095Y-76422647D01*
X158428095Y-76422647D02*
X158466191Y-76346457D01*
X158466191Y-76346457D02*
X158542381Y-76308361D01*
X158542381Y-76308361D02*
X158694762Y-76308361D01*
X158694762Y-76308361D02*
X158770953Y-76346457D01*
X158770953Y-76346457D02*
X158809048Y-76422647D01*
X158809048Y-76422647D02*
X158809048Y-76498838D01*
X158809048Y-76498838D02*
X158428095Y-76575028D01*
X159151905Y-76765504D02*
X159190000Y-76803600D01*
X159190000Y-76803600D02*
X159151905Y-76841695D01*
X159151905Y-76841695D02*
X159113809Y-76803600D01*
X159113809Y-76803600D02*
X159151905Y-76765504D01*
X159151905Y-76765504D02*
X159151905Y-76841695D01*
X159151905Y-76346457D02*
X159190000Y-76384552D01*
X159190000Y-76384552D02*
X159151905Y-76422647D01*
X159151905Y-76422647D02*
X159113809Y-76384552D01*
X159113809Y-76384552D02*
X159151905Y-76346457D01*
X159151905Y-76346457D02*
X159151905Y-76422647D01*
X160599524Y-76765504D02*
X160561428Y-76803600D01*
X160561428Y-76803600D02*
X160447143Y-76841695D01*
X160447143Y-76841695D02*
X160370952Y-76841695D01*
X160370952Y-76841695D02*
X160256666Y-76803600D01*
X160256666Y-76803600D02*
X160180476Y-76727409D01*
X160180476Y-76727409D02*
X160142381Y-76651219D01*
X160142381Y-76651219D02*
X160104285Y-76498838D01*
X160104285Y-76498838D02*
X160104285Y-76384552D01*
X160104285Y-76384552D02*
X160142381Y-76232171D01*
X160142381Y-76232171D02*
X160180476Y-76155980D01*
X160180476Y-76155980D02*
X160256666Y-76079790D01*
X160256666Y-76079790D02*
X160370952Y-76041695D01*
X160370952Y-76041695D02*
X160447143Y-76041695D01*
X160447143Y-76041695D02*
X160561428Y-76079790D01*
X160561428Y-76079790D02*
X160599524Y-76117885D01*
X160942381Y-76422647D02*
X161209047Y-76422647D01*
X161323333Y-76841695D02*
X160942381Y-76841695D01*
X160942381Y-76841695D02*
X160942381Y-76041695D01*
X160942381Y-76041695D02*
X161323333Y-76041695D01*
X162123334Y-76841695D02*
X161856667Y-76460742D01*
X161666191Y-76841695D02*
X161666191Y-76041695D01*
X161666191Y-76041695D02*
X161970953Y-76041695D01*
X161970953Y-76041695D02*
X162047143Y-76079790D01*
X162047143Y-76079790D02*
X162085238Y-76117885D01*
X162085238Y-76117885D02*
X162123334Y-76194076D01*
X162123334Y-76194076D02*
X162123334Y-76308361D01*
X162123334Y-76308361D02*
X162085238Y-76384552D01*
X162085238Y-76384552D02*
X162047143Y-76422647D01*
X162047143Y-76422647D02*
X161970953Y-76460742D01*
X161970953Y-76460742D02*
X161666191Y-76460742D01*
X162466191Y-76841695D02*
X162466191Y-76041695D01*
X162466191Y-76041695D02*
X162923334Y-76841695D01*
X162923334Y-76841695D02*
X162923334Y-76041695D01*
X163304286Y-76536933D02*
X163913810Y-76536933D01*
X164447143Y-76041695D02*
X164599524Y-76041695D01*
X164599524Y-76041695D02*
X164675714Y-76079790D01*
X164675714Y-76079790D02*
X164751905Y-76155980D01*
X164751905Y-76155980D02*
X164790000Y-76308361D01*
X164790000Y-76308361D02*
X164790000Y-76575028D01*
X164790000Y-76575028D02*
X164751905Y-76727409D01*
X164751905Y-76727409D02*
X164675714Y-76803600D01*
X164675714Y-76803600D02*
X164599524Y-76841695D01*
X164599524Y-76841695D02*
X164447143Y-76841695D01*
X164447143Y-76841695D02*
X164370952Y-76803600D01*
X164370952Y-76803600D02*
X164294762Y-76727409D01*
X164294762Y-76727409D02*
X164256666Y-76575028D01*
X164256666Y-76575028D02*
X164256666Y-76308361D01*
X164256666Y-76308361D02*
X164294762Y-76155980D01*
X164294762Y-76155980D02*
X164370952Y-76079790D01*
X164370952Y-76079790D02*
X164447143Y-76041695D01*
X165132857Y-76841695D02*
X165132857Y-76041695D01*
X165132857Y-76422647D02*
X165590000Y-76422647D01*
X165590000Y-76841695D02*
X165590000Y-76041695D01*
X166351904Y-76841695D02*
X165970952Y-76841695D01*
X165970952Y-76841695D02*
X165970952Y-76041695D01*
X166618571Y-76536933D02*
X167228095Y-76536933D01*
X167570951Y-76803600D02*
X167685237Y-76841695D01*
X167685237Y-76841695D02*
X167875713Y-76841695D01*
X167875713Y-76841695D02*
X167951904Y-76803600D01*
X167951904Y-76803600D02*
X167989999Y-76765504D01*
X167989999Y-76765504D02*
X168028094Y-76689314D01*
X168028094Y-76689314D02*
X168028094Y-76613123D01*
X168028094Y-76613123D02*
X167989999Y-76536933D01*
X167989999Y-76536933D02*
X167951904Y-76498838D01*
X167951904Y-76498838D02*
X167875713Y-76460742D01*
X167875713Y-76460742D02*
X167723332Y-76422647D01*
X167723332Y-76422647D02*
X167647142Y-76384552D01*
X167647142Y-76384552D02*
X167609047Y-76346457D01*
X167609047Y-76346457D02*
X167570951Y-76270266D01*
X167570951Y-76270266D02*
X167570951Y-76194076D01*
X167570951Y-76194076D02*
X167609047Y-76117885D01*
X167609047Y-76117885D02*
X167647142Y-76079790D01*
X167647142Y-76079790D02*
X167723332Y-76041695D01*
X167723332Y-76041695D02*
X167913809Y-76041695D01*
X167913809Y-76041695D02*
X168028094Y-76079790D01*
X168370952Y-76536933D02*
X168980476Y-76536933D01*
X169323332Y-76117885D02*
X169361428Y-76079790D01*
X169361428Y-76079790D02*
X169437618Y-76041695D01*
X169437618Y-76041695D02*
X169628094Y-76041695D01*
X169628094Y-76041695D02*
X169704285Y-76079790D01*
X169704285Y-76079790D02*
X169742380Y-76117885D01*
X169742380Y-76117885D02*
X169780475Y-76194076D01*
X169780475Y-76194076D02*
X169780475Y-76270266D01*
X169780475Y-76270266D02*
X169742380Y-76384552D01*
X169742380Y-76384552D02*
X169285237Y-76841695D01*
X169285237Y-76841695D02*
X169780475Y-76841695D01*
X170123333Y-76765504D02*
X170161428Y-76803600D01*
X170161428Y-76803600D02*
X170123333Y-76841695D01*
X170123333Y-76841695D02*
X170085237Y-76803600D01*
X170085237Y-76803600D02*
X170123333Y-76765504D01*
X170123333Y-76765504D02*
X170123333Y-76841695D01*
X170656666Y-76041695D02*
X170732856Y-76041695D01*
X170732856Y-76041695D02*
X170809047Y-76079790D01*
X170809047Y-76079790D02*
X170847142Y-76117885D01*
X170847142Y-76117885D02*
X170885237Y-76194076D01*
X170885237Y-76194076D02*
X170923332Y-76346457D01*
X170923332Y-76346457D02*
X170923332Y-76536933D01*
X170923332Y-76536933D02*
X170885237Y-76689314D01*
X170885237Y-76689314D02*
X170847142Y-76765504D01*
X170847142Y-76765504D02*
X170809047Y-76803600D01*
X170809047Y-76803600D02*
X170732856Y-76841695D01*
X170732856Y-76841695D02*
X170656666Y-76841695D01*
X170656666Y-76841695D02*
X170580475Y-76803600D01*
X170580475Y-76803600D02*
X170542380Y-76765504D01*
X170542380Y-76765504D02*
X170504285Y-76689314D01*
X170504285Y-76689314D02*
X170466189Y-76536933D01*
X170466189Y-76536933D02*
X170466189Y-76346457D01*
X170466189Y-76346457D02*
X170504285Y-76194076D01*
X170504285Y-76194076D02*
X170542380Y-76117885D01*
X170542380Y-76117885D02*
X170580475Y-76079790D01*
X170580475Y-76079790D02*
X170656666Y-76041695D01*
D11*
D10*
X154748569Y-75283600D02*
X154862855Y-75321695D01*
X154862855Y-75321695D02*
X155053331Y-75321695D01*
X155053331Y-75321695D02*
X155129522Y-75283600D01*
X155129522Y-75283600D02*
X155167617Y-75245504D01*
X155167617Y-75245504D02*
X155205712Y-75169314D01*
X155205712Y-75169314D02*
X155205712Y-75093123D01*
X155205712Y-75093123D02*
X155167617Y-75016933D01*
X155167617Y-75016933D02*
X155129522Y-74978838D01*
X155129522Y-74978838D02*
X155053331Y-74940742D01*
X155053331Y-74940742D02*
X154900950Y-74902647D01*
X154900950Y-74902647D02*
X154824760Y-74864552D01*
X154824760Y-74864552D02*
X154786665Y-74826457D01*
X154786665Y-74826457D02*
X154748569Y-74750266D01*
X154748569Y-74750266D02*
X154748569Y-74674076D01*
X154748569Y-74674076D02*
X154786665Y-74597885D01*
X154786665Y-74597885D02*
X154824760Y-74559790D01*
X154824760Y-74559790D02*
X154900950Y-74521695D01*
X154900950Y-74521695D02*
X155091427Y-74521695D01*
X155091427Y-74521695D02*
X155205712Y-74559790D01*
X155891427Y-75321695D02*
X155891427Y-74902647D01*
X155891427Y-74902647D02*
X155853332Y-74826457D01*
X155853332Y-74826457D02*
X155777141Y-74788361D01*
X155777141Y-74788361D02*
X155624760Y-74788361D01*
X155624760Y-74788361D02*
X155548570Y-74826457D01*
X155891427Y-75283600D02*
X155815236Y-75321695D01*
X155815236Y-75321695D02*
X155624760Y-75321695D01*
X155624760Y-75321695D02*
X155548570Y-75283600D01*
X155548570Y-75283600D02*
X155510474Y-75207409D01*
X155510474Y-75207409D02*
X155510474Y-75131219D01*
X155510474Y-75131219D02*
X155548570Y-75055028D01*
X155548570Y-75055028D02*
X155624760Y-75016933D01*
X155624760Y-75016933D02*
X155815236Y-75016933D01*
X155815236Y-75016933D02*
X155891427Y-74978838D01*
X156615237Y-75283600D02*
X156539046Y-75321695D01*
X156539046Y-75321695D02*
X156386665Y-75321695D01*
X156386665Y-75321695D02*
X156310475Y-75283600D01*
X156310475Y-75283600D02*
X156272380Y-75245504D01*
X156272380Y-75245504D02*
X156234284Y-75169314D01*
X156234284Y-75169314D02*
X156234284Y-74940742D01*
X156234284Y-74940742D02*
X156272380Y-74864552D01*
X156272380Y-74864552D02*
X156310475Y-74826457D01*
X156310475Y-74826457D02*
X156386665Y-74788361D01*
X156386665Y-74788361D02*
X156539046Y-74788361D01*
X156539046Y-74788361D02*
X156615237Y-74826457D01*
X156958094Y-75321695D02*
X156958094Y-74521695D01*
X157300951Y-75321695D02*
X157300951Y-74902647D01*
X157300951Y-74902647D02*
X157262856Y-74826457D01*
X157262856Y-74826457D02*
X157186665Y-74788361D01*
X157186665Y-74788361D02*
X157072379Y-74788361D01*
X157072379Y-74788361D02*
X156996189Y-74826457D01*
X156996189Y-74826457D02*
X156958094Y-74864552D01*
X157681904Y-75321695D02*
X157681904Y-74788361D01*
X157681904Y-74521695D02*
X157643808Y-74559790D01*
X157643808Y-74559790D02*
X157681904Y-74597885D01*
X157681904Y-74597885D02*
X157719999Y-74559790D01*
X157719999Y-74559790D02*
X157681904Y-74521695D01*
X157681904Y-74521695D02*
X157681904Y-74597885D01*
X158062856Y-74788361D02*
X158062856Y-75321695D01*
X158062856Y-74864552D02*
X158100951Y-74826457D01*
X158100951Y-74826457D02*
X158177141Y-74788361D01*
X158177141Y-74788361D02*
X158291427Y-74788361D01*
X158291427Y-74788361D02*
X158367618Y-74826457D01*
X158367618Y-74826457D02*
X158405713Y-74902647D01*
X158405713Y-74902647D02*
X158405713Y-75321695D01*
X159853333Y-75321695D02*
X159586666Y-74940742D01*
X159396190Y-75321695D02*
X159396190Y-74521695D01*
X159396190Y-74521695D02*
X159700952Y-74521695D01*
X159700952Y-74521695D02*
X159777142Y-74559790D01*
X159777142Y-74559790D02*
X159815237Y-74597885D01*
X159815237Y-74597885D02*
X159853333Y-74674076D01*
X159853333Y-74674076D02*
X159853333Y-74788361D01*
X159853333Y-74788361D02*
X159815237Y-74864552D01*
X159815237Y-74864552D02*
X159777142Y-74902647D01*
X159777142Y-74902647D02*
X159700952Y-74940742D01*
X159700952Y-74940742D02*
X159396190Y-74940742D01*
X160539047Y-75321695D02*
X160539047Y-74902647D01*
X160539047Y-74902647D02*
X160500952Y-74826457D01*
X160500952Y-74826457D02*
X160424761Y-74788361D01*
X160424761Y-74788361D02*
X160272380Y-74788361D01*
X160272380Y-74788361D02*
X160196190Y-74826457D01*
X160539047Y-75283600D02*
X160462856Y-75321695D01*
X160462856Y-75321695D02*
X160272380Y-75321695D01*
X160272380Y-75321695D02*
X160196190Y-75283600D01*
X160196190Y-75283600D02*
X160158094Y-75207409D01*
X160158094Y-75207409D02*
X160158094Y-75131219D01*
X160158094Y-75131219D02*
X160196190Y-75055028D01*
X160196190Y-75055028D02*
X160272380Y-75016933D01*
X160272380Y-75016933D02*
X160462856Y-75016933D01*
X160462856Y-75016933D02*
X160539047Y-74978838D01*
X160805714Y-74788361D02*
X161110476Y-74788361D01*
X160920000Y-74521695D02*
X160920000Y-75207409D01*
X160920000Y-75207409D02*
X160958095Y-75283600D01*
X160958095Y-75283600D02*
X161034285Y-75321695D01*
X161034285Y-75321695D02*
X161110476Y-75321695D01*
X161377143Y-75321695D02*
X161377143Y-74521695D01*
X161720000Y-75321695D02*
X161720000Y-74902647D01*
X161720000Y-74902647D02*
X161681905Y-74826457D01*
X161681905Y-74826457D02*
X161605714Y-74788361D01*
X161605714Y-74788361D02*
X161491428Y-74788361D01*
X161491428Y-74788361D02*
X161415238Y-74826457D01*
X161415238Y-74826457D02*
X161377143Y-74864552D01*
X162100953Y-74788361D02*
X162100953Y-75321695D01*
X162100953Y-74864552D02*
X162139048Y-74826457D01*
X162139048Y-74826457D02*
X162215238Y-74788361D01*
X162215238Y-74788361D02*
X162329524Y-74788361D01*
X162329524Y-74788361D02*
X162405715Y-74826457D01*
X162405715Y-74826457D02*
X162443810Y-74902647D01*
X162443810Y-74902647D02*
X162443810Y-75321695D01*
X163167620Y-75321695D02*
X163167620Y-74902647D01*
X163167620Y-74902647D02*
X163129525Y-74826457D01*
X163129525Y-74826457D02*
X163053334Y-74788361D01*
X163053334Y-74788361D02*
X162900953Y-74788361D01*
X162900953Y-74788361D02*
X162824763Y-74826457D01*
X163167620Y-75283600D02*
X163091429Y-75321695D01*
X163091429Y-75321695D02*
X162900953Y-75321695D01*
X162900953Y-75321695D02*
X162824763Y-75283600D01*
X162824763Y-75283600D02*
X162786667Y-75207409D01*
X162786667Y-75207409D02*
X162786667Y-75131219D01*
X162786667Y-75131219D02*
X162824763Y-75055028D01*
X162824763Y-75055028D02*
X162900953Y-75016933D01*
X162900953Y-75016933D02*
X163091429Y-75016933D01*
X163091429Y-75016933D02*
X163167620Y-74978838D01*
X163472382Y-74788361D02*
X163662858Y-75321695D01*
X163853335Y-74788361D02*
X163662858Y-75321695D01*
X163662858Y-75321695D02*
X163586668Y-75512171D01*
X163586668Y-75512171D02*
X163548573Y-75550266D01*
X163548573Y-75550266D02*
X163472382Y-75588361D01*
X164500954Y-75321695D02*
X164500954Y-74902647D01*
X164500954Y-74902647D02*
X164462859Y-74826457D01*
X164462859Y-74826457D02*
X164386668Y-74788361D01*
X164386668Y-74788361D02*
X164234287Y-74788361D01*
X164234287Y-74788361D02*
X164158097Y-74826457D01*
X164500954Y-75283600D02*
X164424763Y-75321695D01*
X164424763Y-75321695D02*
X164234287Y-75321695D01*
X164234287Y-75321695D02*
X164158097Y-75283600D01*
X164158097Y-75283600D02*
X164120001Y-75207409D01*
X164120001Y-75207409D02*
X164120001Y-75131219D01*
X164120001Y-75131219D02*
X164158097Y-75055028D01*
X164158097Y-75055028D02*
X164234287Y-75016933D01*
X164234287Y-75016933D02*
X164424763Y-75016933D01*
X164424763Y-75016933D02*
X164500954Y-74978838D01*
X164881907Y-75321695D02*
X164881907Y-74521695D01*
X164958097Y-75016933D02*
X165186669Y-75321695D01*
X165186669Y-74788361D02*
X164881907Y-75093123D01*
X165872383Y-75321695D02*
X165872383Y-74902647D01*
X165872383Y-74902647D02*
X165834288Y-74826457D01*
X165834288Y-74826457D02*
X165758097Y-74788361D01*
X165758097Y-74788361D02*
X165605716Y-74788361D01*
X165605716Y-74788361D02*
X165529526Y-74826457D01*
X165872383Y-75283600D02*
X165796192Y-75321695D01*
X165796192Y-75321695D02*
X165605716Y-75321695D01*
X165605716Y-75321695D02*
X165529526Y-75283600D01*
X165529526Y-75283600D02*
X165491430Y-75207409D01*
X165491430Y-75207409D02*
X165491430Y-75131219D01*
X165491430Y-75131219D02*
X165529526Y-75055028D01*
X165529526Y-75055028D02*
X165605716Y-75016933D01*
X165605716Y-75016933D02*
X165796192Y-75016933D01*
X165796192Y-75016933D02*
X165872383Y-74978838D01*
X166481907Y-75626457D02*
X166443812Y-75588361D01*
X166443812Y-75588361D02*
X166367621Y-75474076D01*
X166367621Y-75474076D02*
X166329526Y-75397885D01*
X166329526Y-75397885D02*
X166291431Y-75283600D01*
X166291431Y-75283600D02*
X166253336Y-75093123D01*
X166253336Y-75093123D02*
X166253336Y-74940742D01*
X166253336Y-74940742D02*
X166291431Y-74750266D01*
X166291431Y-74750266D02*
X166329526Y-74635980D01*
X166329526Y-74635980D02*
X166367621Y-74559790D01*
X166367621Y-74559790D02*
X166443812Y-74445504D01*
X166443812Y-74445504D02*
X166481907Y-74407409D01*
X166710478Y-74521695D02*
X166900954Y-75321695D01*
X166900954Y-75321695D02*
X167053335Y-74750266D01*
X167053335Y-74750266D02*
X167205716Y-75321695D01*
X167205716Y-75321695D02*
X167396193Y-74521695D01*
X168158098Y-75321695D02*
X167891431Y-74940742D01*
X167700955Y-75321695D02*
X167700955Y-74521695D01*
X167700955Y-74521695D02*
X168005717Y-74521695D01*
X168005717Y-74521695D02*
X168081907Y-74559790D01*
X168081907Y-74559790D02*
X168120002Y-74597885D01*
X168120002Y-74597885D02*
X168158098Y-74674076D01*
X168158098Y-74674076D02*
X168158098Y-74788361D01*
X168158098Y-74788361D02*
X168120002Y-74864552D01*
X168120002Y-74864552D02*
X168081907Y-74902647D01*
X168081907Y-74902647D02*
X168005717Y-74940742D01*
X168005717Y-74940742D02*
X167700955Y-74940742D01*
X168462859Y-75283600D02*
X168577145Y-75321695D01*
X168577145Y-75321695D02*
X168767621Y-75321695D01*
X168767621Y-75321695D02*
X168843812Y-75283600D01*
X168843812Y-75283600D02*
X168881907Y-75245504D01*
X168881907Y-75245504D02*
X168920002Y-75169314D01*
X168920002Y-75169314D02*
X168920002Y-75093123D01*
X168920002Y-75093123D02*
X168881907Y-75016933D01*
X168881907Y-75016933D02*
X168843812Y-74978838D01*
X168843812Y-74978838D02*
X168767621Y-74940742D01*
X168767621Y-74940742D02*
X168615240Y-74902647D01*
X168615240Y-74902647D02*
X168539050Y-74864552D01*
X168539050Y-74864552D02*
X168500955Y-74826457D01*
X168500955Y-74826457D02*
X168462859Y-74750266D01*
X168462859Y-74750266D02*
X168462859Y-74674076D01*
X168462859Y-74674076D02*
X168500955Y-74597885D01*
X168500955Y-74597885D02*
X168539050Y-74559790D01*
X168539050Y-74559790D02*
X168615240Y-74521695D01*
X168615240Y-74521695D02*
X168805717Y-74521695D01*
X168805717Y-74521695D02*
X168920002Y-74559790D01*
X169720003Y-75245504D02*
X169681907Y-75283600D01*
X169681907Y-75283600D02*
X169567622Y-75321695D01*
X169567622Y-75321695D02*
X169491431Y-75321695D01*
X169491431Y-75321695D02*
X169377145Y-75283600D01*
X169377145Y-75283600D02*
X169300955Y-75207409D01*
X169300955Y-75207409D02*
X169262860Y-75131219D01*
X169262860Y-75131219D02*
X169224764Y-74978838D01*
X169224764Y-74978838D02*
X169224764Y-74864552D01*
X169224764Y-74864552D02*
X169262860Y-74712171D01*
X169262860Y-74712171D02*
X169300955Y-74635980D01*
X169300955Y-74635980D02*
X169377145Y-74559790D01*
X169377145Y-74559790D02*
X169491431Y-74521695D01*
X169491431Y-74521695D02*
X169567622Y-74521695D01*
X169567622Y-74521695D02*
X169681907Y-74559790D01*
X169681907Y-74559790D02*
X169720003Y-74597885D01*
X170062860Y-75321695D02*
X170062860Y-74521695D01*
X170062860Y-74521695D02*
X170520003Y-75321695D01*
X170520003Y-75321695D02*
X170520003Y-74521695D01*
X170824764Y-75626457D02*
X170862859Y-75588361D01*
X170862859Y-75588361D02*
X170939050Y-75474076D01*
X170939050Y-75474076D02*
X170977145Y-75397885D01*
X170977145Y-75397885D02*
X171015240Y-75283600D01*
X171015240Y-75283600D02*
X171053336Y-75093123D01*
X171053336Y-75093123D02*
X171053336Y-74940742D01*
X171053336Y-74940742D02*
X171015240Y-74750266D01*
X171015240Y-74750266D02*
X170977145Y-74635980D01*
X170977145Y-74635980D02*
X170939050Y-74559790D01*
X170939050Y-74559790D02*
X170862859Y-74445504D01*
X170862859Y-74445504D02*
X170824764Y-74407409D01*
D12*
%TO.P,R14,1*%
%TO.N,EN*%
X100126800Y-145592800D03*
%TO.P,R14,2*%
%TO.N,3V3*%
X100126800Y-135432800D03*
%TD*%
%TO.P,R2,1*%
%TO.N,Net-(J21-Pin_7)*%
X145178591Y-89869218D03*
%TO.P,R2,2*%
%TO.N,12V_IN+*%
X145178591Y-100029218D03*
%TD*%
%TO.P,R3,1*%
%TO.N,Net-(J21-Pin_6)*%
X138884011Y-89857375D03*
%TO.P,R3,2*%
%TO.N,5VOUT+*%
X138884011Y-100017375D03*
%TD*%
%TO.P,R1,1*%
%TO.N,G13*%
X97688400Y-95199200D03*
%TO.P,R1,2*%
%TO.N,Net-(Q1-B)*%
X97688400Y-85039200D03*
%TD*%
D13*
%TO.P,J6,1,Pin_1_1*%
%TO.N,5VOUT+*%
X87376000Y-88544400D03*
D14*
%TO.P,J6,2,Pin_2_2*%
%TO.N,Net-(D2-A)*%
X87376000Y-86004400D03*
%TD*%
D12*
%TO.P,R18,1*%
%TO.N,G17*%
X194496274Y-68945763D03*
%TO.P,R18,2*%
%TO.N,Net-(Q4-B)*%
X194496274Y-58785763D03*
%TD*%
D15*
%TO.P,J2,1,Pin_1_1*%
%TO.N,DC_IN_A*%
X190080000Y-101490000D03*
D16*
%TO.P,J2,2,Pin_2_2*%
%TO.N,DC_IN_B*%
X190080000Y-96410000D03*
%TD*%
D17*
%TO.P,D3,1,-_1*%
%TO.N,GND*%
X181740000Y-103980000D03*
D18*
%TO.P,D3,2*%
%TO.N,DC_IN_A*%
X181740000Y-98980000D03*
%TO.P,D3,3,+_3*%
%TO.N,R12V+*%
X181740000Y-93980000D03*
%TO.P,D3,4*%
%TO.N,DC_IN_B*%
X181740000Y-88980000D03*
%TD*%
D19*
%TO.P,Q4,1,C_1*%
%TO.N,Net-(J4-Pin_1)*%
X189416274Y-60055763D03*
D20*
%TO.P,Q4,2,B_2*%
%TO.N,Net-(Q4-B)*%
X189416274Y-61325763D03*
%TO.P,Q4,3,E_3*%
%TO.N,GND*%
X189416274Y-62595763D03*
%TD*%
D21*
%TO.P,C3,1*%
%TO.N,5VOUT+*%
X89120000Y-127110000D03*
D18*
%TO.P,C3,2*%
%TO.N,GND*%
X84120000Y-127110000D03*
%TD*%
D22*
%TO.P,D10,1,K_1*%
%TO.N,Net-(D10-K)*%
X134897677Y-68502677D03*
D23*
%TO.P,D10,2,A_2*%
%TO.N,GND*%
X145057677Y-68502677D03*
%TD*%
D24*
%TO.P,K4,1*%
%TO.N,12V_IN+*%
X70240000Y-48560000D03*
D25*
%TO.P,K4,2*%
%TO.N,Net-(D12-A)*%
X72190000Y-54610000D03*
D24*
%TO.P,K4,3*%
%TO.N,Net-(D9-K)*%
X84390000Y-54610000D03*
%TO.P,K4,4*%
%TO.N,unconnected-(K4-Pad4)*%
X84440000Y-42560000D03*
D25*
%TO.P,K4,5*%
%TO.N,12V_IN+*%
X72190000Y-42610000D03*
%TD*%
D13*
%TO.P,J21,1,Pin_1_1*%
%TO.N,Net-(J21-Pin_1)*%
X119548171Y-84283340D03*
D14*
%TO.P,J21,2,Pin_2_2*%
%TO.N,Net-(J21-Pin_2)*%
X122088171Y-84283340D03*
%TO.P,J21,3,Pin_3_3*%
%TO.N,Net-(J21-Pin_3)*%
X124628171Y-84283340D03*
%TO.P,J21,4,Pin_4_4*%
%TO.N,Net-(J21-Pin_4)*%
X127168171Y-84283340D03*
%TO.P,J21,5,Pin_5_5*%
%TO.N,Net-(J21-Pin_5)*%
X129708171Y-84283340D03*
%TO.P,J21,6,Pin_6_6*%
%TO.N,Net-(J21-Pin_6)*%
X132248171Y-84283340D03*
%TO.P,J21,7,Pin_7_7*%
%TO.N,Net-(J21-Pin_7)*%
X134788171Y-84283340D03*
%TO.P,J21,8,Pin_8_8*%
%TO.N,GND*%
X137328171Y-84283340D03*
%TD*%
D12*
%TO.P,R16,1*%
%TO.N,GND*%
X184251600Y-72186800D03*
%TO.P,R16,2*%
%TO.N,G17*%
X194411600Y-72186800D03*
%TD*%
D13*
%TO.P,J19,1,Pin_1_1*%
%TO.N,G16*%
X70250000Y-125810800D03*
D14*
%TO.P,J19,2,Pin_2_2*%
%TO.N,GND*%
X70250000Y-128350800D03*
%TO.P,J19,3,Pin_3_3*%
%TO.N,5VOUT+*%
X70250000Y-130890800D03*
%TD*%
D19*
%TO.P,Q2,1,C_1*%
%TO.N,Net-(J1-Pin_1)*%
X83362800Y-74625200D03*
D20*
%TO.P,Q2,2,B_2*%
%TO.N,Net-(Q2-B)*%
X83362800Y-73355200D03*
%TO.P,Q2,3,E_3*%
%TO.N,GND*%
X83362800Y-72085200D03*
%TD*%
D12*
%TO.P,R15,1*%
%TO.N,GND*%
X123901200Y-76200000D03*
%TO.P,R15,2*%
%TO.N,G27*%
X113741200Y-76200000D03*
%TD*%
D15*
%TO.P,J4,1,Pin_1_1*%
%TO.N,Net-(J4-Pin_1)*%
X190686274Y-53705763D03*
D16*
%TO.P,J4,2,Pin_2_2*%
%TO.N,Net-(D14-A)*%
X190686274Y-48625763D03*
%TO.P,J4,3,Pin_3_3*%
%TO.N,GND*%
X190686274Y-43545763D03*
%TD*%
D22*
%TO.P,D11,1,K_1*%
%TO.N,Net-(D11-K)*%
X183794400Y-144296400D03*
D23*
%TO.P,D11,2,A_2*%
%TO.N,Net-(D11-A)*%
X193954400Y-144296400D03*
%TD*%
D12*
%TO.P,R6,1*%
%TO.N,G32*%
X84080000Y-107100800D03*
%TO.P,R6,2*%
%TO.N,GND*%
X73920000Y-107100800D03*
%TD*%
D26*
%TO.P,J17,1,Pin_1_1*%
%TO.N,Net-(J17-Pin_1)*%
X180531274Y-46258263D03*
D16*
%TO.P,J17,2,Pin_2_2*%
%TO.N,Net-(J17-Pin_2)*%
X175451274Y-46258263D03*
%TD*%
D24*
%TO.P,F2,1*%
%TO.N,Net-(F2-Pad1)*%
X153856274Y-68765763D03*
%TO.P,F2,2*%
%TO.N,Net-(J18-Pin_2)*%
X153856274Y-46265763D03*
%TD*%
D12*
%TO.P,R11,1*%
%TO.N,Turbidity_Signal*%
X73670000Y-119350800D03*
%TO.P,R11,2*%
%TO.N,G33*%
X83830000Y-119350800D03*
%TD*%
D13*
%TO.P,LEsp32,1,Pin_1_1*%
%TO.N,3V3*%
X153771600Y-113385600D03*
D14*
%TO.P,LEsp32,2,Pin_2_2*%
%TO.N,EN*%
X151231600Y-113385600D03*
%TO.P,LEsp32,3,Pin_3_3*%
%TO.N,SP*%
X148691600Y-113385600D03*
%TO.P,LEsp32,4,Pin_4_4*%
%TO.N,SM*%
X146151600Y-113385600D03*
%TO.P,LEsp32,5,Pin_5_5*%
%TO.N,G34*%
X143611600Y-113385600D03*
%TO.P,LEsp32,6,Pin_6_6*%
%TO.N,G35*%
X141071600Y-113385600D03*
%TO.P,LEsp32,7,Pin_7_7*%
%TO.N,G32*%
X138531600Y-113385600D03*
%TO.P,LEsp32,8,Pin_8_8*%
%TO.N,G33*%
X135991600Y-113385600D03*
%TO.P,LEsp32,9,Pin_9_9*%
%TO.N,G25*%
X133451600Y-113385600D03*
%TO.P,LEsp32,10,Pin_10_10*%
%TO.N,G26*%
X130911600Y-113385600D03*
%TO.P,LEsp32,11,Pin_11_11*%
%TO.N,G27*%
X128371600Y-113385600D03*
%TO.P,LEsp32,12,Pin_12_12*%
%TO.N,G14*%
X125831600Y-113385600D03*
%TO.P,LEsp32,13,Pin_13_13*%
%TO.N,G12*%
X123291600Y-113385600D03*
%TO.P,LEsp32,14,Pin_14_14*%
%TO.N,GND*%
X120751600Y-113385600D03*
%TO.P,LEsp32,15,Pin_15_15*%
%TO.N,G13*%
X118211600Y-113385600D03*
%TO.P,LEsp32,16,Pin_16_16*%
%TO.N,SD2*%
X115671600Y-113385600D03*
%TO.P,LEsp32,17,Pin_17_17*%
%TO.N,SD3*%
X113131600Y-113385600D03*
%TO.P,LEsp32,18,Pin_18_18*%
%TO.N,CMD*%
X110591600Y-113385600D03*
%TO.P,LEsp32,19,Pin_19_19*%
%TO.N,5VOUT+*%
X108051600Y-113385600D03*
%TD*%
D12*
%TO.P,R13,1*%
%TO.N,GND*%
X87071200Y-75031600D03*
%TO.P,R13,2*%
%TO.N,G26*%
X97231200Y-75031600D03*
%TD*%
D26*
%TO.P,J16,1,Pin_1_1*%
%TO.N,Net-(D10-K)*%
X136947677Y-45947677D03*
D16*
%TO.P,J16,2,Pin_2_2*%
%TO.N,GND*%
X131867677Y-45947677D03*
%TD*%
D13*
%TO.P,J9,1,Pin_1_1*%
%TO.N,3V3*%
X77756000Y-145242800D03*
D14*
%TO.P,J9,2,Pin_2_2*%
%TO.N,GND*%
X80296000Y-145242800D03*
%TO.P,J9,3,Pin_3_3*%
%TO.N,G25*%
X82836000Y-145242800D03*
%TD*%
D13*
%TO.P,J5,1,Pin_1_1*%
%TO.N,5VOUT+*%
X95656400Y-121818400D03*
D14*
%TO.P,J5,2,Pin_2_2*%
%TO.N,GND*%
X95656400Y-124358400D03*
%TO.P,J5,3,Pin_3_3*%
%TO.N,G22*%
X95656400Y-126898400D03*
%TO.P,J5,4,Pin_4_4*%
%TO.N,G21*%
X95656400Y-129438400D03*
%TD*%
D12*
%TO.P,R21,1*%
%TO.N,Net-(D11-K)*%
X176730000Y-146679600D03*
%TO.P,R21,2*%
%TO.N,SP*%
X176730000Y-136519600D03*
%TD*%
%TO.P,R4,1*%
%TO.N,pH_Signal*%
X73920000Y-102100800D03*
%TO.P,R4,2*%
%TO.N,G32*%
X84080000Y-102100800D03*
%TD*%
%TO.P,R19,1*%
%TO.N,SP*%
X172990000Y-136649600D03*
%TO.P,R19,2*%
%TO.N,GND*%
X172990000Y-146809600D03*
%TD*%
%TO.P,R12,1*%
%TO.N,G33*%
X84080000Y-114350800D03*
%TO.P,R12,2*%
%TO.N,GND*%
X73920000Y-114350800D03*
%TD*%
D27*
%TO.P,D1,1,K_1*%
%TO.N,Net-(D1-K)*%
X176610000Y-104390000D03*
D23*
%TO.P,D1,2,A_2*%
%TO.N,R12V+*%
X176610000Y-94230000D03*
%TD*%
D12*
%TO.P,R10,1*%
%TO.N,Net-(J21-Pin_4)*%
X127117370Y-89865200D03*
%TO.P,R10,2*%
%TO.N,G4*%
X127117370Y-100025200D03*
%TD*%
%TO.P,R8,1*%
%TO.N,G26*%
X97332800Y-71729600D03*
%TO.P,R8,2*%
%TO.N,Net-(Q2-B)*%
X87172800Y-71729600D03*
%TD*%
D13*
%TO.P,J20,1,Pin_1_1*%
%TO.N,12V_IN+*%
X191000000Y-84020000D03*
D14*
%TO.P,J20,2,Pin_2_2*%
%TO.N,GND*%
X191000000Y-81480000D03*
%TD*%
D24*
%TO.P,K5,1*%
%TO.N,Net-(F2-Pad1)*%
X161866274Y-61325763D03*
D25*
%TO.P,K5,2*%
%TO.N,Net-(D14-A)*%
X163816274Y-67375763D03*
D24*
%TO.P,K5,3*%
%TO.N,Net-(J17-Pin_1)*%
X176016274Y-67375763D03*
%TO.P,K5,4*%
%TO.N,unconnected-(K5-Pad4)*%
X176066274Y-55325763D03*
D25*
%TO.P,K5,5*%
%TO.N,12V_IN+*%
X163816274Y-55375763D03*
%TD*%
D15*
%TO.P,J14,1,Pin_1_1*%
%TO.N,Net-(D11-K)*%
X190042800Y-125709000D03*
D16*
%TO.P,J14,2,Pin_2_2*%
%TO.N,GND*%
X190042800Y-120629000D03*
%TD*%
D12*
%TO.P,C2,1*%
%TO.N,12V_IN+*%
X93530800Y-60893200D03*
%TO.P,C2,2*%
%TO.N,GND*%
X93530800Y-65893200D03*
%TD*%
%TO.P,R7,1*%
%TO.N,Net-(J21-Pin_2)*%
X114675719Y-89871340D03*
%TO.P,R7,2*%
%TO.N,G27*%
X114675719Y-100031340D03*
%TD*%
%TO.P,R20,1*%
%TO.N,Net-(J21-Pin_5)*%
X133146800Y-89865200D03*
%TO.P,R20,2*%
%TO.N,G23*%
X133146800Y-100025200D03*
%TD*%
D27*
%TO.P,D14,1,K_1*%
%TO.N,12V_IN+*%
X183066274Y-68945763D03*
D23*
%TO.P,D14,2,A_2*%
%TO.N,Net-(D14-A)*%
X183066274Y-58785763D03*
%TD*%
D12*
%TO.P,4.7kom1,1*%
%TO.N,3V3*%
X74676000Y-139242800D03*
%TO.P,4.7kom1,2*%
%TO.N,G25*%
X84836000Y-139242800D03*
%TD*%
D13*
%TO.P,J8,1,Pin_1_1*%
%TO.N,5VOUT+*%
X70044903Y-114270800D03*
D14*
%TO.P,J8,2,Pin_2_2*%
%TO.N,GND*%
X70044903Y-116810800D03*
%TO.P,J8,3,Pin_3_3*%
%TO.N,Turbidity_Signal*%
X70044903Y-119350800D03*
%TD*%
D26*
%TO.P,J12,1,Pin_1_1*%
%TO.N,Net-(J12-Pin_1)*%
X124427677Y-45902677D03*
D16*
%TO.P,J12,2,Pin_2_2*%
%TO.N,Net-(D13-A)*%
X119347677Y-45902677D03*
%TO.P,J12,3,Pin_3_3*%
%TO.N,GND*%
X114267677Y-45902677D03*
%TD*%
D13*
%TO.P,J7,1,Pin_1_1*%
%TO.N,5VOUT+*%
X70000000Y-107640800D03*
D14*
%TO.P,J7,2,Pin_2_2*%
%TO.N,GND*%
X70000000Y-105100800D03*
%TO.P,J7,3,Pin_3_3*%
%TO.N,pH_Signal*%
X70000000Y-102560800D03*
%TD*%
D22*
%TO.P,D9,1,K_1*%
%TO.N,Net-(D9-K)*%
X91440000Y-54610000D03*
D23*
%TO.P,D9,2,A_2*%
%TO.N,GND*%
X101600000Y-54610000D03*
%TD*%
D24*
%TO.P,F1,1*%
%TO.N,Net-(D11-K)*%
X178257200Y-131162400D03*
%TO.P,F1,2*%
%TO.N,Net-(D1-K)*%
X178257200Y-108662400D03*
%TD*%
D28*
%TO.P,C9,1*%
%TO.N,12V_IN+*%
X179020000Y-83770000D03*
D12*
%TO.P,C9,2*%
%TO.N,GND*%
X177020000Y-83770000D03*
%TD*%
%TO.P,C4,1*%
%TO.N,3V3*%
X153750000Y-109626400D03*
%TO.P,C4,2*%
%TO.N,GND*%
X158750000Y-109626400D03*
%TD*%
D18*
%TO.P,SW1,1,1_1*%
%TO.N,EN*%
X94843600Y-144932400D03*
X88343600Y-144932400D03*
%TO.P,SW1,2,2_2*%
%TO.N,GND*%
X94843600Y-140432400D03*
X88343600Y-140432400D03*
%TD*%
D21*
%TO.P,C6,1*%
%TO.N,12V_IN+*%
X108850000Y-72140000D03*
D18*
%TO.P,C6,2*%
%TO.N,GND*%
X103850000Y-72140000D03*
%TD*%
D13*
%TO.P,J3,1,Pin_1_1*%
%TO.N,12V_IN+*%
X92900000Y-109160000D03*
D14*
%TO.P,J3,2,Pin_2_2*%
%TO.N,GND*%
X92900000Y-111700000D03*
%TO.P,J3,3,Pin_3_3*%
%TO.N,5VOUT+*%
X92900000Y-114240000D03*
%TO.P,J3,4,Pin_4_4*%
%TO.N,GND*%
X92900000Y-116780000D03*
%TD*%
D27*
%TO.P,D2,1,K_1*%
%TO.N,5VOUT+*%
X91490800Y-95148400D03*
D23*
%TO.P,D2,2,A_2*%
%TO.N,Net-(D2-A)*%
X91490800Y-84988400D03*
%TD*%
D26*
%TO.P,J11,1,Pin_1_1*%
%TO.N,Net-(D9-K)*%
X99065000Y-45547500D03*
D16*
%TO.P,J11,2,Pin_2_2*%
%TO.N,GND*%
X93985000Y-45547500D03*
%TD*%
D19*
%TO.P,Q3,1,C_1*%
%TO.N,Net-(J12-Pin_1)*%
X131364400Y-72237600D03*
D20*
%TO.P,Q3,2,B_2*%
%TO.N,Net-(Q3-B)*%
X131364400Y-73507600D03*
%TO.P,Q3,3,E_3*%
%TO.N,GND*%
X131364400Y-74777600D03*
%TD*%
D13*
%TO.P,Resp32,1,Pin_1_1*%
%TO.N,GND*%
X153771600Y-138785600D03*
D14*
%TO.P,Resp32,2,Pin_2_2*%
%TO.N,G23*%
X151231600Y-138785600D03*
%TO.P,Resp32,3,Pin_3_3*%
%TO.N,G22*%
X148691600Y-138785600D03*
%TO.P,Resp32,4,Pin_4_4*%
%TO.N,TX*%
X146151600Y-138785600D03*
%TO.P,Resp32,5,Pin_5_5*%
%TO.N,RX*%
X143611600Y-138785600D03*
%TO.P,Resp32,6,Pin_6_6*%
%TO.N,G21*%
X141071600Y-138785600D03*
%TO.P,Resp32,7,Pin_7_7*%
%TO.N,GND*%
X138531600Y-138785600D03*
%TO.P,Resp32,8,Pin_8_8*%
%TO.N,G19*%
X135991600Y-138785600D03*
%TO.P,Resp32,9,Pin_9_9*%
%TO.N,G18*%
X133451600Y-138785600D03*
%TO.P,Resp32,10,Pin_10_10*%
%TO.N,G5*%
X130911600Y-138785600D03*
%TO.P,Resp32,11,Pin_11_11*%
%TO.N,G17*%
X128371600Y-138785600D03*
%TO.P,Resp32,12,Pin_12_12*%
%TO.N,G16*%
X125831600Y-138785600D03*
%TO.P,Resp32,13,Pin_13_13*%
%TO.N,G4*%
X123291600Y-138785600D03*
%TO.P,Resp32,14,Pin_14_14*%
%TO.N,G0*%
X120751600Y-138785600D03*
%TO.P,Resp32,15,Pin_15_15*%
%TO.N,G2*%
X118211600Y-138785600D03*
%TO.P,Resp32,16,Pin_16_16*%
%TO.N,G15*%
X115671600Y-138785600D03*
%TO.P,Resp32,17,Pin_17_17*%
%TO.N,SD1*%
X113131600Y-138785600D03*
%TO.P,Resp32,18,Pin_18_18*%
%TO.N,SD0*%
X110591600Y-138785600D03*
%TO.P,Resp32,19,Pin_19_19*%
%TO.N,CLK*%
X108051600Y-138785600D03*
%TD*%
D29*
%TO.P,D13,1,K_1*%
%TO.N,12V_IN+*%
X108407200Y-42722800D03*
D23*
%TO.P,D13,2,A_2*%
%TO.N,Net-(D13-A)*%
X108407200Y-52882800D03*
%TD*%
D30*
%TO.P,C1,1*%
%TO.N,12V_IN+*%
X85910800Y-62433200D03*
D12*
%TO.P,C1,2*%
%TO.N,GND*%
X85910800Y-65933200D03*
%TD*%
D15*
%TO.P,J15,1,Pin_1_1*%
%TO.N,Net-(D11-A)*%
X190042800Y-137799000D03*
D16*
%TO.P,J15,2,Pin_2_2*%
%TO.N,GND*%
X190042800Y-132719000D03*
%TD*%
D12*
%TO.P,R5,1*%
%TO.N,Net-(J21-Pin_1)*%
X108676971Y-89922140D03*
%TO.P,R5,2*%
%TO.N,G26*%
X108676971Y-100082140D03*
%TD*%
%TO.P,R9,1*%
%TO.N,Net-(J21-Pin_3)*%
X121119539Y-89814776D03*
%TO.P,R9,2*%
%TO.N,G17*%
X121119539Y-99974776D03*
%TD*%
%TO.P,C8,1*%
%TO.N,12V_IN+*%
X186880000Y-83830000D03*
%TO.P,C8,2*%
%TO.N,GND*%
X181880000Y-83830000D03*
%TD*%
%TO.P,R17,1*%
%TO.N,G27*%
X113787677Y-72644000D03*
%TO.P,R17,2*%
%TO.N,Net-(Q3-B)*%
X123947677Y-72644000D03*
%TD*%
D31*
%TO.P,D12,1,K_1*%
%TO.N,12V_IN+*%
X80213200Y-58724800D03*
D23*
%TO.P,D12,2,A_2*%
%TO.N,Net-(D12-A)*%
X70053200Y-58724800D03*
%TD*%
D13*
%TO.P,J10,1,Pin_1_1*%
%TO.N,3V3*%
X70149200Y-142126000D03*
D14*
%TO.P,J10,2,Pin_2_2*%
%TO.N,GND*%
X70149200Y-139586000D03*
%TO.P,J10,3,Pin_3_3*%
%TO.N,G34*%
X70149200Y-137046000D03*
%TD*%
D19*
%TO.P,Q1,1,C_1*%
%TO.N,Net-(D2-A)*%
X94492400Y-82143600D03*
D20*
%TO.P,Q1,2,B_2*%
%TO.N,Net-(Q1-B)*%
X94492400Y-80873600D03*
%TO.P,Q1,3,E_3*%
%TO.N,GND*%
X94492400Y-79603600D03*
%TD*%
D32*
%TO.P,J13,1,Pin_1_1*%
%TO.N,5VOUT+*%
X73964800Y-83464400D03*
D16*
%TO.P,J13,2,Pin_2_2*%
%TO.N,GND*%
X73964800Y-88544400D03*
%TO.P,J13,3,Pin_3_3*%
%TO.N,G23*%
X73964800Y-93624400D03*
%TD*%
D28*
%TO.P,C5,1*%
%TO.N,12V_IN+*%
X107767677Y-61002677D03*
D12*
%TO.P,C5,2*%
%TO.N,GND*%
X104267677Y-61002677D03*
%TD*%
D15*
%TO.P,J13PSW1,1,Pin_1_1*%
%TO.N,12V_IN+*%
X190042800Y-113664000D03*
D16*
%TO.P,J13PSW1,2,Pin_2_2*%
%TO.N,Net-(D11-K)*%
X190042800Y-108584000D03*
%TD*%
D33*
%TO.P,C7,1*%
%TO.N,Net-(D10-K)*%
X137000000Y-59702677D03*
D18*
%TO.P,C7,2*%
%TO.N,GND*%
X142000000Y-59702677D03*
%TD*%
D24*
%TO.P,K6,1*%
%TO.N,12V_IN+*%
X113067677Y-62202677D03*
D25*
%TO.P,K6,2*%
%TO.N,Net-(D13-A)*%
X115017677Y-68252677D03*
D24*
%TO.P,K6,3*%
%TO.N,Net-(D10-K)*%
X127217677Y-68252677D03*
%TO.P,K6,4*%
%TO.N,unconnected-(K6-Pad4)*%
X127267677Y-56202677D03*
D25*
%TO.P,K6,5*%
%TO.N,12V_IN+*%
X115017677Y-56252677D03*
%TD*%
D13*
%TO.P,J22,1,Pin_1_1*%
%TO.N,unconnected-(J22-Pin_1-Pad1)*%
X167070000Y-82570000D03*
D14*
%TO.P,J22,2,Pin_2_2*%
%TO.N,unconnected-(J22-Pin_2-Pad2)*%
X164530000Y-82570000D03*
%TO.P,J22,3,Pin_3_3*%
%TO.N,G22*%
X161990000Y-82570000D03*
%TO.P,J22,4,Pin_4_4*%
%TO.N,G21*%
X159450000Y-82570000D03*
%TO.P,J22,5,Pin_5_5*%
%TO.N,3V3*%
X156910000Y-82570000D03*
%TO.P,J22,6,Pin_6_6*%
%TO.N,GND*%
X154370000Y-82570000D03*
%TD*%
D32*
%TO.P,J1,1,Pin_1_1*%
%TO.N,Net-(J1-Pin_1)*%
X73832500Y-63992650D03*
D16*
%TO.P,J1,2,Pin_2_2*%
%TO.N,Net-(D12-A)*%
X73832500Y-69072650D03*
%TO.P,J1,3,Pin_3_3*%
%TO.N,GND*%
X73832500Y-74152650D03*
%TD*%
D26*
%TO.P,J18,1,Pin_1_1*%
%TO.N,Net-(J17-Pin_2)*%
X167826274Y-46085763D03*
D16*
%TO.P,J18,2,Pin_2_2*%
%TO.N,Net-(J18-Pin_2)*%
X162746274Y-46085763D03*
%TD*%
D34*
%TO.N,EN*%
X150825200Y-117856000D03*
%TO.N,3V3*%
X158648400Y-114198400D03*
X155690000Y-86140000D03*
X151060000Y-108450000D03*
%TO.N,5VOUT+*%
X106273600Y-107086400D03*
%TO.N,G13*%
X116484400Y-116281200D03*
%TO.N,G17*%
X165963600Y-104394000D03*
X128551200Y-142368800D03*
%TO.N,GND*%
X158699200Y-137566400D03*
%TO.N,G16*%
X125831600Y-135585200D03*
%TO.N,G27*%
X127740315Y-111175797D03*
%TO.N,G32*%
X137058400Y-117805200D03*
%TO.N,G33*%
X96676742Y-117966284D03*
X86563200Y-119583200D03*
%TO.N,SM*%
X146151600Y-109778800D03*
%TO.N,G35*%
X140970000Y-109626400D03*
%TO.N,G25*%
X133451600Y-109423200D03*
%TO.N,G26*%
X107696000Y-103886000D03*
X130911600Y-116890800D03*
X103936800Y-87122000D03*
%TO.N,G14*%
X125882400Y-116941600D03*
%TO.N,G12*%
X123139200Y-117043200D03*
%TO.N,SD2*%
X112979200Y-109321600D03*
%TO.N,SD3*%
X110693200Y-107645200D03*
%TO.N,CMD*%
X108712000Y-109524800D03*
%TO.N,G22*%
X163400000Y-86200000D03*
X143448800Y-132171200D03*
X145338800Y-134061200D03*
%TO.N,G21*%
X159430000Y-86220000D03*
X140491932Y-135501051D03*
X138375000Y-133745000D03*
%TO.N,G4*%
X123850400Y-143611600D03*
%TO.N,G23*%
X149098000Y-134112000D03*
%TO.N,TX*%
X146202400Y-141653600D03*
%TO.N,RX*%
X143103600Y-141653600D03*
%TO.N,G19*%
X135178800Y-141579600D03*
%TO.N,G18*%
X132842000Y-135737600D03*
%TO.N,G5*%
X131673600Y-141528800D03*
%TO.N,G0*%
X121158000Y-143154400D03*
%TO.N,G2*%
X118618000Y-143002000D03*
%TO.N,G15*%
X115976400Y-143002000D03*
%TO.N,SD1*%
X113182400Y-143002000D03*
%TO.N,SD0*%
X109931200Y-143052800D03*
%TO.N,CLK*%
X104495600Y-142646400D03*
%TD*%
%TO.N,EN*%
D35*
X153060400Y-120954800D02*
X163220400Y-120954800D01*
X167182800Y-124917200D02*
X167182800Y-137718800D01*
X150825200Y-117856000D02*
X150825200Y-118719600D01*
X151231600Y-117449600D02*
X150825200Y-117856000D01*
X159156400Y-145745200D02*
X100279200Y-145745200D01*
X167182800Y-137718800D02*
X159156400Y-145745200D01*
X150825200Y-118719600D02*
X153060400Y-120954800D01*
X163220400Y-120954800D02*
X167182800Y-124917200D01*
X151231600Y-113385600D02*
X151231600Y-117449600D01*
X100279200Y-145745200D02*
X100126800Y-145592800D01*
%TO.N,G13*%
D36*
X150050000Y-100580000D02*
X147861600Y-102768400D01*
X87884000Y-81127600D02*
X90017600Y-78994000D01*
X134620000Y-102768400D02*
X127660400Y-109728000D01*
X90017600Y-78994000D02*
X90017600Y-71628000D01*
X90017600Y-71628000D02*
X93421200Y-68224400D01*
X97688400Y-95199200D02*
X86918800Y-105968800D01*
X104495600Y-100990400D02*
X104495600Y-115265200D01*
X81686400Y-83820000D02*
X84378800Y-81127600D01*
X116738400Y-108407200D02*
X116738400Y-98806000D01*
X100431600Y-76531600D02*
X103910000Y-80010000D01*
X98755200Y-68224400D02*
X100431600Y-69900800D01*
X104495600Y-115265200D02*
X106222800Y-116992400D01*
X116738400Y-98806000D02*
X115976400Y-98044000D01*
X127660400Y-109728000D02*
X118059200Y-109728000D01*
X93421200Y-68224400D02*
X98755200Y-68224400D01*
X147861600Y-102768400D02*
X134620000Y-102768400D01*
X81686400Y-98806000D02*
X81686400Y-83820000D01*
X86918800Y-108204000D02*
X85598000Y-109524800D01*
X80314800Y-100177600D02*
X81686400Y-98806000D01*
X116992400Y-116992400D02*
X118211600Y-115773200D01*
X106222800Y-116992400D02*
X116992400Y-116992400D01*
X150050000Y-87250000D02*
X150050000Y-100580000D01*
X86918800Y-105968800D02*
X86918800Y-108204000D01*
X84378800Y-81127600D02*
X87884000Y-81127600D01*
X100431600Y-69900800D02*
X100431600Y-76531600D01*
X107442000Y-98044000D02*
X104495600Y-100990400D01*
X118211600Y-115773200D02*
X118211600Y-113385600D01*
X80314800Y-107950000D02*
X80314800Y-100177600D01*
X81889600Y-109524800D02*
X80314800Y-107950000D01*
X142810000Y-80010000D02*
X150050000Y-87250000D01*
X85598000Y-109524800D02*
X81889600Y-109524800D01*
X118059200Y-109728000D02*
X116738400Y-108407200D01*
X115976400Y-98044000D02*
X107442000Y-98044000D01*
X103910000Y-80010000D02*
X142810000Y-80010000D01*
%TO.N,G17*%
X122631200Y-105562400D02*
X121119539Y-104050739D01*
D35*
X191949200Y-77240000D02*
X194411600Y-74777600D01*
D36*
X150215600Y-123850400D02*
X104698800Y-123850400D01*
X131165600Y-103530400D02*
X129133600Y-105562400D01*
X162864800Y-136499600D02*
X150215600Y-123850400D01*
X106172000Y-93167200D02*
X127914400Y-93167200D01*
D35*
X171250000Y-83840000D02*
X177850000Y-77240000D01*
D36*
X127914400Y-93167200D02*
X131165600Y-96418400D01*
X100076000Y-99263200D02*
X106172000Y-93167200D01*
X129133600Y-105562400D02*
X122631200Y-105562400D01*
X104698800Y-123850400D02*
X100076000Y-119227600D01*
D35*
X177850000Y-77240000D02*
X191949200Y-77240000D01*
X171250000Y-99107600D02*
X171250000Y-83840000D01*
X194411600Y-74777600D02*
X194411600Y-72186800D01*
D36*
X162864800Y-138023600D02*
X162864800Y-136499600D01*
X128371600Y-138785600D02*
X128371600Y-142341600D01*
X129133600Y-143103600D02*
X157784800Y-143103600D01*
X128371600Y-142341600D02*
X129133600Y-143103600D01*
X121119539Y-104050739D02*
X121119539Y-99974776D01*
X100076000Y-119227600D02*
X100076000Y-99263200D01*
D35*
X165963600Y-104394000D02*
X171250000Y-99107600D01*
D36*
X131165600Y-96418400D02*
X131165600Y-103530400D01*
X157784800Y-143103600D02*
X162864800Y-138023600D01*
%TO.N,G16*%
D37*
X97332800Y-134670800D02*
X99364800Y-132638800D01*
X124104400Y-132638800D02*
X125831600Y-134366000D01*
X99364800Y-132638800D02*
X124104400Y-132638800D01*
X72318400Y-125810800D02*
X81178400Y-134670800D01*
X70250000Y-125810800D02*
X72318400Y-125810800D01*
X81178400Y-134670800D02*
X97332800Y-134670800D01*
X125831600Y-134366000D02*
X125831600Y-138785600D01*
%TO.N,G27*%
D36*
X117246400Y-110744000D02*
X114675719Y-108173319D01*
X143550000Y-78480000D02*
X151480000Y-86410000D01*
X126746000Y-110744000D02*
X117246400Y-110744000D01*
X134924800Y-103936800D02*
X128371600Y-110490000D01*
X114675719Y-108173319D02*
X114675719Y-100031340D01*
X114497200Y-78480000D02*
X143550000Y-78480000D01*
X151480000Y-100690000D02*
X148233200Y-103936800D01*
X113741200Y-77724000D02*
X114497200Y-78480000D01*
X151480000Y-86410000D02*
X151480000Y-100690000D01*
X113741200Y-76200000D02*
X113741200Y-77724000D01*
X148233200Y-103936800D02*
X134924800Y-103936800D01*
X128371600Y-112369600D02*
X126746000Y-110744000D01*
X128371600Y-110490000D02*
X128371600Y-113385600D01*
X128371600Y-113385600D02*
X128371600Y-112369600D01*
%TO.N,G32*%
X99466400Y-77646400D02*
X103049200Y-81229200D01*
X107188000Y-96418400D02*
X103022400Y-100584000D01*
X148488400Y-100491600D02*
X147278400Y-101701600D01*
X84080000Y-99828000D02*
X83640000Y-99388000D01*
X99466400Y-70256400D02*
X99466400Y-77646400D01*
X148488400Y-88088400D02*
X148488400Y-100491600D01*
X91590000Y-79380000D02*
X91590000Y-72036800D01*
X119075200Y-108712000D02*
X118059200Y-107696000D01*
X116027200Y-96418400D02*
X107188000Y-96418400D01*
X103022400Y-116027200D02*
X106019600Y-119024400D01*
X98501200Y-69291200D02*
X99466400Y-70256400D01*
X127152400Y-108762800D02*
X119075200Y-108762800D01*
X83640000Y-84290000D02*
X85420000Y-82510000D01*
X147278400Y-101701600D02*
X134213600Y-101701600D01*
X134213600Y-101701600D02*
X127152400Y-108762800D01*
X84080000Y-102100800D02*
X84080000Y-99828000D01*
X106019600Y-119024400D02*
X135839200Y-119024400D01*
X138531600Y-116332000D02*
X138531600Y-113385600D01*
X141629200Y-81229200D02*
X148488400Y-88088400D01*
X103022400Y-100584000D02*
X103022400Y-116027200D01*
X119075200Y-108762800D02*
X119075200Y-108712000D01*
X118059200Y-98450400D02*
X116027200Y-96418400D01*
X83640000Y-99388000D02*
X83640000Y-84290000D01*
X103049200Y-81229200D02*
X141629200Y-81229200D01*
X94335600Y-69291200D02*
X98501200Y-69291200D01*
X118059200Y-107696000D02*
X118059200Y-98450400D01*
X91590000Y-72036800D02*
X94335600Y-69291200D01*
X88460000Y-82510000D02*
X91590000Y-79380000D01*
X85420000Y-82510000D02*
X88460000Y-82510000D01*
X135839200Y-119024400D02*
X138531600Y-116332000D01*
%TO.N,G25*%
D37*
X169062400Y-138785600D02*
X169062400Y-112725200D01*
X161798000Y-105460800D02*
X135839200Y-105460800D01*
X85801200Y-140208000D02*
X85801200Y-146253200D01*
X135839200Y-105460800D02*
X133400800Y-107899200D01*
X133400800Y-107899200D02*
X133400800Y-111861600D01*
X85801200Y-146253200D02*
X87071200Y-147523200D01*
X84836000Y-139242800D02*
X85801200Y-140208000D01*
X160324800Y-147523200D02*
X169062400Y-138785600D01*
X87071200Y-147523200D02*
X160324800Y-147523200D01*
X133400800Y-111861600D02*
X133451600Y-111912400D01*
X133451600Y-111912400D02*
X133451600Y-113385600D01*
X169062400Y-112725200D02*
X161798000Y-105460800D01*
%TO.N,G22*%
D36*
X96266000Y-127508000D02*
X138785600Y-127508000D01*
X148691600Y-137414000D02*
X148691600Y-138785600D01*
X138785600Y-127508000D02*
X148691600Y-137414000D01*
X95656400Y-126898400D02*
X96266000Y-127508000D01*
%TO.N,G21*%
D37*
X95656400Y-129438400D02*
X134010400Y-129438400D01*
X141071600Y-136499600D02*
X141071600Y-138785600D01*
X134010400Y-129438400D02*
X141071600Y-136499600D01*
%TO.N,G4*%
D36*
X106934000Y-94640400D02*
X125476000Y-94640400D01*
X101600000Y-118262400D02*
X101600000Y-99974400D01*
X104851200Y-121513600D02*
X101600000Y-118262400D01*
X164185600Y-138785600D02*
X164185600Y-134924800D01*
X125476000Y-94640400D02*
X127117370Y-96281770D01*
X150774400Y-121513600D02*
X104851200Y-121513600D01*
X158648400Y-144322800D02*
X164185600Y-138785600D01*
X164185600Y-134924800D02*
X150774400Y-121513600D01*
X124561600Y-144322800D02*
X158648400Y-144322800D01*
X123291600Y-138785600D02*
X123291600Y-143052800D01*
X101600000Y-99974400D02*
X106934000Y-94640400D01*
X123291600Y-143052800D02*
X124561600Y-144322800D01*
X127117370Y-96281770D02*
X127117370Y-100025200D01*
%TO.N,G23*%
X85953600Y-110642400D02*
X80721200Y-110642400D01*
X98704400Y-100076000D02*
X98704400Y-99466400D01*
X140970000Y-125984000D02*
X102463600Y-125984000D01*
X98704400Y-99466400D02*
X98145600Y-98907600D01*
X78486000Y-94996000D02*
X77114400Y-93624400D01*
X133248400Y-96570800D02*
X133146800Y-96672400D01*
X88087200Y-108508800D02*
X85953600Y-110642400D01*
X128625600Y-91948000D02*
X133248400Y-96570800D01*
X102463600Y-125984000D02*
X98704400Y-122224800D01*
X98704400Y-122224800D02*
X98704400Y-98907600D01*
X149098000Y-134112000D02*
X140970000Y-125984000D01*
X78486000Y-108407200D02*
X78486000Y-94996000D01*
X151231600Y-136245600D02*
X151231600Y-138785600D01*
X105664000Y-91948000D02*
X128625600Y-91948000D01*
X80721200Y-110642400D02*
X78486000Y-108407200D01*
X88087200Y-106527600D02*
X88087200Y-108508800D01*
X98704400Y-98907600D02*
X105664000Y-91948000D01*
X77114400Y-93624400D02*
X73964800Y-93624400D01*
X98145600Y-98907600D02*
X95707200Y-98907600D01*
X98145600Y-98907600D02*
X98704400Y-98907600D01*
X133146800Y-96672400D02*
X133146800Y-100025200D01*
X149098000Y-134112000D02*
X151231600Y-136245600D01*
X95707200Y-98907600D02*
X88087200Y-106527600D01*
%TD*%
M02*
