M48
; DRILL file KiCad 10.0.3 date 2026-08-09T20:17:25
; FORMAT={-:-/ absolute / metric / decimal}
; #@! TF.CreationDate,2026-08-09T20:17:25+05:30
; #@! TF.GenerationSoftware,Kicad,Pcbnew,10.0.3
; #@! TF.FileFunction,Plated,1,2,PTH
FMAT,2
METRIC
; #@! TA.AperFunction,Plated,PTH,ComponentDrill
T1C0.750
; #@! TA.AperFunction,Plated,PTH,ComponentDrill
T2C0.800
; #@! TA.AperFunction,Plated,PTH,ViaDrill
T3C1.000
; #@! TA.AperFunction,Plated,PTH,ComponentDrill
T4C1.000
; #@! TA.AperFunction,Plated,PTH,ComponentDrill
T5C1.100
; #@! TA.AperFunction,Plated,PTH,ComponentDrill
T6C1.300
%
G90
G05
T1
X83.363Y-72.085
X83.363Y-73.355
X83.363Y-74.625
X94.492Y-79.604
X94.492Y-80.874
X94.492Y-82.144
X131.364Y-72.238
X131.364Y-73.508
X131.364Y-74.778
X189.416Y-60.056
X189.416Y-61.326
X189.416Y-62.596
T2
X73.67Y-119.351
X73.92Y-102.101
X73.92Y-107.101
X73.92Y-114.351
X74.676Y-139.243
X83.83Y-119.351
X84.08Y-102.101
X84.08Y-107.101
X84.08Y-114.351
X84.836Y-139.243
X85.911Y-62.433
X85.911Y-65.933
X87.071Y-75.032
X87.173Y-71.73
X93.531Y-60.893
X93.531Y-65.893
X97.231Y-75.032
X97.333Y-71.73
X97.688Y-85.039
X97.688Y-95.199
X100.127Y-135.433
X100.127Y-145.593
X104.268Y-61.003
X107.768Y-61.003
X108.677Y-89.922
X108.677Y-100.082
X113.741Y-76.2
X113.788Y-72.644
X114.676Y-89.871
X114.676Y-100.031
X121.12Y-89.815
X121.12Y-99.975
X123.901Y-76.2
X123.948Y-72.644
X127.117Y-89.865
X127.117Y-100.025
X133.147Y-89.865
X133.147Y-100.025
X138.884Y-89.857
X138.884Y-100.017
X145.179Y-89.869
X145.179Y-100.029
X153.75Y-109.626
X158.75Y-109.626
X172.99Y-136.65
X172.99Y-146.81
X176.73Y-136.52
X176.73Y-146.68
X177.02Y-83.77
X179.02Y-83.77
X181.88Y-83.83
X184.252Y-72.187
X186.88Y-83.83
X194.412Y-72.187
X194.496Y-58.786
X194.496Y-68.946
T3
X86.563Y-119.583
X96.677Y-117.966
X103.937Y-87.122
X104.496Y-142.646
X106.274Y-107.086
X107.696Y-103.886
X108.712Y-109.525
X109.931Y-143.053
X110.693Y-107.645
X112.979Y-109.322
X113.182Y-143.002
X115.976Y-143.002
X116.484Y-116.281
X118.618Y-143.002
X121.158Y-143.154
X123.139Y-117.043
X123.85Y-143.612
X125.832Y-135.585
X125.882Y-116.942
X127.74Y-111.176
X128.551Y-142.369
X130.912Y-116.891
X131.674Y-141.529
X132.842Y-135.738
X133.452Y-109.423
X135.179Y-141.58
X137.058Y-117.805
X138.375Y-133.745
X140.492Y-135.501
X140.97Y-109.626
X143.104Y-141.654
X143.449Y-132.171
X145.339Y-134.061
X146.152Y-109.779
X146.202Y-141.654
X149.098Y-134.112
X150.825Y-117.856
X151.06Y-108.45
X155.69Y-86.14
X158.648Y-114.198
X158.699Y-137.566
X159.43Y-86.22
X163.4Y-86.2
X165.964Y-104.394
T4
X70.0Y-102.561
X70.0Y-105.101
X70.0Y-107.641
X70.045Y-114.271
X70.045Y-116.811
X70.045Y-119.351
X70.149Y-137.046
X70.149Y-139.586
X70.149Y-142.126
X70.25Y-125.811
X70.25Y-128.351
X70.25Y-130.891
X72.19Y-42.61
X72.19Y-54.61
X77.756Y-145.243
X80.296Y-145.243
X82.836Y-145.243
X84.12Y-127.11
X87.376Y-86.004
X87.376Y-88.544
X89.12Y-127.11
X92.9Y-109.16
X92.9Y-111.7
X92.9Y-114.24
X92.9Y-116.78
X95.656Y-121.818
X95.656Y-124.358
X95.656Y-126.898
X95.656Y-129.438
X103.85Y-72.14
X108.052Y-113.386
X108.052Y-138.786
X108.85Y-72.14
X110.592Y-113.386
X110.592Y-138.786
X113.132Y-113.386
X113.132Y-138.786
X115.018Y-56.253
X115.018Y-68.253
X115.672Y-113.386
X115.672Y-138.786
X118.212Y-113.386
X118.212Y-138.786
X119.548Y-84.283
X120.752Y-113.386
X120.752Y-138.786
X122.088Y-84.283
X123.292Y-113.386
X123.292Y-138.786
X124.628Y-84.283
X125.832Y-113.386
X125.832Y-138.786
X127.168Y-84.283
X128.372Y-113.386
X128.372Y-138.786
X129.708Y-84.283
X130.912Y-113.386
X130.912Y-138.786
X132.248Y-84.283
X133.452Y-113.386
X133.452Y-138.786
X134.788Y-84.283
X135.992Y-113.386
X135.992Y-138.786
X137.0Y-59.703
X137.328Y-84.283
X138.532Y-113.386
X138.532Y-138.786
X141.072Y-113.386
X141.072Y-138.786
X142.0Y-59.703
X143.612Y-113.386
X143.612Y-138.786
X146.152Y-113.386
X146.152Y-138.786
X148.692Y-113.386
X148.692Y-138.786
X151.232Y-113.386
X151.232Y-138.786
X153.772Y-113.386
X153.772Y-138.786
X154.37Y-82.57
X156.91Y-82.57
X159.45Y-82.57
X161.99Y-82.57
X163.816Y-55.376
X163.816Y-67.376
X164.53Y-82.57
X167.07Y-82.57
X181.74Y-88.98
X181.74Y-93.98
X181.74Y-98.98
X181.74Y-103.98
X191.0Y-81.48
X191.0Y-84.02
T5
X70.053Y-58.725
X80.213Y-58.725
X88.344Y-140.432
X88.344Y-144.932
X91.44Y-54.61
X91.491Y-84.988
X91.491Y-95.148
X94.844Y-140.432
X94.844Y-144.932
X101.6Y-54.61
X108.407Y-42.723
X108.407Y-52.883
X134.898Y-68.503
X145.058Y-68.503
X176.61Y-94.23
X176.61Y-104.39
X183.066Y-58.786
X183.066Y-68.946
X183.794Y-144.296
X193.954Y-144.296
T6
X70.24Y-48.56
X73.832Y-63.993
X73.832Y-69.073
X73.832Y-74.153
X73.965Y-83.464
X73.965Y-88.544
X73.965Y-93.624
X84.39Y-54.61
X84.44Y-42.56
X93.985Y-45.547
X99.065Y-45.547
X113.068Y-62.203
X114.268Y-45.903
X119.348Y-45.903
X124.428Y-45.903
X127.218Y-68.253
X127.268Y-56.203
X131.868Y-45.948
X136.948Y-45.948
X153.856Y-46.266
X153.856Y-68.766
X161.866Y-61.326
X162.746Y-46.086
X167.826Y-46.086
X175.451Y-46.258
X176.016Y-67.376
X176.066Y-55.326
X178.257Y-108.662
X178.257Y-131.162
X180.531Y-46.258
X190.043Y-108.584
X190.043Y-113.664
X190.043Y-120.629
X190.043Y-125.709
X190.043Y-132.719
X190.043Y-137.799
X190.08Y-96.41
X190.08Y-101.49
X190.686Y-43.546
X190.686Y-48.626
X190.686Y-53.706
M30
